M48
;Layer_Color=9474304
;FILE_FORMAT=2:5
INCH,LZ
;TYPE=PLATED
T1F00S00C0.01400
T2F00S00C0.03500
T3F00S00C0.04000
T4F00S00C0.04331
;TYPE=NON_PLATED
T5F00S00C0.04331
%
T01
X-00175Y0023
X-00205Y0065
X-0031496Y0066142
X-00335Y0071965
Y0078043
Y0084802
Y0090802
X-0023802Y00965
X-0025197Y0114567
X-002Y01175
X-0004231Y0117323
X0001181Y01175
X0011811Y012034
X001Y0140042
X00159Y01495
X-001684Y014685
Y014085
X-0019Y0155
X-00065Y0092437
X-00026Y0094488
X0006Y00975
X0021
X002416Y00815
X0029802Y0073622
X0008Y0071965
X0003543Y006811
X0006693Y006433
Y0049213
X0029802Y00495
X00335Y003
X0003543Y0083465
X-0004858Y0084646
Y00791
X-0034252Y0060173
Y0055
X-0046788Y0129133
X-0067945Y0151055
X-0051304Y0173
X-0058Y0204792
X-004434Y022484
X-0023Y02135
X-0006021Y02025
X0023802Y0202
Y018141
X0035Y017666
X00345Y016734
X0046085Y01715
X0061708Y0204792
Y0230958
X0071372Y0225043
X00425Y023134
X0027542
X0035Y02115
X-001902Y01629
T02
X0045Y0015
Y0025
Y0035
Y0045
Y0055
Y0065
Y0075
Y0085
X0068441Y01065
Y01165
Y01265
Y01365
Y01465
Y01565
X-0045Y0085
Y0075
Y0065
Y0055
Y0045
Y0035
Y0025
Y0015
T03
X0Y0014
X0020866Y0108661
X00325Y012
Y0135
X-0032283Y0106299
X-0067945Y019176
X-00605Y02435
X-0015Y0197458
X0049Y024
T04
X-0033Y0237
X-0023
X-0013
T05
X-0033Y0247
X-0023
X-0013
M30
