G04 Layer_Color=255*
%FSLAX25Y25*%
%MOIN*%
G70*
G01*
G75*
%ADD27C,0.08500*%
%ADD28C,0.04331*%
%ADD29C,0.08000*%
%ADD30C,0.06200*%
%ADD31R,0.06200X0.06200*%
%ADD32C,0.06500*%
%ADD33R,0.06500X0.06500*%
D27*
X-13000Y237000D02*
D03*
X-23000D02*
D03*
X-33000D02*
D03*
D28*
Y247000D02*
D03*
X-23000D02*
D03*
X-13000D02*
D03*
D29*
X49000Y240000D02*
D03*
X-67945Y191760D02*
D03*
X-60500Y243500D02*
D03*
X-32283Y106299D02*
D03*
X20866Y108661D02*
D03*
X32500Y120000D02*
D03*
Y135000D02*
D03*
X-15000Y197458D02*
D03*
X0Y14000D02*
D03*
D30*
X68441Y146500D02*
D03*
Y106500D02*
D03*
Y116500D02*
D03*
Y126500D02*
D03*
Y136500D02*
D03*
D31*
Y156500D02*
D03*
D32*
X45000Y25000D02*
D03*
Y75000D02*
D03*
Y65000D02*
D03*
Y85000D02*
D03*
Y45000D02*
D03*
Y35000D02*
D03*
Y55000D02*
D03*
Y15000D02*
D03*
X-45000Y65000D02*
D03*
Y15000D02*
D03*
Y55000D02*
D03*
Y35000D02*
D03*
Y25000D02*
D03*
Y45000D02*
D03*
Y75000D02*
D03*
D33*
Y85000D02*
D03*
M02*
