G04 Layer_Color=65535*
%FSLAX25Y25*%
%MOIN*%
G70*
G01*
G75*
%ADD24C,0.01000*%
%ADD36C,0.00197*%
%ADD37C,0.00600*%
%ADD38C,0.00984*%
%ADD39C,0.01200*%
%ADD40C,0.00591*%
%ADD41C,0.00787*%
%ADD42C,0.00800*%
%ADD43R,0.07087X0.01181*%
G36*
X16886Y25453D02*
X9109D01*
Y27476D01*
X16886D01*
Y25453D01*
D02*
G37*
G36*
X26605Y28264D02*
X18828D01*
Y30286D01*
X25050D01*
Y31519D01*
X26605D01*
Y28264D01*
D02*
G37*
G36*
Y25687D02*
X21361Y25676D01*
X26605Y24976D01*
Y23731D01*
X21472Y22987D01*
X26605D01*
Y21221D01*
X18828D01*
Y23820D01*
X18839D01*
X18861Y23831D01*
X18895D01*
X18950Y23843D01*
X19017Y23854D01*
X19106Y23865D01*
X19195Y23876D01*
X19306Y23898D01*
X19417Y23920D01*
X19550Y23931D01*
X19828Y23976D01*
X20150Y24020D01*
X20494Y24065D01*
X22461Y24354D01*
X18828Y24820D01*
Y27453D01*
X26605D01*
Y25687D01*
D02*
G37*
G36*
X15197Y19932D02*
X15275D01*
X15442Y19921D01*
X15642Y19887D01*
X15831Y19854D01*
X16019Y19798D01*
X16186Y19732D01*
X16208Y19721D01*
X16253Y19699D01*
X16319Y19643D01*
X16408Y19576D01*
X16508Y19476D01*
X16608Y19365D01*
X16697Y19221D01*
X16786Y19054D01*
X16797Y19032D01*
X16819Y18976D01*
X16853Y18876D01*
X16886Y18743D01*
X16930Y18576D01*
X16964Y18376D01*
X16986Y18165D01*
X16997Y17921D01*
Y17910D01*
Y17888D01*
Y17854D01*
Y17799D01*
X16986Y17732D01*
Y17665D01*
X16964Y17488D01*
X16941Y17288D01*
X16908Y17076D01*
X16853Y16865D01*
X16775Y16654D01*
Y16643D01*
X16764Y16632D01*
X16730Y16566D01*
X16675Y16477D01*
X16608Y16365D01*
X16519Y16254D01*
X16408Y16132D01*
X16286Y16021D01*
X16153Y15932D01*
X16130Y15921D01*
X16075Y15899D01*
X15986Y15877D01*
X15853Y15843D01*
X15686Y15799D01*
X15475Y15777D01*
X15231Y15754D01*
X14953Y15743D01*
X14642D01*
Y17465D01*
X15220D01*
X15331Y17477D01*
X15442D01*
X15553Y17488D01*
X15642Y17499D01*
X15719Y17521D01*
X15731D01*
X15742Y17532D01*
X15786Y17576D01*
X15842Y17654D01*
X15853Y17710D01*
X15864Y17776D01*
Y17788D01*
Y17810D01*
X15853Y17843D01*
Y17888D01*
X15819Y17988D01*
X15797Y18032D01*
X15764Y18065D01*
X15742Y18076D01*
X15719Y18099D01*
X15675Y18110D01*
X15608Y18132D01*
X15542Y18143D01*
X15442Y18154D01*
X15175D01*
X15086Y18143D01*
X14986Y18132D01*
X14897Y18110D01*
X14819Y18076D01*
X14764Y18043D01*
X14753Y18032D01*
X14731Y18010D01*
X14697Y17954D01*
X14664Y17910D01*
X14631Y17865D01*
X14597Y17799D01*
X14542Y17721D01*
X14486Y17621D01*
X14431Y17521D01*
X14353Y17399D01*
X14275Y17254D01*
X14186Y17088D01*
X14086Y16910D01*
X14075Y16899D01*
X14064Y16877D01*
X14042Y16832D01*
X14008Y16777D01*
X13964Y16710D01*
X13908Y16632D01*
X13797Y16454D01*
X13653Y16277D01*
X13509Y16110D01*
X13431Y16032D01*
X13353Y15966D01*
X13286Y15910D01*
X13209Y15866D01*
X13186Y15854D01*
X13142Y15843D01*
X13053Y15810D01*
X12942Y15777D01*
X12809Y15743D01*
X12653Y15721D01*
X12475Y15699D01*
X12286Y15688D01*
X12164D01*
X12020Y15699D01*
X11853Y15710D01*
X11675Y15732D01*
X11486Y15777D01*
X11309Y15821D01*
X11164Y15888D01*
X11153Y15899D01*
X11109Y15932D01*
X11042Y15977D01*
X10953Y16043D01*
X10864Y16143D01*
X10775Y16254D01*
X10676Y16399D01*
X10598Y16566D01*
Y16577D01*
X10587Y16588D01*
X10564Y16654D01*
X10531Y16754D01*
X10498Y16888D01*
X10464Y17054D01*
X10431Y17243D01*
X10409Y17454D01*
X10398Y17688D01*
Y17699D01*
Y17721D01*
Y17754D01*
Y17799D01*
X10409Y17910D01*
X10420Y18065D01*
X10442Y18232D01*
X10464Y18421D01*
X10509Y18599D01*
X10564Y18776D01*
X10576Y18799D01*
X10598Y18854D01*
X10631Y18932D01*
X10676Y19032D01*
X10742Y19143D01*
X10820Y19254D01*
X10898Y19354D01*
X10998Y19454D01*
X11009Y19465D01*
X11042Y19487D01*
X11086Y19532D01*
X11153Y19576D01*
X11309Y19676D01*
X11398Y19710D01*
X11486Y19743D01*
X11498D01*
X11531Y19754D01*
X11586Y19765D01*
X11653Y19776D01*
X11753D01*
X11875Y19787D01*
X12020Y19798D01*
X12553D01*
Y18076D01*
X12064D01*
X11975Y18065D01*
X11886D01*
X11787Y18054D01*
X11709Y18043D01*
X11653Y18021D01*
X11642D01*
X11631Y18010D01*
X11586Y17965D01*
X11564Y17932D01*
X11553Y17888D01*
X11531Y17832D01*
Y17765D01*
Y17754D01*
Y17743D01*
X11542Y17676D01*
X11575Y17588D01*
X11642Y17521D01*
X11664Y17510D01*
X11720Y17488D01*
X11820Y17454D01*
X11964Y17443D01*
X12131D01*
X12275Y17454D01*
X12342Y17465D01*
X12398Y17477D01*
X12409D01*
X12420Y17488D01*
X12486Y17521D01*
X12531Y17554D01*
X12575Y17599D01*
X12642Y17654D01*
X12697Y17721D01*
X12709Y17732D01*
X12731Y17765D01*
X12764Y17821D01*
X12820Y17910D01*
X12886Y18021D01*
X12964Y18165D01*
X13064Y18343D01*
X13175Y18565D01*
Y18576D01*
X13197Y18599D01*
X13220Y18643D01*
X13242Y18699D01*
X13286Y18765D01*
X13320Y18843D01*
X13431Y19021D01*
X13542Y19210D01*
X13675Y19387D01*
X13808Y19554D01*
X13886Y19621D01*
X13953Y19676D01*
X13964Y19687D01*
X14020Y19721D01*
X14097Y19765D01*
X14220Y19810D01*
X14364Y19854D01*
X14553Y19898D01*
X14764Y19932D01*
X15008Y19943D01*
X15131D01*
X15197Y19932D01*
D02*
G37*
G36*
X12220Y24865D02*
X12375Y24854D01*
X12553Y24842D01*
X12742Y24809D01*
X12909Y24776D01*
X13053Y24720D01*
X13064Y24709D01*
X13109Y24687D01*
X13175Y24654D01*
X13242Y24587D01*
X13331Y24509D01*
X13420Y24420D01*
X13497Y24298D01*
X13575Y24154D01*
X13586Y24131D01*
X13597Y24076D01*
X13631Y23987D01*
X13664Y23865D01*
X13697Y23709D01*
X13720Y23531D01*
X13742Y23309D01*
X13753Y23076D01*
Y22543D01*
X16886D01*
Y20521D01*
X9109D01*
Y22554D01*
Y22565D01*
Y22587D01*
Y22632D01*
Y22687D01*
Y22754D01*
X9120Y22843D01*
Y23020D01*
X9142Y23220D01*
X9165Y23431D01*
X9198Y23642D01*
X9242Y23820D01*
X9253Y23843D01*
X9264Y23898D01*
X9298Y23976D01*
X9342Y24076D01*
X9398Y24176D01*
X9453Y24287D01*
X9531Y24398D01*
X9620Y24487D01*
X9631Y24498D01*
X9664Y24520D01*
X9720Y24565D01*
X9787Y24609D01*
X9876Y24654D01*
X9975Y24709D01*
X10087Y24754D01*
X10220Y24787D01*
X10231D01*
X10287Y24798D01*
X10364Y24820D01*
X10487Y24831D01*
X10631Y24854D01*
X10820Y24865D01*
X11031Y24876D01*
X12087D01*
X12220Y24865D01*
D02*
G37*
G36*
X14497Y32997D02*
X14619D01*
X14753Y32986D01*
X15031Y32964D01*
X15308Y32930D01*
X15575Y32886D01*
X15697Y32864D01*
X15797Y32831D01*
X15819Y32819D01*
X15886Y32797D01*
X15975Y32742D01*
X16097Y32675D01*
X16230Y32575D01*
X16375Y32442D01*
X16530Y32275D01*
X16675Y32075D01*
Y32064D01*
X16686Y32053D01*
X16708Y32019D01*
X16730Y31975D01*
X16764Y31920D01*
X16797Y31853D01*
X16864Y31675D01*
X16930Y31475D01*
X16997Y31231D01*
X17041Y30953D01*
X17053Y30642D01*
Y30631D01*
Y30597D01*
Y30553D01*
Y30497D01*
X17041Y30420D01*
X17030Y30331D01*
X17008Y30131D01*
X16975Y29897D01*
X16919Y29653D01*
X16841Y29409D01*
X16741Y29175D01*
Y29164D01*
X16730Y29153D01*
X16686Y29087D01*
X16608Y28986D01*
X16508Y28864D01*
X16386Y28731D01*
X16230Y28609D01*
X16053Y28498D01*
X15853Y28409D01*
X15842D01*
X15831Y28398D01*
X15786D01*
X15742Y28387D01*
X15686Y28364D01*
X15608Y28353D01*
X15519Y28342D01*
X15419Y28320D01*
X15308Y28309D01*
X15175Y28286D01*
X15042Y28275D01*
X14886Y28264D01*
X14719Y28253D01*
X14531Y28242D01*
X14342Y28231D01*
X11575D01*
X11387Y28242D01*
X11186D01*
X10975Y28253D01*
X10775Y28264D01*
X10609Y28286D01*
X10587D01*
X10531Y28298D01*
X10453Y28320D01*
X10353Y28353D01*
X10220Y28398D01*
X10087Y28453D01*
X9942Y28531D01*
X9798Y28620D01*
X9776Y28631D01*
X9731Y28675D01*
X9664Y28742D01*
X9576Y28831D01*
X9476Y28942D01*
X9376Y29075D01*
X9276Y29231D01*
X9187Y29409D01*
Y29420D01*
X9176Y29431D01*
X9153Y29498D01*
X9109Y29609D01*
X9065Y29753D01*
X9031Y29920D01*
X8987Y30120D01*
X8964Y30342D01*
X8953Y30586D01*
Y30597D01*
Y30631D01*
Y30675D01*
Y30731D01*
X8964Y30808D01*
X8976Y30897D01*
X8998Y31108D01*
X9042Y31331D01*
X9098Y31575D01*
X9187Y31819D01*
X9309Y32053D01*
Y32064D01*
X9320Y32075D01*
X9376Y32153D01*
X9442Y32253D01*
X9542Y32375D01*
X9676Y32497D01*
X9820Y32631D01*
X9987Y32730D01*
X10176Y32819D01*
X10187D01*
X10198Y32831D01*
X10231Y32842D01*
X10276Y32853D01*
X10331Y32864D01*
X10398Y32875D01*
X10475Y32897D01*
X10564Y32919D01*
X10676Y32930D01*
X10787Y32953D01*
X10920Y32964D01*
X11064Y32975D01*
X11220Y32986D01*
X11398Y32997D01*
X11575Y33008D01*
X12509D01*
Y30986D01*
X10964D01*
X10842Y30975D01*
X10720D01*
X10598Y30964D01*
X10498Y30942D01*
X10420Y30920D01*
X10409D01*
X10398Y30909D01*
X10342Y30864D01*
X10309Y30820D01*
X10287Y30775D01*
X10276Y30709D01*
X10264Y30631D01*
Y30620D01*
Y30597D01*
X10276Y30553D01*
X10287Y30497D01*
X10309Y30453D01*
X10342Y30397D01*
X10387Y30353D01*
X10453Y30320D01*
X10464D01*
X10487Y30309D01*
X10542Y30297D01*
X10620Y30286D01*
X10720Y30275D01*
X10853Y30264D01*
X11020Y30253D01*
X15020D01*
X15131Y30264D01*
X15264D01*
X15386Y30286D01*
X15486Y30297D01*
X15575Y30320D01*
X15586D01*
X15597Y30331D01*
X15653Y30386D01*
X15686Y30420D01*
X15719Y30475D01*
X15731Y30542D01*
X15742Y30620D01*
Y30631D01*
Y30653D01*
X15731Y30697D01*
X15719Y30742D01*
X15697Y30786D01*
X15675Y30831D01*
X15631Y30875D01*
X15575Y30909D01*
X15564D01*
X15542Y30920D01*
X15486Y30931D01*
X15408Y30953D01*
X15297Y30964D01*
X15153Y30975D01*
X14975Y30986D01*
X13775D01*
Y33008D01*
X14375D01*
X14497Y32997D01*
D02*
G37*
G36*
X14797Y43385D02*
X14886D01*
X15086Y43374D01*
X15319Y43341D01*
X15553Y43307D01*
X15786Y43252D01*
X15997Y43185D01*
X16019Y43174D01*
X16086Y43141D01*
X16175Y43096D01*
X16286Y43018D01*
X16408Y42918D01*
X16542Y42785D01*
X16664Y42630D01*
X16775Y42452D01*
Y42441D01*
X16786Y42430D01*
X16797Y42396D01*
X16819Y42363D01*
X16864Y42241D01*
X16908Y42096D01*
X16953Y41896D01*
X16997Y41674D01*
X17030Y41418D01*
X17041Y41130D01*
Y41119D01*
Y41085D01*
Y41041D01*
Y40974D01*
X17030Y40896D01*
Y40808D01*
X17008Y40608D01*
X16964Y40374D01*
X16919Y40130D01*
X16841Y39885D01*
X16741Y39674D01*
Y39663D01*
X16730Y39652D01*
X16686Y39585D01*
X16619Y39496D01*
X16530Y39397D01*
X16419Y39274D01*
X16286Y39163D01*
X16142Y39063D01*
X15986Y38985D01*
X15975D01*
X15964Y38974D01*
X15942D01*
X15897Y38963D01*
X15842Y38952D01*
X15786Y38941D01*
X15708Y38919D01*
X15619Y38908D01*
X15519Y38897D01*
X15408Y38874D01*
X15275Y38863D01*
X15131Y38852D01*
X14975Y38841D01*
X14808D01*
X14619Y38830D01*
X13797D01*
Y40763D01*
X15231D01*
X15331Y40774D01*
X15442D01*
X15553Y40785D01*
X15642Y40796D01*
X15708Y40819D01*
X15731Y40830D01*
X15775Y40874D01*
X15797Y40907D01*
X15819Y40952D01*
X15831Y41019D01*
X15842Y41085D01*
Y41096D01*
Y41119D01*
X15831Y41163D01*
X15819Y41208D01*
X15797Y41252D01*
X15775Y41296D01*
X15731Y41341D01*
X15675Y41374D01*
X15664D01*
X15631Y41385D01*
X15575Y41396D01*
X15497Y41418D01*
X15375Y41430D01*
X15220Y41441D01*
X15131D01*
X15020Y41452D01*
X14075D01*
X13986Y41441D01*
X13775Y41407D01*
X13675Y41374D01*
X13586Y41341D01*
X13575D01*
X13553Y41319D01*
X13520Y41296D01*
X13475Y41263D01*
X13375Y41174D01*
X13342Y41107D01*
X13308Y41041D01*
Y41030D01*
X13297Y41008D01*
X13286Y40952D01*
X13275Y40874D01*
X13264Y40774D01*
X13242Y40652D01*
Y40485D01*
X13231Y40296D01*
X12098D01*
Y40308D01*
Y40330D01*
Y40363D01*
Y40407D01*
Y40519D01*
X12087Y40663D01*
Y40808D01*
X12075Y40941D01*
X12064Y41063D01*
Y41107D01*
X12053Y41141D01*
Y41152D01*
X12042Y41163D01*
X11998Y41230D01*
X11931Y41319D01*
X11875Y41352D01*
X11820Y41385D01*
X11809D01*
X11787Y41396D01*
X11742Y41407D01*
X11687Y41430D01*
X11609Y41441D01*
X11509Y41452D01*
X11398Y41463D01*
X10698D01*
X10609Y41452D01*
X10442Y41430D01*
X10353Y41407D01*
X10298Y41374D01*
X10287D01*
X10276Y41363D01*
X10231Y41308D01*
X10187Y41230D01*
X10164Y41174D01*
Y41107D01*
Y41096D01*
Y41074D01*
X10176Y41041D01*
X10187Y40996D01*
X10220Y40907D01*
X10264Y40863D01*
X10309Y40830D01*
X10320D01*
X10331Y40819D01*
X10375Y40808D01*
X10431Y40796D01*
X10509Y40785D01*
X10609Y40774D01*
X10731Y40763D01*
X11520D01*
Y38830D01*
X10764D01*
X10687Y38841D01*
X10598D01*
X10487Y38852D01*
X10264Y38897D01*
X10009Y38952D01*
X9764Y39041D01*
X9642Y39097D01*
X9542Y39163D01*
X9442Y39241D01*
X9364Y39330D01*
Y39341D01*
X9342Y39352D01*
X9331Y39385D01*
X9298Y39430D01*
X9276Y39485D01*
X9242Y39552D01*
X9198Y39630D01*
X9165Y39730D01*
X9131Y39830D01*
X9087Y39952D01*
X9053Y40085D01*
X9031Y40230D01*
X8998Y40385D01*
X8987Y40563D01*
X8964Y40752D01*
Y40952D01*
Y40963D01*
Y41008D01*
Y41085D01*
X8976Y41174D01*
Y41285D01*
X8998Y41418D01*
X9009Y41563D01*
X9031Y41707D01*
X9098Y42018D01*
X9198Y42330D01*
X9253Y42474D01*
X9331Y42607D01*
X9409Y42729D01*
X9509Y42829D01*
X9520Y42841D01*
X9531Y42852D01*
X9565Y42874D01*
X9609Y42907D01*
X9664Y42941D01*
X9731Y42985D01*
X9809Y43029D01*
X9898Y43085D01*
X10009Y43130D01*
X10120Y43174D01*
X10375Y43252D01*
X10676Y43307D01*
X10842Y43330D01*
X11120D01*
X11242Y43318D01*
X11375Y43307D01*
X11531Y43285D01*
X11687Y43252D01*
X11831Y43207D01*
X11953Y43141D01*
X11964Y43130D01*
X11998Y43107D01*
X12053Y43063D01*
X12131Y42996D01*
X12209Y42907D01*
X12297Y42807D01*
X12398Y42674D01*
X12486Y42518D01*
X12498Y42541D01*
X12509Y42596D01*
X12553Y42674D01*
X12597Y42763D01*
X12664Y42874D01*
X12753Y42985D01*
X12853Y43085D01*
X12975Y43174D01*
X12986Y43185D01*
X13009Y43196D01*
X13042Y43207D01*
X13086Y43229D01*
X13142Y43241D01*
X13220Y43263D01*
X13297Y43285D01*
X13397Y43307D01*
X13509Y43330D01*
X13642Y43341D01*
X13786Y43363D01*
X13953Y43374D01*
X14131Y43385D01*
X14342Y43396D01*
X14719D01*
X14797Y43385D01*
D02*
G37*
G36*
X26605Y42930D02*
X18828D01*
Y44952D01*
X26605D01*
Y42930D01*
D02*
G37*
G36*
Y39185D02*
X18828D01*
Y41208D01*
X25050D01*
Y42441D01*
X26605D01*
Y39185D01*
D02*
G37*
G36*
X24216Y38452D02*
X24339D01*
X24472Y38441D01*
X24750Y38419D01*
X25027Y38385D01*
X25294Y38341D01*
X25416Y38319D01*
X25516Y38285D01*
X25538Y38274D01*
X25605Y38252D01*
X25694Y38197D01*
X25816Y38130D01*
X25949Y38030D01*
X26094Y37897D01*
X26250Y37730D01*
X26394Y37530D01*
Y37519D01*
X26405Y37508D01*
X26427Y37475D01*
X26449Y37430D01*
X26483Y37374D01*
X26516Y37308D01*
X26583Y37130D01*
X26649Y36930D01*
X26716Y36686D01*
X26761Y36408D01*
X26772Y36097D01*
Y36086D01*
Y36052D01*
Y36008D01*
Y35952D01*
X26761Y35875D01*
X26749Y35786D01*
X26727Y35586D01*
X26694Y35353D01*
X26638Y35108D01*
X26561Y34864D01*
X26461Y34630D01*
Y34619D01*
X26449Y34608D01*
X26405Y34541D01*
X26327Y34442D01*
X26227Y34319D01*
X26105Y34186D01*
X25949Y34064D01*
X25772Y33953D01*
X25572Y33864D01*
X25561D01*
X25550Y33853D01*
X25505D01*
X25461Y33841D01*
X25405Y33819D01*
X25327Y33808D01*
X25238Y33797D01*
X25139Y33775D01*
X25027Y33764D01*
X24894Y33742D01*
X24761Y33730D01*
X24605Y33719D01*
X24439Y33708D01*
X24250Y33697D01*
X24061Y33686D01*
X21294D01*
X21105Y33697D01*
X20906D01*
X20695Y33708D01*
X20494Y33719D01*
X20328Y33742D01*
X20306D01*
X20250Y33753D01*
X20172Y33775D01*
X20072Y33808D01*
X19939Y33853D01*
X19806Y33908D01*
X19661Y33986D01*
X19517Y34075D01*
X19495Y34086D01*
X19450Y34130D01*
X19384Y34197D01*
X19295Y34286D01*
X19195Y34397D01*
X19095Y34530D01*
X18995Y34686D01*
X18906Y34864D01*
Y34875D01*
X18895Y34886D01*
X18872Y34953D01*
X18828Y35064D01*
X18784Y35208D01*
X18750Y35375D01*
X18706Y35575D01*
X18684Y35797D01*
X18673Y36041D01*
Y36052D01*
Y36086D01*
Y36130D01*
Y36186D01*
X18684Y36263D01*
X18695Y36352D01*
X18717Y36564D01*
X18761Y36786D01*
X18817Y37030D01*
X18906Y37275D01*
X19028Y37508D01*
Y37519D01*
X19039Y37530D01*
X19095Y37608D01*
X19161Y37708D01*
X19261Y37830D01*
X19395Y37952D01*
X19539Y38086D01*
X19706Y38186D01*
X19895Y38274D01*
X19906D01*
X19917Y38285D01*
X19950Y38297D01*
X19995Y38308D01*
X20050Y38319D01*
X20117Y38330D01*
X20195Y38352D01*
X20283Y38374D01*
X20394Y38385D01*
X20506Y38408D01*
X20639Y38419D01*
X20783Y38430D01*
X20939Y38441D01*
X21117Y38452D01*
X21294Y38463D01*
X22228D01*
Y36441D01*
X20683D01*
X20561Y36430D01*
X20439D01*
X20317Y36419D01*
X20217Y36397D01*
X20139Y36375D01*
X20128D01*
X20117Y36364D01*
X20061Y36319D01*
X20028Y36275D01*
X20006Y36230D01*
X19995Y36163D01*
X19983Y36086D01*
Y36075D01*
Y36052D01*
X19995Y36008D01*
X20006Y35952D01*
X20028Y35908D01*
X20061Y35852D01*
X20106Y35808D01*
X20172Y35775D01*
X20183D01*
X20206Y35764D01*
X20261Y35752D01*
X20339Y35741D01*
X20439Y35730D01*
X20572Y35719D01*
X20739Y35708D01*
X24738D01*
X24850Y35719D01*
X24983D01*
X25105Y35741D01*
X25205Y35752D01*
X25294Y35775D01*
X25305D01*
X25316Y35786D01*
X25372Y35841D01*
X25405Y35875D01*
X25438Y35930D01*
X25450Y35997D01*
X25461Y36075D01*
Y36086D01*
Y36108D01*
X25450Y36152D01*
X25438Y36197D01*
X25416Y36241D01*
X25394Y36286D01*
X25350Y36330D01*
X25294Y36364D01*
X25283D01*
X25261Y36375D01*
X25205Y36386D01*
X25127Y36408D01*
X25016Y36419D01*
X24872Y36430D01*
X24694Y36441D01*
X23494D01*
Y38463D01*
X24094D01*
X24216Y38452D01*
D02*
G37*
G36*
X14797Y38174D02*
X14886D01*
X15086Y38163D01*
X15319Y38130D01*
X15553Y38097D01*
X15786Y38041D01*
X15997Y37975D01*
X16019Y37963D01*
X16086Y37930D01*
X16175Y37886D01*
X16286Y37808D01*
X16408Y37708D01*
X16542Y37574D01*
X16664Y37419D01*
X16775Y37241D01*
Y37230D01*
X16786Y37219D01*
X16797Y37186D01*
X16819Y37152D01*
X16864Y37030D01*
X16908Y36886D01*
X16953Y36686D01*
X16997Y36463D01*
X17030Y36208D01*
X17041Y35919D01*
Y35908D01*
Y35875D01*
Y35830D01*
Y35764D01*
X17030Y35686D01*
Y35597D01*
X17008Y35397D01*
X16964Y35164D01*
X16919Y34919D01*
X16841Y34675D01*
X16741Y34464D01*
Y34453D01*
X16730Y34442D01*
X16686Y34375D01*
X16619Y34286D01*
X16530Y34186D01*
X16419Y34064D01*
X16286Y33953D01*
X16142Y33853D01*
X15986Y33775D01*
X15975D01*
X15964Y33764D01*
X15942D01*
X15897Y33753D01*
X15842Y33742D01*
X15786Y33730D01*
X15708Y33708D01*
X15619Y33697D01*
X15519Y33686D01*
X15408Y33664D01*
X15275Y33653D01*
X15131Y33642D01*
X14975Y33630D01*
X14808D01*
X14619Y33619D01*
X13797D01*
Y35552D01*
X15231D01*
X15331Y35564D01*
X15442D01*
X15553Y35575D01*
X15642Y35586D01*
X15708Y35608D01*
X15731Y35619D01*
X15775Y35664D01*
X15797Y35697D01*
X15819Y35741D01*
X15831Y35808D01*
X15842Y35875D01*
Y35886D01*
Y35908D01*
X15831Y35952D01*
X15819Y35997D01*
X15797Y36041D01*
X15775Y36086D01*
X15731Y36130D01*
X15675Y36163D01*
X15664D01*
X15631Y36175D01*
X15575Y36186D01*
X15497Y36208D01*
X15375Y36219D01*
X15220Y36230D01*
X15131D01*
X15020Y36241D01*
X14075D01*
X13986Y36230D01*
X13775Y36197D01*
X13675Y36163D01*
X13586Y36130D01*
X13575D01*
X13553Y36108D01*
X13520Y36086D01*
X13475Y36052D01*
X13375Y35963D01*
X13342Y35897D01*
X13308Y35830D01*
Y35819D01*
X13297Y35797D01*
X13286Y35741D01*
X13275Y35664D01*
X13264Y35564D01*
X13242Y35441D01*
Y35275D01*
X13231Y35086D01*
X12098D01*
Y35097D01*
Y35119D01*
Y35153D01*
Y35197D01*
Y35308D01*
X12087Y35452D01*
Y35597D01*
X12075Y35730D01*
X12064Y35852D01*
Y35897D01*
X12053Y35930D01*
Y35941D01*
X12042Y35952D01*
X11998Y36019D01*
X11931Y36108D01*
X11875Y36141D01*
X11820Y36175D01*
X11809D01*
X11787Y36186D01*
X11742Y36197D01*
X11687Y36219D01*
X11609Y36230D01*
X11509Y36241D01*
X11398Y36252D01*
X10698D01*
X10609Y36241D01*
X10442Y36219D01*
X10353Y36197D01*
X10298Y36163D01*
X10287D01*
X10276Y36152D01*
X10231Y36097D01*
X10187Y36019D01*
X10164Y35963D01*
Y35897D01*
Y35886D01*
Y35864D01*
X10176Y35830D01*
X10187Y35786D01*
X10220Y35697D01*
X10264Y35653D01*
X10309Y35619D01*
X10320D01*
X10331Y35608D01*
X10375Y35597D01*
X10431Y35586D01*
X10509Y35575D01*
X10609Y35564D01*
X10731Y35552D01*
X11520D01*
Y33619D01*
X10764D01*
X10687Y33630D01*
X10598D01*
X10487Y33642D01*
X10264Y33686D01*
X10009Y33742D01*
X9764Y33830D01*
X9642Y33886D01*
X9542Y33953D01*
X9442Y34030D01*
X9364Y34119D01*
Y34130D01*
X9342Y34141D01*
X9331Y34175D01*
X9298Y34219D01*
X9276Y34275D01*
X9242Y34341D01*
X9198Y34419D01*
X9165Y34519D01*
X9131Y34619D01*
X9087Y34741D01*
X9053Y34875D01*
X9031Y35019D01*
X8998Y35175D01*
X8987Y35353D01*
X8964Y35541D01*
Y35741D01*
Y35752D01*
Y35797D01*
Y35875D01*
X8976Y35963D01*
Y36075D01*
X8998Y36208D01*
X9009Y36352D01*
X9031Y36497D01*
X9098Y36808D01*
X9198Y37119D01*
X9253Y37263D01*
X9331Y37397D01*
X9409Y37519D01*
X9509Y37619D01*
X9520Y37630D01*
X9531Y37641D01*
X9565Y37663D01*
X9609Y37697D01*
X9664Y37730D01*
X9731Y37775D01*
X9809Y37819D01*
X9898Y37874D01*
X10009Y37919D01*
X10120Y37963D01*
X10375Y38041D01*
X10676Y38097D01*
X10842Y38119D01*
X11120D01*
X11242Y38108D01*
X11375Y38097D01*
X11531Y38074D01*
X11687Y38041D01*
X11831Y37997D01*
X11953Y37930D01*
X11964Y37919D01*
X11998Y37897D01*
X12053Y37852D01*
X12131Y37786D01*
X12209Y37697D01*
X12297Y37597D01*
X12398Y37463D01*
X12486Y37308D01*
X12498Y37330D01*
X12509Y37386D01*
X12553Y37463D01*
X12597Y37552D01*
X12664Y37663D01*
X12753Y37775D01*
X12853Y37874D01*
X12975Y37963D01*
X12986Y37975D01*
X13009Y37986D01*
X13042Y37997D01*
X13086Y38019D01*
X13142Y38030D01*
X13220Y38052D01*
X13297Y38074D01*
X13397Y38097D01*
X13509Y38119D01*
X13642Y38130D01*
X13786Y38152D01*
X13953Y38163D01*
X14131Y38174D01*
X14342Y38186D01*
X14719D01*
X14797Y38174D01*
D02*
G37*
G36*
X26749Y18454D02*
Y16988D01*
X18684Y19298D01*
Y20754D01*
X26749Y18454D01*
D02*
G37*
G36*
X32351Y27773D02*
X32384D01*
X32473Y27756D01*
X32579Y27739D01*
X32690Y27711D01*
X32812Y27673D01*
X32928Y27617D01*
X32934D01*
X32939Y27612D01*
X32956Y27600D01*
X32978Y27589D01*
X33034Y27556D01*
X33106Y27506D01*
X33184Y27445D01*
X33261Y27373D01*
X33339Y27284D01*
X33406Y27190D01*
Y27184D01*
X33411Y27179D01*
X33422Y27162D01*
X33428Y27140D01*
X33456Y27084D01*
X33483Y27012D01*
X33517Y26918D01*
X33539Y26812D01*
X33561Y26696D01*
X33567Y26568D01*
Y26563D01*
Y26540D01*
X33561Y26513D01*
Y26468D01*
X33555Y26418D01*
X33544Y26363D01*
X33528Y26296D01*
X33511Y26230D01*
X33489Y26152D01*
X33461Y26074D01*
X33428Y25997D01*
X33383Y25913D01*
X33334Y25836D01*
X33278Y25758D01*
X33211Y25680D01*
X33134Y25608D01*
X33128Y25602D01*
X33112Y25591D01*
X33089Y25575D01*
X33051Y25552D01*
X33000Y25519D01*
X32945Y25491D01*
X32873Y25458D01*
X32795Y25425D01*
X32701Y25386D01*
X32595Y25353D01*
X32479Y25325D01*
X32351Y25297D01*
X32207Y25269D01*
X32051Y25253D01*
X31885Y25242D01*
X31707Y25236D01*
X31657D01*
X31602Y25242D01*
X31524D01*
X31435Y25247D01*
X31330Y25258D01*
X31213Y25269D01*
X31086Y25286D01*
X30958Y25308D01*
X30819Y25336D01*
X30686Y25369D01*
X30553Y25408D01*
X30425Y25458D01*
X30303Y25514D01*
X30187Y25575D01*
X30087Y25647D01*
X30081Y25652D01*
X30070Y25664D01*
X30048Y25686D01*
X30015Y25714D01*
X29981Y25747D01*
X29948Y25791D01*
X29904Y25847D01*
X29865Y25902D01*
X29826Y25969D01*
X29781Y26041D01*
X29748Y26124D01*
X29709Y26208D01*
X29682Y26302D01*
X29659Y26402D01*
X29648Y26507D01*
X29643Y26618D01*
Y26624D01*
Y26640D01*
Y26662D01*
X29648Y26696D01*
Y26735D01*
X29654Y26779D01*
X29676Y26885D01*
X29704Y27001D01*
X29748Y27123D01*
X29815Y27245D01*
X29854Y27306D01*
X29898Y27362D01*
X29904Y27367D01*
X29909Y27373D01*
X29926Y27390D01*
X29943Y27406D01*
X29970Y27434D01*
X30003Y27456D01*
X30081Y27517D01*
X30181Y27578D01*
X30303Y27634D01*
X30442Y27684D01*
X30597Y27717D01*
X30636Y27245D01*
X30631D01*
X30625Y27240D01*
X30592Y27234D01*
X30542Y27218D01*
X30481Y27195D01*
X30414Y27173D01*
X30348Y27140D01*
X30286Y27101D01*
X30237Y27062D01*
X30226Y27051D01*
X30203Y27029D01*
X30170Y26990D01*
X30131Y26934D01*
X30098Y26862D01*
X30065Y26785D01*
X30042Y26690D01*
X30031Y26590D01*
Y26579D01*
Y26551D01*
X30037Y26507D01*
X30048Y26457D01*
X30065Y26391D01*
X30087Y26324D01*
X30114Y26257D01*
X30159Y26191D01*
X30164Y26180D01*
X30187Y26152D01*
X30226Y26113D01*
X30281Y26063D01*
X30348Y26008D01*
X30425Y25947D01*
X30525Y25891D01*
X30636Y25836D01*
X30642D01*
X30653Y25830D01*
X30670Y25824D01*
X30692Y25813D01*
X30725Y25808D01*
X30764Y25797D01*
X30808Y25786D01*
X30864Y25774D01*
X30925Y25758D01*
X30991Y25747D01*
X31064Y25736D01*
X31141Y25730D01*
X31230Y25719D01*
X31319Y25714D01*
X31419Y25708D01*
X31519D01*
X31513Y25714D01*
X31480Y25736D01*
X31435Y25774D01*
X31380Y25824D01*
X31313Y25880D01*
X31252Y25952D01*
X31191Y26030D01*
X31136Y26119D01*
Y26124D01*
X31130Y26130D01*
X31113Y26163D01*
X31097Y26213D01*
X31069Y26280D01*
X31047Y26357D01*
X31030Y26446D01*
X31014Y26540D01*
X31008Y26640D01*
Y26646D01*
Y26662D01*
Y26685D01*
X31014Y26718D01*
X31019Y26763D01*
X31025Y26807D01*
X31036Y26862D01*
X31052Y26918D01*
X31091Y27046D01*
X31119Y27112D01*
X31158Y27179D01*
X31197Y27245D01*
X31241Y27318D01*
X31297Y27384D01*
X31358Y27445D01*
X31363Y27451D01*
X31374Y27462D01*
X31391Y27478D01*
X31419Y27495D01*
X31458Y27523D01*
X31496Y27551D01*
X31546Y27578D01*
X31602Y27612D01*
X31663Y27645D01*
X31730Y27673D01*
X31807Y27700D01*
X31885Y27728D01*
X31968Y27745D01*
X32063Y27762D01*
X32157Y27773D01*
X32257Y27778D01*
X32318D01*
X32351Y27773D01*
D02*
G37*
G36*
X33500Y34150D02*
X33439D01*
X33395Y34155D01*
X33345Y34161D01*
X33289Y34172D01*
X33234Y34183D01*
X33173Y34205D01*
X33167D01*
X33162Y34211D01*
X33128Y34222D01*
X33078Y34244D01*
X33012Y34277D01*
X32934Y34322D01*
X32845Y34377D01*
X32756Y34438D01*
X32662Y34516D01*
X32656D01*
X32651Y34527D01*
X32618Y34555D01*
X32568Y34605D01*
X32495Y34677D01*
X32412Y34760D01*
X32312Y34865D01*
X32201Y34993D01*
X32085Y35132D01*
X32079Y35137D01*
X32063Y35160D01*
X32035Y35193D01*
X32002Y35232D01*
X31957Y35282D01*
X31907Y35343D01*
X31852Y35404D01*
X31791Y35476D01*
X31657Y35615D01*
X31524Y35753D01*
X31458Y35820D01*
X31391Y35881D01*
X31330Y35937D01*
X31269Y35981D01*
X31263D01*
X31258Y35992D01*
X31241Y36003D01*
X31219Y36014D01*
X31158Y36053D01*
X31086Y36098D01*
X30997Y36136D01*
X30903Y36175D01*
X30797Y36197D01*
X30697Y36209D01*
X30686D01*
X30653Y36203D01*
X30597Y36197D01*
X30536Y36181D01*
X30459Y36159D01*
X30381Y36120D01*
X30303Y36070D01*
X30226Y36003D01*
X30214Y35992D01*
X30192Y35964D01*
X30164Y35925D01*
X30126Y35864D01*
X30092Y35787D01*
X30059Y35698D01*
X30037Y35592D01*
X30031Y35476D01*
Y35470D01*
Y35459D01*
Y35443D01*
X30037Y35420D01*
X30042Y35354D01*
X30059Y35276D01*
X30081Y35193D01*
X30120Y35099D01*
X30170Y35010D01*
X30237Y34927D01*
X30248Y34915D01*
X30275Y34893D01*
X30320Y34860D01*
X30386Y34827D01*
X30464Y34788D01*
X30564Y34754D01*
X30675Y34732D01*
X30803Y34721D01*
X30753Y34238D01*
X30747D01*
X30731Y34244D01*
X30703D01*
X30664Y34249D01*
X30619Y34260D01*
X30570Y34272D01*
X30509Y34288D01*
X30448Y34305D01*
X30314Y34349D01*
X30181Y34416D01*
X30114Y34455D01*
X30048Y34505D01*
X29987Y34555D01*
X29931Y34610D01*
X29926Y34616D01*
X29920Y34627D01*
X29904Y34644D01*
X29887Y34671D01*
X29865Y34705D01*
X29842Y34743D01*
X29815Y34788D01*
X29787Y34843D01*
X29759Y34904D01*
X29732Y34971D01*
X29709Y35043D01*
X29687Y35121D01*
X29671Y35204D01*
X29654Y35293D01*
X29648Y35387D01*
X29643Y35487D01*
Y35493D01*
Y35509D01*
Y35543D01*
X29648Y35581D01*
X29654Y35626D01*
X29659Y35681D01*
X29671Y35742D01*
X29682Y35803D01*
X29720Y35948D01*
X29776Y36092D01*
X29809Y36164D01*
X29848Y36236D01*
X29898Y36303D01*
X29954Y36364D01*
X29959Y36369D01*
X29965Y36381D01*
X29987Y36392D01*
X30009Y36414D01*
X30037Y36442D01*
X30076Y36469D01*
X30114Y36497D01*
X30164Y36531D01*
X30270Y36586D01*
X30403Y36641D01*
X30470Y36664D01*
X30547Y36675D01*
X30625Y36686D01*
X30708Y36691D01*
X30747D01*
X30792Y36686D01*
X30853Y36680D01*
X30919Y36669D01*
X30997Y36647D01*
X31080Y36625D01*
X31163Y36592D01*
X31174Y36586D01*
X31202Y36575D01*
X31247Y36553D01*
X31308Y36519D01*
X31374Y36475D01*
X31458Y36419D01*
X31541Y36353D01*
X31635Y36275D01*
X31646Y36264D01*
X31680Y36236D01*
X31707Y36209D01*
X31735Y36181D01*
X31768Y36147D01*
X31813Y36103D01*
X31857Y36059D01*
X31907Y36003D01*
X31963Y35948D01*
X32024Y35881D01*
X32085Y35809D01*
X32157Y35731D01*
X32229Y35642D01*
X32307Y35554D01*
X32312Y35548D01*
X32323Y35537D01*
X32340Y35515D01*
X32362Y35487D01*
X32395Y35454D01*
X32429Y35415D01*
X32501Y35326D01*
X32584Y35232D01*
X32667Y35143D01*
X32740Y35065D01*
X32767Y35032D01*
X32795Y35004D01*
X32801Y34999D01*
X32817Y34982D01*
X32840Y34960D01*
X32873Y34932D01*
X32912Y34904D01*
X32950Y34871D01*
X33045Y34804D01*
Y36697D01*
X33500D01*
Y34150D01*
D02*
G37*
G36*
Y24032D02*
X32962D01*
Y24570D01*
X33500D01*
Y24032D01*
D02*
G37*
G36*
Y19015D02*
Y18482D01*
X29659Y16995D01*
Y17549D01*
X32451Y18548D01*
X32457D01*
X32468Y18554D01*
X32484Y18560D01*
X32506Y18571D01*
X32540Y18576D01*
X32573Y18587D01*
X32656Y18615D01*
X32751Y18648D01*
X32856Y18682D01*
X33078Y18748D01*
X33073D01*
X33062Y18754D01*
X33045Y18759D01*
X33023Y18765D01*
X32962Y18781D01*
X32878Y18809D01*
X32784Y18837D01*
X32679Y18870D01*
X32568Y18909D01*
X32451Y18954D01*
X29659Y19997D01*
Y20513D01*
X33500Y19015D01*
D02*
G37*
G36*
Y22084D02*
X30497D01*
X30503Y22078D01*
X30525Y22050D01*
X30558Y22017D01*
X30597Y21962D01*
X30647Y21901D01*
X30703Y21823D01*
X30764Y21734D01*
X30825Y21634D01*
Y21629D01*
X30830Y21623D01*
X30853Y21590D01*
X30880Y21534D01*
X30914Y21468D01*
X30953Y21390D01*
X30991Y21307D01*
X31030Y21224D01*
X31064Y21140D01*
X30608D01*
Y21146D01*
X30597Y21157D01*
X30592Y21179D01*
X30575Y21207D01*
X30558Y21240D01*
X30536Y21279D01*
X30481Y21373D01*
X30420Y21484D01*
X30342Y21595D01*
X30253Y21712D01*
X30159Y21828D01*
X30153Y21834D01*
X30148Y21840D01*
X30131Y21856D01*
X30114Y21879D01*
X30059Y21928D01*
X29992Y21995D01*
X29915Y22062D01*
X29826Y22134D01*
X29737Y22195D01*
X29643Y22250D01*
Y22556D01*
X33500D01*
Y22084D01*
D02*
G37*
G36*
X31780Y39705D02*
X31846D01*
X31918Y39700D01*
X31996Y39694D01*
X32174Y39677D01*
X32357Y39650D01*
X32534Y39616D01*
X32618Y39594D01*
X32701Y39566D01*
X32706D01*
X32717Y39561D01*
X32740Y39550D01*
X32767Y39538D01*
X32806Y39527D01*
X32845Y39505D01*
X32939Y39461D01*
X33039Y39405D01*
X33150Y39333D01*
X33250Y39250D01*
X33345Y39150D01*
Y39145D01*
X33356Y39139D01*
X33367Y39122D01*
X33378Y39100D01*
X33395Y39072D01*
X33417Y39045D01*
X33456Y38961D01*
X33494Y38862D01*
X33533Y38745D01*
X33555Y38606D01*
X33567Y38456D01*
Y38451D01*
Y38434D01*
Y38401D01*
X33561Y38362D01*
X33555Y38317D01*
X33544Y38262D01*
X33533Y38201D01*
X33517Y38134D01*
X33494Y38068D01*
X33472Y37996D01*
X33439Y37923D01*
X33400Y37851D01*
X33356Y37779D01*
X33300Y37707D01*
X33239Y37640D01*
X33173Y37579D01*
X33167Y37574D01*
X33150Y37563D01*
X33123Y37546D01*
X33078Y37518D01*
X33028Y37491D01*
X32962Y37463D01*
X32884Y37424D01*
X32795Y37391D01*
X32695Y37357D01*
X32579Y37324D01*
X32451Y37291D01*
X32307Y37263D01*
X32151Y37235D01*
X31985Y37219D01*
X31802Y37207D01*
X31607Y37202D01*
X31496D01*
X31435Y37207D01*
X31369D01*
X31297Y37213D01*
X31213Y37219D01*
X31041Y37235D01*
X30858Y37263D01*
X30675Y37296D01*
X30592Y37319D01*
X30509Y37341D01*
X30503D01*
X30492Y37346D01*
X30470Y37357D01*
X30442Y37369D01*
X30403Y37380D01*
X30364Y37402D01*
X30270Y37446D01*
X30170Y37502D01*
X30065Y37574D01*
X29959Y37657D01*
X29870Y37757D01*
Y37762D01*
X29859Y37768D01*
X29848Y37785D01*
X29837Y37807D01*
X29815Y37835D01*
X29798Y37868D01*
X29754Y37951D01*
X29715Y38051D01*
X29676Y38168D01*
X29654Y38306D01*
X29643Y38456D01*
Y38462D01*
Y38467D01*
Y38484D01*
Y38506D01*
X29648Y38567D01*
X29659Y38639D01*
X29676Y38723D01*
X29698Y38811D01*
X29726Y38906D01*
X29770Y38995D01*
Y39000D01*
X29776Y39006D01*
X29793Y39033D01*
X29820Y39078D01*
X29859Y39133D01*
X29915Y39195D01*
X29976Y39261D01*
X30048Y39322D01*
X30131Y39383D01*
X30142Y39389D01*
X30170Y39411D01*
X30220Y39433D01*
X30292Y39472D01*
X30375Y39505D01*
X30470Y39550D01*
X30581Y39588D01*
X30703Y39622D01*
X30708D01*
X30720Y39627D01*
X30736Y39633D01*
X30764Y39639D01*
X30797Y39644D01*
X30836Y39650D01*
X30886Y39661D01*
X30941Y39666D01*
X31003Y39677D01*
X31069Y39683D01*
X31147Y39688D01*
X31225Y39700D01*
X31313Y39705D01*
X31402D01*
X31502Y39711D01*
X31719D01*
X31780Y39705D01*
D02*
G37*
G36*
X16886Y13188D02*
X16419D01*
X16431Y13177D01*
X16464Y13144D01*
X16519Y13088D01*
X16586Y13010D01*
X16653Y12921D01*
X16719Y12821D01*
X16797Y12710D01*
X16853Y12599D01*
X16864Y12588D01*
X16875Y12544D01*
X16897Y12488D01*
X16919Y12399D01*
X16953Y12310D01*
X16975Y12199D01*
X16986Y12077D01*
X16997Y11955D01*
Y11933D01*
Y11877D01*
X16986Y11799D01*
X16964Y11688D01*
X16941Y11566D01*
X16897Y11444D01*
X16841Y11310D01*
X16764Y11177D01*
X16753Y11166D01*
X16719Y11122D01*
X16675Y11066D01*
X16608Y10999D01*
X16530Y10933D01*
X16431Y10855D01*
X16330Y10799D01*
X16219Y10755D01*
X16208D01*
X16164Y10744D01*
X16086Y10733D01*
X15975Y10711D01*
X15831Y10699D01*
X15653Y10677D01*
X15442Y10666D01*
X11975D01*
X11809Y10677D01*
X11642Y10688D01*
X11464Y10699D01*
X11309Y10722D01*
X11175Y10755D01*
X11164D01*
X11120Y10777D01*
X11064Y10799D01*
X10987Y10844D01*
X10909Y10899D01*
X10809Y10966D01*
X10720Y11066D01*
X10631Y11177D01*
X10620Y11188D01*
X10598Y11244D01*
X10553Y11310D01*
X10509Y11410D01*
X10475Y11522D01*
X10431Y11655D01*
X10409Y11810D01*
X10398Y11977D01*
Y11999D01*
Y12044D01*
X10409Y12110D01*
Y12199D01*
X10431Y12299D01*
X10453Y12410D01*
X10487Y12533D01*
X10531Y12644D01*
X10542Y12655D01*
X10553Y12699D01*
X10587Y12755D01*
X10631Y12821D01*
X10687Y12910D01*
X10753Y12999D01*
X10842Y13099D01*
X10931Y13188D01*
X9109D01*
Y15132D01*
X16886D01*
Y13188D01*
D02*
G37*
G36*
X26605Y14499D02*
X18828D01*
Y16521D01*
X26605D01*
Y14499D01*
D02*
G37*
G36*
Y12099D02*
X25205Y11988D01*
Y11244D01*
X26605Y11133D01*
Y9055D01*
X18828Y10077D01*
Y12988D01*
X26605Y14155D01*
Y12099D01*
D02*
G37*
G36*
X33500Y40121D02*
X33439D01*
X33395Y40127D01*
X33345Y40132D01*
X33289Y40143D01*
X33234Y40155D01*
X33173Y40177D01*
X33167D01*
X33162Y40182D01*
X33128Y40194D01*
X33078Y40216D01*
X33012Y40249D01*
X32934Y40293D01*
X32845Y40349D01*
X32756Y40410D01*
X32662Y40488D01*
X32656D01*
X32651Y40499D01*
X32618Y40526D01*
X32568Y40576D01*
X32495Y40649D01*
X32412Y40732D01*
X32312Y40837D01*
X32201Y40965D01*
X32085Y41104D01*
X32079Y41109D01*
X32063Y41131D01*
X32035Y41165D01*
X32002Y41204D01*
X31957Y41254D01*
X31907Y41315D01*
X31852Y41376D01*
X31791Y41448D01*
X31657Y41587D01*
X31524Y41725D01*
X31458Y41792D01*
X31391Y41853D01*
X31330Y41908D01*
X31269Y41953D01*
X31263D01*
X31258Y41964D01*
X31241Y41975D01*
X31219Y41986D01*
X31158Y42025D01*
X31086Y42069D01*
X30997Y42108D01*
X30903Y42147D01*
X30797Y42169D01*
X30697Y42180D01*
X30686D01*
X30653Y42175D01*
X30597Y42169D01*
X30536Y42153D01*
X30459Y42130D01*
X30381Y42092D01*
X30303Y42042D01*
X30226Y41975D01*
X30214Y41964D01*
X30192Y41936D01*
X30164Y41897D01*
X30126Y41836D01*
X30092Y41759D01*
X30059Y41670D01*
X30037Y41564D01*
X30031Y41448D01*
Y41442D01*
Y41431D01*
Y41414D01*
X30037Y41392D01*
X30042Y41326D01*
X30059Y41248D01*
X30081Y41165D01*
X30120Y41070D01*
X30170Y40982D01*
X30237Y40898D01*
X30248Y40887D01*
X30275Y40865D01*
X30320Y40832D01*
X30386Y40798D01*
X30464Y40760D01*
X30564Y40726D01*
X30675Y40704D01*
X30803Y40693D01*
X30753Y40210D01*
X30747D01*
X30731Y40216D01*
X30703D01*
X30664Y40221D01*
X30619Y40232D01*
X30570Y40243D01*
X30509Y40260D01*
X30448Y40277D01*
X30314Y40321D01*
X30181Y40388D01*
X30114Y40426D01*
X30048Y40477D01*
X29987Y40526D01*
X29931Y40582D01*
X29926Y40587D01*
X29920Y40599D01*
X29904Y40615D01*
X29887Y40643D01*
X29865Y40676D01*
X29842Y40715D01*
X29815Y40760D01*
X29787Y40815D01*
X29759Y40876D01*
X29732Y40943D01*
X29709Y41015D01*
X29687Y41093D01*
X29671Y41176D01*
X29654Y41265D01*
X29648Y41359D01*
X29643Y41459D01*
Y41464D01*
Y41481D01*
Y41514D01*
X29648Y41553D01*
X29654Y41598D01*
X29659Y41653D01*
X29671Y41714D01*
X29682Y41775D01*
X29720Y41919D01*
X29776Y42064D01*
X29809Y42136D01*
X29848Y42208D01*
X29898Y42275D01*
X29954Y42336D01*
X29959Y42341D01*
X29965Y42352D01*
X29987Y42364D01*
X30009Y42386D01*
X30037Y42413D01*
X30076Y42441D01*
X30114Y42469D01*
X30164Y42502D01*
X30270Y42558D01*
X30403Y42613D01*
X30470Y42635D01*
X30547Y42647D01*
X30625Y42658D01*
X30708Y42663D01*
X30747D01*
X30792Y42658D01*
X30853Y42652D01*
X30919Y42641D01*
X30997Y42619D01*
X31080Y42597D01*
X31163Y42563D01*
X31174Y42558D01*
X31202Y42547D01*
X31247Y42524D01*
X31308Y42491D01*
X31374Y42447D01*
X31458Y42391D01*
X31541Y42325D01*
X31635Y42247D01*
X31646Y42236D01*
X31680Y42208D01*
X31707Y42180D01*
X31735Y42153D01*
X31768Y42119D01*
X31813Y42075D01*
X31857Y42031D01*
X31907Y41975D01*
X31963Y41919D01*
X32024Y41853D01*
X32085Y41781D01*
X32157Y41703D01*
X32229Y41614D01*
X32307Y41526D01*
X32312Y41520D01*
X32323Y41509D01*
X32340Y41487D01*
X32362Y41459D01*
X32395Y41425D01*
X32429Y41387D01*
X32501Y41298D01*
X32584Y41204D01*
X32667Y41115D01*
X32740Y41037D01*
X32767Y41004D01*
X32795Y40976D01*
X32801Y40970D01*
X32817Y40954D01*
X32840Y40932D01*
X32873Y40904D01*
X32912Y40876D01*
X32950Y40843D01*
X33045Y40776D01*
Y42669D01*
X33500D01*
Y40121D01*
D02*
G37*
G36*
X32579Y45155D02*
X33500D01*
Y44683D01*
X32579D01*
Y43013D01*
X32146D01*
X29659Y44772D01*
Y45155D01*
X32146D01*
Y45677D01*
X32579D01*
Y45155D01*
D02*
G37*
G36*
X14497Y48862D02*
X14619D01*
X14753Y48851D01*
X15031Y48829D01*
X15308Y48796D01*
X15575Y48751D01*
X15697Y48729D01*
X15797Y48696D01*
X15819Y48684D01*
X15886Y48662D01*
X15975Y48607D01*
X16097Y48540D01*
X16230Y48440D01*
X16375Y48307D01*
X16530Y48140D01*
X16675Y47940D01*
Y47929D01*
X16686Y47918D01*
X16708Y47885D01*
X16730Y47840D01*
X16764Y47785D01*
X16797Y47718D01*
X16864Y47540D01*
X16930Y47340D01*
X16997Y47096D01*
X17041Y46818D01*
X17053Y46507D01*
Y46496D01*
Y46463D01*
Y46418D01*
Y46363D01*
X17041Y46285D01*
X17030Y46196D01*
X17008Y45996D01*
X16975Y45763D01*
X16919Y45518D01*
X16841Y45274D01*
X16741Y45040D01*
Y45029D01*
X16730Y45018D01*
X16686Y44952D01*
X16608Y44851D01*
X16508Y44729D01*
X16386Y44596D01*
X16230Y44474D01*
X16053Y44363D01*
X15853Y44274D01*
X15842D01*
X15831Y44263D01*
X15786D01*
X15742Y44252D01*
X15686Y44229D01*
X15608Y44218D01*
X15519Y44207D01*
X15419Y44185D01*
X15308Y44174D01*
X15175Y44152D01*
X15042Y44140D01*
X14886Y44129D01*
X14719Y44118D01*
X14531Y44107D01*
X14342Y44096D01*
X11575D01*
X11387Y44107D01*
X11186D01*
X10975Y44118D01*
X10775Y44129D01*
X10609Y44152D01*
X10587D01*
X10531Y44163D01*
X10453Y44185D01*
X10353Y44218D01*
X10220Y44263D01*
X10087Y44318D01*
X9942Y44396D01*
X9798Y44485D01*
X9776Y44496D01*
X9731Y44541D01*
X9664Y44607D01*
X9576Y44696D01*
X9476Y44807D01*
X9376Y44940D01*
X9276Y45096D01*
X9187Y45274D01*
Y45285D01*
X9176Y45296D01*
X9153Y45363D01*
X9109Y45474D01*
X9065Y45618D01*
X9031Y45785D01*
X8987Y45985D01*
X8964Y46207D01*
X8953Y46451D01*
Y46463D01*
Y46496D01*
Y46540D01*
Y46596D01*
X8964Y46674D01*
X8976Y46762D01*
X8998Y46974D01*
X9042Y47196D01*
X9098Y47440D01*
X9187Y47685D01*
X9309Y47918D01*
Y47929D01*
X9320Y47940D01*
X9376Y48018D01*
X9442Y48118D01*
X9542Y48240D01*
X9676Y48362D01*
X9820Y48496D01*
X9987Y48596D01*
X10176Y48684D01*
X10187D01*
X10198Y48696D01*
X10231Y48707D01*
X10276Y48718D01*
X10331Y48729D01*
X10398Y48740D01*
X10475Y48762D01*
X10564Y48785D01*
X10676Y48796D01*
X10787Y48818D01*
X10920Y48829D01*
X11064Y48840D01*
X11220Y48851D01*
X11398Y48862D01*
X11575Y48873D01*
X12509D01*
Y46851D01*
X10964D01*
X10842Y46840D01*
X10720D01*
X10598Y46829D01*
X10498Y46807D01*
X10420Y46785D01*
X10409D01*
X10398Y46774D01*
X10342Y46729D01*
X10309Y46685D01*
X10287Y46640D01*
X10276Y46574D01*
X10264Y46496D01*
Y46485D01*
Y46463D01*
X10276Y46418D01*
X10287Y46363D01*
X10309Y46318D01*
X10342Y46262D01*
X10387Y46218D01*
X10453Y46185D01*
X10464D01*
X10487Y46174D01*
X10542Y46163D01*
X10620Y46151D01*
X10720Y46140D01*
X10853Y46129D01*
X11020Y46118D01*
X15020D01*
X15131Y46129D01*
X15264D01*
X15386Y46151D01*
X15486Y46163D01*
X15575Y46185D01*
X15586D01*
X15597Y46196D01*
X15653Y46251D01*
X15686Y46285D01*
X15719Y46340D01*
X15731Y46407D01*
X15742Y46485D01*
Y46496D01*
Y46518D01*
X15731Y46562D01*
X15719Y46607D01*
X15697Y46651D01*
X15675Y46696D01*
X15631Y46740D01*
X15575Y46774D01*
X15564D01*
X15542Y46785D01*
X15486Y46796D01*
X15408Y46818D01*
X15297Y46829D01*
X15153Y46840D01*
X14975Y46851D01*
X13775D01*
Y48873D01*
X14375D01*
X14497Y48862D01*
D02*
G37*
G36*
X-59497Y144541D02*
X-59139D01*
Y144361D01*
X-58780D01*
Y144182D01*
X-58600D01*
Y143823D01*
X-58420D01*
Y143285D01*
X-58241D01*
Y138797D01*
X-59318D01*
Y142926D01*
X-59497D01*
Y143285D01*
X-60754D01*
Y142926D01*
X-60933D01*
Y139874D01*
X-61113D01*
Y139336D01*
X-61292D01*
Y139156D01*
X-61472D01*
Y138977D01*
X-61651D01*
Y138797D01*
X-62010D01*
Y138618D01*
X-63446D01*
Y138797D01*
X-63805D01*
Y138977D01*
X-64164D01*
Y139156D01*
X-64344D01*
Y139515D01*
X-64523D01*
Y140054D01*
X-64703D01*
Y144361D01*
X-63626D01*
Y140413D01*
X-63446D01*
Y140233D01*
X-63267D01*
Y140054D01*
X-62908D01*
Y139874D01*
X-62549D01*
Y140054D01*
X-62190D01*
Y140233D01*
X-62010D01*
Y143285D01*
X-61831D01*
Y144003D01*
X-61651D01*
Y144182D01*
X-61472D01*
Y144361D01*
X-61292D01*
Y144541D01*
X-60933D01*
Y144720D01*
X-59497D01*
Y144541D01*
D02*
G37*
G36*
X-59139Y130541D02*
X-58959D01*
Y130361D01*
X-58600D01*
Y130002D01*
X-58420D01*
Y129464D01*
X-58241D01*
Y125156D01*
X-64703D01*
Y129285D01*
X-64523D01*
Y130002D01*
X-64344D01*
Y130182D01*
X-64164D01*
Y130361D01*
X-63985D01*
Y130541D01*
X-63626D01*
Y130720D01*
X-62369D01*
Y130541D01*
X-62010D01*
Y130361D01*
X-61831D01*
Y130182D01*
X-61651D01*
Y129823D01*
X-61292D01*
Y130182D01*
X-61113D01*
Y130361D01*
X-60933D01*
Y130541D01*
X-60754D01*
Y130720D01*
X-59139D01*
Y130541D01*
D02*
G37*
G36*
X-68292Y144720D02*
X-67933D01*
Y144541D01*
X-67574D01*
Y144361D01*
X-67395D01*
Y144182D01*
X-67215D01*
Y143823D01*
X-67036D01*
Y143105D01*
X-66856D01*
Y142746D01*
X-67036D01*
Y142028D01*
X-67215D01*
Y141669D01*
X-67395D01*
Y141490D01*
X-67574D01*
Y141310D01*
X-67754D01*
Y141131D01*
X-68113D01*
Y140951D01*
X-69549D01*
Y141131D01*
X-69908D01*
Y141310D01*
X-70267D01*
Y141490D01*
X-70446D01*
Y141849D01*
X-70626D01*
Y142208D01*
X-70805D01*
Y143644D01*
X-70626D01*
Y144003D01*
X-70446D01*
Y144182D01*
X-70267D01*
Y144361D01*
X-70087D01*
Y144541D01*
X-69908D01*
Y144720D01*
X-69369D01*
Y144900D01*
X-68292D01*
Y144720D01*
D02*
G37*
G36*
X-59497Y122644D02*
X-58959D01*
Y122464D01*
X-58780D01*
Y122285D01*
X-58420D01*
Y121926D01*
X-58241D01*
Y121746D01*
X-58061D01*
Y121208D01*
X-57882D01*
Y120669D01*
X-58061D01*
Y120131D01*
X-58241D01*
Y119772D01*
X-58420D01*
Y119592D01*
X-58600D01*
Y119413D01*
X-58780D01*
Y119233D01*
X-59139D01*
Y119054D01*
X-60574D01*
Y119233D01*
X-60933D01*
Y119413D01*
X-61113D01*
Y119592D01*
X-61292D01*
Y119772D01*
X-61472D01*
Y120131D01*
X-61651D01*
Y120669D01*
X-64882D01*
Y112951D01*
X-61651D01*
Y113310D01*
X-61472D01*
Y113669D01*
X-61292D01*
Y113849D01*
X-61113D01*
Y114028D01*
X-60933D01*
Y114208D01*
X-60754D01*
Y114387D01*
X-60395D01*
Y114567D01*
X-59318D01*
Y114387D01*
X-58959D01*
Y114208D01*
X-58600D01*
Y114028D01*
X-58420D01*
Y113849D01*
X-58241D01*
Y113490D01*
X-58061D01*
Y112951D01*
X-57882D01*
Y112413D01*
X-58061D01*
Y111874D01*
X-58241D01*
Y111515D01*
X-58420D01*
Y111336D01*
X-58600D01*
Y111156D01*
X-58959D01*
Y110977D01*
X-59318D01*
Y110797D01*
X-60395D01*
Y110977D01*
X-60754D01*
Y111156D01*
X-61113D01*
Y111336D01*
X-61292D01*
Y111695D01*
X-61472D01*
Y112054D01*
X-61651D01*
Y112413D01*
X-64882D01*
Y104695D01*
X-61651D01*
Y105054D01*
X-61472D01*
Y105413D01*
X-61292D01*
Y105772D01*
X-61113D01*
Y105951D01*
X-60754D01*
Y106131D01*
X-60395D01*
Y106310D01*
X-59318D01*
Y106131D01*
X-58780D01*
Y105951D01*
X-58600D01*
Y105772D01*
X-58420D01*
Y105592D01*
X-58241D01*
Y105233D01*
X-58061D01*
Y104695D01*
X-57882D01*
Y104156D01*
X-58061D01*
Y103618D01*
X-58241D01*
Y103259D01*
X-58420D01*
Y103079D01*
X-58600D01*
Y102900D01*
X-58959D01*
Y102720D01*
X-59318D01*
Y102541D01*
X-60215D01*
Y102720D01*
X-60754D01*
Y102900D01*
X-60933D01*
Y103079D01*
X-61113D01*
Y103259D01*
X-61292D01*
Y103438D01*
X-61472D01*
Y103797D01*
X-61651D01*
Y104156D01*
X-65421D01*
Y108285D01*
X-68651D01*
Y107926D01*
X-68831D01*
Y107567D01*
X-69010D01*
Y107387D01*
X-69190D01*
Y107208D01*
X-69369D01*
Y107028D01*
X-69549D01*
Y106849D01*
X-69908D01*
Y106669D01*
X-70985D01*
Y106849D01*
X-71344D01*
Y107028D01*
X-71703D01*
Y107208D01*
X-71882D01*
Y107387D01*
X-72062D01*
Y107746D01*
X-72241D01*
Y108285D01*
X-72421D01*
Y108823D01*
X-72241D01*
Y109362D01*
X-72062D01*
Y109721D01*
X-71882D01*
Y109900D01*
X-71703D01*
Y110080D01*
X-71344D01*
Y110259D01*
X-70985D01*
Y110438D01*
X-69908D01*
Y110259D01*
X-69549D01*
Y110080D01*
X-69369D01*
Y109900D01*
X-69190D01*
Y109721D01*
X-69010D01*
Y109541D01*
X-68831D01*
Y109182D01*
X-68651D01*
Y108823D01*
X-65421D01*
Y116541D01*
X-68651D01*
Y116182D01*
X-68831D01*
Y115823D01*
X-69010D01*
Y115464D01*
X-69190D01*
Y115285D01*
X-69549D01*
Y115105D01*
X-69908D01*
Y114926D01*
X-71164D01*
Y115105D01*
X-71523D01*
Y115285D01*
X-71703D01*
Y115464D01*
X-71882D01*
Y115644D01*
X-72062D01*
Y116003D01*
X-72241D01*
Y116361D01*
X-72421D01*
Y117079D01*
X-72241D01*
Y117618D01*
X-72062D01*
Y117977D01*
X-71882D01*
Y118156D01*
X-71703D01*
Y118336D01*
X-71344D01*
Y118515D01*
X-70805D01*
Y118695D01*
X-70087D01*
Y118515D01*
X-69549D01*
Y118336D01*
X-69369D01*
Y118156D01*
X-69190D01*
Y117977D01*
X-69010D01*
Y117797D01*
X-68831D01*
Y117438D01*
X-68651D01*
Y117079D01*
X-65421D01*
Y121208D01*
X-61651D01*
Y121567D01*
X-61472D01*
Y121926D01*
X-61292D01*
Y122105D01*
X-61113D01*
Y122285D01*
X-60933D01*
Y122464D01*
X-60574D01*
Y122644D01*
X-60215D01*
Y122823D01*
X-59497D01*
Y122644D01*
D02*
G37*
G36*
X-67036Y129464D02*
X-69908D01*
Y129105D01*
X-70087D01*
Y128387D01*
X-69908D01*
Y128208D01*
X-67036D01*
Y127310D01*
X-69908D01*
Y126054D01*
X-67036D01*
Y125156D01*
X-70805D01*
Y129285D01*
X-70626D01*
Y130002D01*
X-70446D01*
Y130182D01*
X-70267D01*
Y130361D01*
X-69549D01*
Y130541D01*
X-67036D01*
Y129464D01*
D02*
G37*
G36*
X-59677Y137362D02*
X-59139D01*
Y137182D01*
X-58959D01*
Y137003D01*
X-58780D01*
Y136823D01*
X-58600D01*
Y136464D01*
X-58420D01*
Y136105D01*
X-58241D01*
Y133413D01*
X-58420D01*
Y133054D01*
X-58600D01*
Y132695D01*
X-58780D01*
Y132515D01*
X-58959D01*
Y132336D01*
X-59139D01*
Y132156D01*
X-59677D01*
Y131977D01*
X-64703D01*
Y133233D01*
X-60036D01*
Y133413D01*
X-59497D01*
Y133592D01*
X-59318D01*
Y133951D01*
X-59139D01*
Y135567D01*
X-59318D01*
Y135926D01*
X-59677D01*
Y136105D01*
X-60036D01*
Y136285D01*
X-64703D01*
Y137541D01*
X-59677D01*
Y137362D01*
D02*
G37*
G36*
X-70626Y137003D02*
X-70446D01*
Y136823D01*
X-70267D01*
Y136644D01*
X-70087D01*
Y136464D01*
X-69908D01*
Y136285D01*
X-69728D01*
Y136105D01*
X-69549D01*
Y135926D01*
X-69369D01*
Y135746D01*
X-69190D01*
Y135567D01*
X-68651D01*
Y135746D01*
X-68472D01*
Y135926D01*
X-68292D01*
Y136105D01*
X-68113D01*
Y136285D01*
X-67933D01*
Y136464D01*
X-67754D01*
Y136644D01*
X-67395D01*
Y136823D01*
X-67215D01*
Y137003D01*
X-67036D01*
Y135926D01*
X-67215D01*
Y135746D01*
X-67395D01*
Y135567D01*
X-67574D01*
Y135387D01*
X-67754D01*
Y135208D01*
X-68113D01*
Y135028D01*
X-68292D01*
Y134849D01*
X-68472D01*
Y134669D01*
X-68651D01*
Y134490D01*
X-68831D01*
Y134310D01*
X-67036D01*
Y133413D01*
X-72600D01*
Y134310D01*
X-69010D01*
Y134669D01*
X-69369D01*
Y134849D01*
X-69549D01*
Y135028D01*
X-69728D01*
Y135208D01*
X-69908D01*
Y135387D01*
X-70087D01*
Y135567D01*
X-70267D01*
Y135746D01*
X-70446D01*
Y135926D01*
X-70626D01*
Y136105D01*
X-70805D01*
Y137182D01*
X-70626D01*
Y137003D01*
D02*
G37*
G36*
X-67036Y131438D02*
X-70805D01*
Y132336D01*
X-67036D01*
Y131438D01*
D02*
G37*
G36*
X-71703D02*
X-72600D01*
Y132336D01*
X-71703D01*
Y131438D01*
D02*
G37*
G36*
X-69190Y139515D02*
X-70087D01*
Y138618D01*
X-67036D01*
Y137721D01*
X-70805D01*
Y139874D01*
X-70626D01*
Y140233D01*
X-70446D01*
Y140413D01*
X-69190D01*
Y139515D01*
D02*
G37*
G36*
X-26096Y48787D02*
X-26490D01*
Y50362D01*
X-26096D01*
Y48787D01*
D02*
G37*
G36*
X16886Y52451D02*
X13553Y51617D01*
X16886D01*
Y49595D01*
X9109D01*
Y51617D01*
X12131D01*
X9109Y52529D01*
Y54417D01*
X12631Y53262D01*
X16886Y54528D01*
Y52451D01*
D02*
G37*
G36*
X-12319Y48394D02*
X-13500D01*
X-12319Y47213D01*
X-14681Y47213D01*
X-13500Y48394D01*
X-14681D01*
Y48787D01*
X-12319D01*
Y48394D01*
D02*
G37*
G36*
X26605Y54062D02*
X23272Y53228D01*
X26605D01*
Y51206D01*
X18828D01*
Y53228D01*
X21850D01*
X18828Y54140D01*
Y56028D01*
X22350Y54873D01*
X26605Y56139D01*
Y54062D01*
D02*
G37*
G36*
X-22159Y48394D02*
X-23340D01*
X-22159Y47213D01*
X-24521Y47213D01*
X-23340Y48394D01*
X-24521D01*
Y48787D01*
X-22159D01*
Y48394D01*
D02*
G37*
G36*
X62441Y156500D02*
X59941Y154000D01*
Y159000D01*
X62441Y156500D01*
D02*
G37*
G36*
X-10350Y48787D02*
X-10744D01*
Y50362D01*
X-10350D01*
Y48787D01*
D02*
G37*
G36*
X24216Y50473D02*
X24339D01*
X24472Y50462D01*
X24750Y50440D01*
X25027Y50406D01*
X25294Y50362D01*
X25416Y50340D01*
X25516Y50306D01*
X25538Y50295D01*
X25605Y50273D01*
X25694Y50218D01*
X25816Y50151D01*
X25949Y50051D01*
X26094Y49918D01*
X26250Y49751D01*
X26394Y49551D01*
Y49540D01*
X26405Y49529D01*
X26427Y49496D01*
X26449Y49451D01*
X26483Y49395D01*
X26516Y49329D01*
X26583Y49151D01*
X26649Y48951D01*
X26716Y48707D01*
X26761Y48429D01*
X26772Y48118D01*
Y48107D01*
Y48073D01*
Y48029D01*
Y47973D01*
X26761Y47896D01*
X26749Y47807D01*
X26727Y47607D01*
X26694Y47374D01*
X26638Y47129D01*
X26561Y46885D01*
X26461Y46651D01*
Y46640D01*
X26449Y46629D01*
X26405Y46562D01*
X26327Y46463D01*
X26227Y46340D01*
X26105Y46207D01*
X25949Y46085D01*
X25772Y45974D01*
X25572Y45885D01*
X25561D01*
X25550Y45874D01*
X25505D01*
X25461Y45862D01*
X25405Y45840D01*
X25327Y45829D01*
X25238Y45818D01*
X25139Y45796D01*
X25027Y45785D01*
X24894Y45763D01*
X24761Y45751D01*
X24605Y45740D01*
X24439Y45729D01*
X24250Y45718D01*
X24061Y45707D01*
X21294D01*
X21105Y45718D01*
X20906D01*
X20695Y45729D01*
X20494Y45740D01*
X20328Y45763D01*
X20306D01*
X20250Y45774D01*
X20172Y45796D01*
X20072Y45829D01*
X19939Y45874D01*
X19806Y45929D01*
X19661Y46007D01*
X19517Y46096D01*
X19495Y46107D01*
X19450Y46151D01*
X19384Y46218D01*
X19295Y46307D01*
X19195Y46418D01*
X19095Y46551D01*
X18995Y46707D01*
X18906Y46885D01*
Y46896D01*
X18895Y46907D01*
X18872Y46974D01*
X18828Y47085D01*
X18784Y47229D01*
X18750Y47396D01*
X18706Y47596D01*
X18684Y47818D01*
X18673Y48062D01*
Y48073D01*
Y48107D01*
Y48151D01*
Y48207D01*
X18684Y48285D01*
X18695Y48373D01*
X18717Y48584D01*
X18761Y48807D01*
X18817Y49051D01*
X18906Y49295D01*
X19028Y49529D01*
Y49540D01*
X19039Y49551D01*
X19095Y49629D01*
X19161Y49729D01*
X19261Y49851D01*
X19395Y49973D01*
X19539Y50107D01*
X19706Y50207D01*
X19895Y50295D01*
X19906D01*
X19917Y50306D01*
X19950Y50318D01*
X19995Y50329D01*
X20050Y50340D01*
X20117Y50351D01*
X20195Y50373D01*
X20283Y50395D01*
X20394Y50406D01*
X20506Y50429D01*
X20639Y50440D01*
X20783Y50451D01*
X20939Y50462D01*
X21117Y50473D01*
X21294Y50484D01*
X22228D01*
Y48462D01*
X20683D01*
X20561Y48451D01*
X20439D01*
X20317Y48440D01*
X20217Y48418D01*
X20139Y48396D01*
X20128D01*
X20117Y48384D01*
X20061Y48340D01*
X20028Y48296D01*
X20006Y48251D01*
X19995Y48184D01*
X19983Y48107D01*
Y48096D01*
Y48073D01*
X19995Y48029D01*
X20006Y47973D01*
X20028Y47929D01*
X20061Y47873D01*
X20106Y47829D01*
X20172Y47796D01*
X20183D01*
X20206Y47785D01*
X20261Y47774D01*
X20339Y47762D01*
X20439Y47751D01*
X20572Y47740D01*
X20739Y47729D01*
X24738D01*
X24850Y47740D01*
X24983D01*
X25105Y47762D01*
X25205Y47774D01*
X25294Y47796D01*
X25305D01*
X25316Y47807D01*
X25372Y47862D01*
X25405Y47896D01*
X25438Y47951D01*
X25450Y48018D01*
X25461Y48096D01*
Y48107D01*
Y48129D01*
X25450Y48173D01*
X25438Y48218D01*
X25416Y48262D01*
X25394Y48307D01*
X25350Y48351D01*
X25294Y48384D01*
X25283D01*
X25261Y48396D01*
X25205Y48407D01*
X25127Y48429D01*
X25016Y48440D01*
X24872Y48451D01*
X24694Y48462D01*
X23494D01*
Y50484D01*
X24094D01*
X24216Y50473D01*
D02*
G37*
G36*
X-20190Y48787D02*
X-20584D01*
Y50362D01*
X-20190D01*
Y48787D01*
D02*
G37*
G36*
X-16256D02*
X-16650D01*
Y50362D01*
X-16256D01*
Y48787D01*
D02*
G37*
%LPC*%
G36*
X-68831Y144003D02*
X-69010D01*
Y143823D01*
X-69728D01*
Y143644D01*
X-69908D01*
Y143285D01*
X-70087D01*
Y142387D01*
X-69908D01*
Y142208D01*
X-69728D01*
Y142028D01*
X-69369D01*
Y141849D01*
X-68472D01*
Y142028D01*
X-68113D01*
Y142208D01*
X-67933D01*
Y142387D01*
X-67754D01*
Y143464D01*
X-67933D01*
Y143644D01*
X-68113D01*
Y143823D01*
X-68831D01*
Y144003D01*
D02*
G37*
G36*
X32285Y27295D02*
X32246D01*
X32218Y27290D01*
X32185D01*
X32146Y27284D01*
X32057Y27268D01*
X31957Y27245D01*
X31852Y27207D01*
X31752Y27151D01*
X31657Y27079D01*
X31646Y27068D01*
X31618Y27040D01*
X31585Y26996D01*
X31541Y26934D01*
X31496Y26857D01*
X31463Y26768D01*
X31435Y26662D01*
X31424Y26546D01*
Y26540D01*
Y26529D01*
Y26513D01*
X31430Y26491D01*
X31435Y26435D01*
X31452Y26357D01*
X31480Y26274D01*
X31524Y26180D01*
X31580Y26091D01*
X31657Y26002D01*
X31668Y25991D01*
X31696Y25969D01*
X31746Y25930D01*
X31818Y25891D01*
X31902Y25852D01*
X32007Y25813D01*
X32124Y25791D01*
X32257Y25780D01*
X32296D01*
X32346Y25786D01*
X32407Y25791D01*
X32479Y25802D01*
X32557Y25824D01*
X32640Y25847D01*
X32723Y25880D01*
X32734Y25886D01*
X32762Y25902D01*
X32801Y25924D01*
X32851Y25958D01*
X32901Y25997D01*
X32962Y26046D01*
X33012Y26102D01*
X33062Y26169D01*
X33067Y26180D01*
X33078Y26202D01*
X33100Y26241D01*
X33117Y26291D01*
X33139Y26346D01*
X33162Y26413D01*
X33173Y26485D01*
X33178Y26563D01*
Y26568D01*
Y26574D01*
Y26590D01*
X33173Y26613D01*
X33167Y26668D01*
X33150Y26740D01*
X33117Y26818D01*
X33078Y26907D01*
X33017Y26996D01*
X32984Y27040D01*
X32939Y27079D01*
X32934D01*
X32928Y27090D01*
X32895Y27112D01*
X32840Y27145D01*
X32767Y27190D01*
X32673Y27229D01*
X32562Y27262D01*
X32434Y27284D01*
X32285Y27295D01*
D02*
G37*
G36*
X-59856Y129464D02*
X-60395D01*
Y129285D01*
X-60754D01*
Y129105D01*
X-60933D01*
Y126413D01*
X-59318D01*
Y129105D01*
X-59497D01*
Y129285D01*
X-59856D01*
Y129464D01*
D02*
G37*
G36*
X-62728D02*
X-62908D01*
Y129285D01*
X-63446D01*
Y128926D01*
X-63626D01*
Y126413D01*
X-62010D01*
Y128926D01*
X-62190D01*
Y129285D01*
X-62728D01*
Y129464D01*
D02*
G37*
G36*
X11864Y23187D02*
X11020D01*
X10953Y23176D01*
X10875D01*
X10698Y23132D01*
X10620Y23098D01*
X10564Y23054D01*
X10553Y23043D01*
X10542Y23031D01*
X10520Y22998D01*
X10498Y22943D01*
X10475Y22876D01*
X10464Y22787D01*
X10442Y22676D01*
Y22543D01*
X12420D01*
Y22554D01*
Y22587D01*
Y22632D01*
Y22687D01*
Y22698D01*
Y22731D01*
X12409Y22776D01*
X12398Y22843D01*
X12364Y22965D01*
X12331Y23031D01*
X12286Y23076D01*
X12275D01*
X12253Y23098D01*
X12220Y23109D01*
X12164Y23132D01*
X12087Y23154D01*
X11987Y23165D01*
X11864Y23187D01*
D02*
G37*
G36*
X15242Y13188D02*
X12009D01*
X11931Y13177D01*
X11775Y13166D01*
X11709Y13144D01*
X11653Y13121D01*
X11642D01*
X11631Y13110D01*
X11586Y13077D01*
X11553Y12999D01*
X11531Y12955D01*
Y12888D01*
Y12877D01*
Y12866D01*
X11542Y12799D01*
X11575Y12721D01*
X11642Y12666D01*
X11664Y12655D01*
X11698Y12644D01*
X11742D01*
X11809Y12632D01*
X11886Y12621D01*
X11998Y12610D01*
X15375D01*
X15453Y12621D01*
X15619Y12632D01*
X15697Y12644D01*
X15753Y12666D01*
X15775Y12677D01*
X15808Y12710D01*
X15842Y12777D01*
X15864Y12877D01*
Y12888D01*
Y12910D01*
X15842Y12977D01*
X15808Y13055D01*
X15775Y13099D01*
X15731Y13121D01*
X15719D01*
X15697Y13133D01*
X15664Y13144D01*
X15597Y13155D01*
X15508Y13166D01*
X15397Y13177D01*
X15242Y13188D01*
D02*
G37*
G36*
X31780Y39228D02*
X31519D01*
X31452Y39222D01*
X31380D01*
X31291Y39217D01*
X31197Y39211D01*
X31091Y39200D01*
X30880Y39172D01*
X30775Y39156D01*
X30675Y39133D01*
X30581Y39111D01*
X30492Y39078D01*
X30414Y39045D01*
X30348Y39006D01*
X30342D01*
X30336Y38995D01*
X30320Y38984D01*
X30298Y38967D01*
X30248Y38917D01*
X30187Y38856D01*
X30131Y38773D01*
X30081Y38678D01*
X30059Y38628D01*
X30042Y38573D01*
X30037Y38512D01*
X30031Y38451D01*
Y38445D01*
Y38434D01*
Y38418D01*
X30037Y38395D01*
X30048Y38334D01*
X30065Y38262D01*
X30098Y38179D01*
X30148Y38090D01*
X30181Y38046D01*
X30214Y38001D01*
X30259Y37962D01*
X30309Y37923D01*
X30314D01*
X30325Y37912D01*
X30348Y37901D01*
X30375Y37885D01*
X30420Y37868D01*
X30470Y37846D01*
X30531Y37829D01*
X30603Y37807D01*
X30686Y37785D01*
X30781Y37762D01*
X30886Y37740D01*
X31003Y37724D01*
X31136Y37707D01*
X31280Y37696D01*
X31435Y37690D01*
X31607Y37685D01*
X31696D01*
X31763Y37690D01*
X31835D01*
X31924Y37696D01*
X32018Y37701D01*
X32118Y37713D01*
X32335Y37740D01*
X32440Y37757D01*
X32540Y37779D01*
X32634Y37801D01*
X32723Y37835D01*
X32801Y37868D01*
X32867Y37907D01*
X32873D01*
X32878Y37918D01*
X32917Y37946D01*
X32967Y37996D01*
X33023Y38057D01*
X33078Y38140D01*
X33128Y38234D01*
X33167Y38340D01*
X33173Y38395D01*
X33178Y38456D01*
Y38462D01*
Y38473D01*
Y38490D01*
X33173Y38512D01*
X33162Y38567D01*
X33139Y38645D01*
X33100Y38728D01*
X33045Y38823D01*
X33012Y38867D01*
X32967Y38911D01*
X32923Y38956D01*
X32867Y39000D01*
X32862D01*
X32851Y39011D01*
X32834Y39022D01*
X32806Y39033D01*
X32767Y39056D01*
X32717Y39072D01*
X32662Y39094D01*
X32595Y39117D01*
X32512Y39133D01*
X32423Y39156D01*
X32318Y39178D01*
X32207Y39195D01*
X32074Y39206D01*
X31935Y39217D01*
X31780Y39228D01*
D02*
G37*
G36*
X32146Y44683D02*
X30425D01*
X32146Y43474D01*
Y44683D01*
D02*
G37*
G36*
X23828Y11921D02*
X23816D01*
X23772Y11910D01*
X23694D01*
X23594Y11899D01*
X23461Y11888D01*
X23305Y11866D01*
X23128Y11855D01*
X22928Y11833D01*
X22705Y11810D01*
X22450Y11788D01*
X22183Y11755D01*
X21894Y11733D01*
X21583Y11710D01*
X21261Y11677D01*
X20917Y11655D01*
X20561Y11621D01*
X20583D01*
X20617Y11610D01*
X20661D01*
X20772Y11588D01*
X20928Y11577D01*
X21117Y11555D01*
X21328Y11522D01*
X21561Y11488D01*
X21805Y11466D01*
X22072Y11433D01*
X22350Y11399D01*
X22883Y11333D01*
X23150Y11299D01*
X23394Y11277D01*
X23628Y11255D01*
X23828Y11233D01*
Y11921D01*
D02*
G37*
%LPD*%
D24*
X63441Y161400D02*
X73441D01*
Y101500D02*
Y161400D01*
X63441Y101500D02*
X73441D01*
X63441D02*
Y161400D01*
D36*
X32370Y224000D02*
G03*
X37370Y224000I2500J0D01*
G01*
X-2036Y98441D02*
G03*
X1901Y98441I1969J0D01*
G01*
X-9378Y246843D02*
Y249205D01*
X-17252Y246843D02*
X-9378D01*
X-17252D02*
Y249205D01*
X-19220Y246843D02*
Y249205D01*
X-27095Y246843D02*
X-19220D01*
X-27095D02*
Y249205D01*
X-29063Y246843D02*
Y249205D01*
X-36937Y246843D02*
X-29063D01*
X-36937D02*
Y249205D01*
X-38906Y224795D02*
Y249205D01*
Y224795D02*
X-7095D01*
X-38906Y249205D02*
X-7095D01*
Y224795D02*
Y249205D01*
X26870Y223000D02*
Y224000D01*
X32370D01*
X37370D02*
X43370D01*
Y223000D02*
Y224000D01*
Y203000D02*
Y204500D01*
X26870Y203000D02*
Y204500D01*
Y203000D02*
X43370D01*
X-9517Y58284D02*
Y98441D01*
X9381Y58284D02*
Y98441D01*
X-9517Y58284D02*
X9381D01*
X1901Y98441D02*
X9381D01*
X-9517D02*
X-2036D01*
X-26490Y43669D02*
X-26096D01*
X-26490D02*
Y51937D01*
X-26096D01*
X-20584D02*
X-20190D01*
Y43669D02*
Y51937D01*
X-20584Y43669D02*
X-20190D01*
X-10744D02*
X-10350D01*
Y51937D01*
X-10744D02*
X-10350D01*
X-16650D02*
X-16256D01*
X-16650Y43669D02*
Y51937D01*
Y43669D02*
X-16256D01*
D37*
X54000Y240000D02*
G03*
X54000Y240000I-5000J0D01*
G01*
X-62945Y191760D02*
G03*
X-62945Y191760I-5000J0D01*
G01*
X-55500Y243500D02*
G03*
X-55500Y243500I-5000J0D01*
G01*
X-27283Y106299D02*
G03*
X-27283Y106299I-5000J0D01*
G01*
X25866Y108661D02*
G03*
X25866Y108661I-5000J0D01*
G01*
X37500Y120000D02*
G03*
X37500Y120000I-5000J0D01*
G01*
Y135000D02*
G03*
X37500Y135000I-5000J0D01*
G01*
X-10000Y197458D02*
G03*
X-10000Y197458I-5000J0D01*
G01*
X5000Y14000D02*
G03*
X5000Y14000I-5000J0D01*
G01*
X-12873Y119675D02*
X-1873D01*
X-12873D02*
Y125675D01*
X-1873Y119675D02*
Y125675D01*
X-12873D02*
X-1873D01*
X2340Y103842D02*
Y114842D01*
X8340D01*
X2340Y103842D02*
X8340D01*
Y114842D01*
X-21882Y167882D02*
Y178118D01*
X-21488Y167882D02*
Y177724D01*
X-21094Y167882D02*
Y178118D01*
X-66618Y167905D02*
X-56382D01*
X-66224Y167512D02*
X-56382D01*
X-66618Y167118D02*
X-56382D01*
X-5406Y153582D02*
Y163818D01*
X-5012Y153976D02*
Y163818D01*
X-4618Y153582D02*
Y163818D01*
X-56023Y202587D02*
X-48936D01*
X-56023Y188413D02*
Y202587D01*
Y188413D02*
X-48936D01*
Y202587D01*
X-29000Y14500D02*
Y25500D01*
X-35000Y14500D02*
X-29000D01*
X-35000Y25500D02*
X-29000D01*
X-35000Y14500D02*
Y25500D01*
X-20340Y14500D02*
Y25500D01*
X-26340Y14500D02*
X-20340D01*
X-26340Y25500D02*
X-20340D01*
X-26340Y14500D02*
Y25500D01*
X-31506Y82345D02*
Y93345D01*
X-25506D01*
X-31506Y82345D02*
X-25506D01*
Y93345D01*
X-25304Y69500D02*
Y80500D01*
X-31304Y69500D02*
X-25304D01*
X-31304Y80500D02*
X-25304D01*
X-31304Y69500D02*
Y80500D01*
X21000Y68000D02*
Y79000D01*
X27000D01*
X21000Y68000D02*
X27000D01*
Y79000D01*
X47385Y139660D02*
X58385D01*
Y133660D02*
Y139660D01*
X47385Y133660D02*
Y139660D01*
Y133660D02*
X58385D01*
X13500Y117340D02*
X24500D01*
X13500D02*
Y123340D01*
X24500Y117340D02*
Y123340D01*
X13500D02*
X24500D01*
X13457Y141340D02*
X24457D01*
X13457D02*
Y147340D01*
X24457Y141340D02*
Y147340D01*
X13457D02*
X24457D01*
X29458Y228340D02*
X40457D01*
X29458D02*
Y234340D01*
X40457Y228340D02*
Y234340D01*
X29458D02*
X40457D01*
X5085Y205660D02*
X16085D01*
Y199660D02*
Y205660D01*
X5085Y199660D02*
Y205660D01*
Y199660D02*
X16085D01*
X5043Y244160D02*
X16043D01*
Y238160D02*
Y244160D01*
X5043Y238160D02*
Y244160D01*
Y238160D02*
X16043D01*
X29392Y244160D02*
X40393D01*
Y238160D02*
Y244160D01*
X29392Y238160D02*
Y244160D01*
Y238160D02*
X40393D01*
X63340Y208500D02*
Y219500D01*
X69340D01*
X63340Y208500D02*
X69340D01*
Y219500D01*
X63340Y222543D02*
Y233542D01*
X69340D01*
X63340Y222543D02*
X69340D01*
Y233542D01*
X-24988Y138350D02*
Y149350D01*
X-18988D01*
X-24988Y138350D02*
X-18988D01*
Y149350D01*
X-54309Y120676D02*
Y131676D01*
X-48309D01*
X-54309Y120676D02*
X-48309D01*
Y131676D01*
X-45309Y120633D02*
Y131633D01*
X-39309D01*
X-45309Y120633D02*
X-39309D01*
Y131633D01*
X-47160Y189042D02*
Y200043D01*
X-41160D01*
X-47160Y189042D02*
X-41160D01*
Y200043D01*
X47385Y143460D02*
X58385D01*
X47385D02*
Y149460D01*
X58385Y143460D02*
Y149460D01*
X47385D02*
X58385D01*
X47385Y152400D02*
X58385D01*
X47385D02*
Y158400D01*
X58385Y152400D02*
Y158400D01*
X47385D02*
X58385D01*
X-16340Y27957D02*
Y38958D01*
X-10340D01*
X-16340Y27957D02*
X-10340D01*
Y38958D01*
X-26340Y27957D02*
Y38958D01*
X-20340D01*
X-26340Y27957D02*
X-20340D01*
Y38958D01*
X4958Y218160D02*
X15958D01*
X4958D02*
Y224160D01*
X15958Y218160D02*
Y224160D01*
X4958D02*
X15958D01*
X5000Y208660D02*
X16000D01*
X5000D02*
Y214660D01*
X16000Y208660D02*
Y214660D01*
X5000D02*
X16000D01*
X21302Y192660D02*
X32302D01*
X21302D02*
Y198660D01*
X32302Y192660D02*
Y198660D01*
X21302D02*
X32302D01*
X37543Y192660D02*
X48542D01*
X37543D02*
Y198660D01*
X48542Y192660D02*
Y198660D01*
X37543D02*
X48542D01*
X4958Y234180D02*
X15958D01*
Y228180D02*
Y234180D01*
X4958Y228180D02*
Y234180D01*
Y228180D02*
X15958D01*
X37543Y183160D02*
X48542D01*
X37543D02*
Y189160D01*
X48542Y183160D02*
Y189160D01*
X37543D02*
X48542D01*
X21302Y183160D02*
X32302D01*
X21302D02*
Y189160D01*
X32302Y183160D02*
Y189160D01*
X21302D02*
X32302D01*
X37585Y173820D02*
X48585D01*
X37585D02*
Y179820D01*
X48585Y173820D02*
Y179820D01*
X37585D02*
X48585D01*
X21302Y173660D02*
X32302D01*
X21302D02*
Y179660D01*
X32302Y173660D02*
Y179660D01*
X21302D02*
X32302D01*
X54160Y208457D02*
Y219458D01*
X60160D01*
X54160Y208457D02*
X60160D01*
Y219458D01*
X54160Y222458D02*
Y233457D01*
X60160D01*
X54160Y222458D02*
X60160D01*
Y233457D01*
X21260Y164340D02*
X32260D01*
X21260D02*
Y170340D01*
X32260Y164340D02*
Y170340D01*
X21260D02*
X32260D01*
X-50852Y109431D02*
X-39852D01*
Y103431D02*
Y109431D01*
X-50852Y103431D02*
Y109431D01*
Y103431D02*
X-39852D01*
X-50607Y112250D02*
X-39607D01*
X-50607D02*
Y118251D01*
X-39607Y112250D02*
Y118251D01*
X-50607D02*
X-39607D01*
X-8524Y138245D02*
Y149245D01*
X-14524Y138245D02*
X-8524D01*
X-14524Y149245D02*
X-8524D01*
X-14524Y138245D02*
Y149245D01*
X-30000Y138350D02*
Y149350D01*
X-36000Y138350D02*
X-30000D01*
X-36000Y149350D02*
X-30000D01*
X-36000Y138350D02*
Y149350D01*
X-53804Y180660D02*
X-42804D01*
X-53804D02*
Y186660D01*
X-42804Y180660D02*
Y186660D01*
X-53804D02*
X-42804D01*
X-32160Y189042D02*
Y200043D01*
X-38160Y189042D02*
X-32160D01*
X-38160Y200043D02*
X-32160D01*
X-38160Y189042D02*
Y200043D01*
X-29340Y188958D02*
Y199958D01*
X-23340D01*
X-29340Y188958D02*
X-23340D01*
Y199958D01*
X-49660Y212042D02*
Y223042D01*
X-55660Y212042D02*
X-49660D01*
X-55660Y223042D02*
X-49660D01*
X-55660Y212042D02*
Y223042D01*
X-41160Y212042D02*
Y223042D01*
X-47160Y212042D02*
X-41160D01*
X-47160Y223042D02*
X-41160D01*
X-47160Y212042D02*
Y223042D01*
X-47340Y226458D02*
Y237457D01*
X-41340D01*
X-47340Y226458D02*
X-41340D01*
Y237457D01*
X-55840Y226458D02*
Y237457D01*
X-49840D01*
X-55840Y226458D02*
X-49840D01*
Y237457D01*
X-63797Y211958D02*
Y222957D01*
X-57797D01*
X-63797Y211958D02*
X-57797D01*
Y222957D01*
X-31521Y217160D02*
X-20520D01*
X-31521D02*
Y223160D01*
X-20520Y217160D02*
Y223160D01*
X-31521D02*
X-20520D01*
X2906Y185827D02*
X5906D01*
Y187326D01*
X5406Y187826D01*
X3406D01*
X2906Y187326D01*
Y185827D01*
Y190825D02*
X3406Y189825D01*
X4406Y188826D01*
X5406D01*
X5906Y189326D01*
Y190325D01*
X5406Y190825D01*
X4906D01*
X4406Y190325D01*
Y188826D01*
X-11417Y127559D02*
Y130558D01*
X-9918D01*
X-9418Y130058D01*
Y129059D01*
X-9918Y128559D01*
X-11417D01*
X-10418D02*
X-9418Y127559D01*
X-6419D02*
X-8418D01*
X-6419Y129558D01*
Y130058D01*
X-6919Y130558D01*
X-7919D01*
X-8418Y130058D01*
X-5419Y128059D02*
X-4919Y127559D01*
X-3920D01*
X-3420Y128059D01*
Y130058D01*
X-3920Y130558D01*
X-4919D01*
X-5419Y130058D01*
Y129558D01*
X-4919Y129059D01*
X-3420D01*
X-19677Y110086D02*
Y107087D01*
X-18178D01*
X-17678Y107586D01*
Y109586D01*
X-18178Y110086D01*
X-19677D01*
X-16678D02*
X-14679D01*
Y109586D01*
X-16678Y107586D01*
Y107087D01*
X10887Y107117D02*
X10387Y106618D01*
Y105618D01*
X10887Y105118D01*
X12886D01*
X13386Y105618D01*
Y106618D01*
X12886Y107117D01*
X13386Y110117D02*
Y108117D01*
X11387Y110117D01*
X10887D01*
X10387Y109617D01*
Y108617D01*
X10887Y108117D01*
Y111116D02*
X10387Y111616D01*
Y112616D01*
X10887Y113116D01*
X12886D01*
X13386Y112616D01*
Y111616D01*
X12886Y111116D01*
X10887D01*
X-15501Y228999D02*
X-16001Y229499D01*
X-17000D01*
X-17500Y228999D01*
Y227000D01*
X-17000Y226500D01*
X-16001D01*
X-15501Y227000D01*
X-14501Y226500D02*
Y229499D01*
X-12502Y226500D01*
Y229499D01*
X-11502Y226500D02*
X-10502D01*
X-11002D01*
Y229499D01*
X-11502Y228999D01*
X6000Y134999D02*
Y132500D01*
X6500Y132000D01*
X7500D01*
X7999Y132500D01*
Y134999D01*
X10998Y132000D02*
X8999D01*
X10998Y133999D01*
Y134499D01*
X10499Y134999D01*
X9499D01*
X8999Y134499D01*
X-4000Y6999D02*
X-2001D01*
X-3000D01*
Y4000D01*
X-1001D02*
Y6999D01*
X499D01*
X998Y6499D01*
Y5500D01*
X499Y5000D01*
X-1001D01*
X1998Y4500D02*
X2498Y4000D01*
X3498D01*
X3997Y4500D01*
Y6499D01*
X3498Y6999D01*
X2498D01*
X1998Y6499D01*
Y5999D01*
X2498Y5500D01*
X3997D01*
X-19000Y190499D02*
X-17001D01*
X-18000D01*
Y187500D01*
X-16001D02*
Y190499D01*
X-14501D01*
X-14002Y189999D01*
Y188999D01*
X-14501Y188500D01*
X-16001D01*
X-13002Y189999D02*
X-12502Y190499D01*
X-11502D01*
X-11003Y189999D01*
Y189499D01*
X-11502Y188999D01*
X-11003Y188500D01*
Y188000D01*
X-11502Y187500D01*
X-12502D01*
X-13002Y188000D01*
Y188500D01*
X-12502Y188999D01*
X-13002Y189499D01*
Y189999D01*
X-12502Y188999D02*
X-11502D01*
X29000Y144499D02*
X30999D01*
X30000D01*
Y141500D01*
X31999D02*
Y144499D01*
X33499D01*
X33998Y143999D01*
Y142999D01*
X33499Y142500D01*
X31999D01*
X34998Y144499D02*
X36997D01*
Y143999D01*
X34998Y142000D01*
Y141500D01*
X39370Y121047D02*
X41369D01*
X40370D01*
Y118048D01*
X42369D02*
Y121047D01*
X43869D01*
X44368Y120547D01*
Y119548D01*
X43869Y119048D01*
X42369D01*
X47368Y121047D02*
X46368Y120547D01*
X45368Y119548D01*
Y118548D01*
X45868Y118048D01*
X46868D01*
X47368Y118548D01*
Y119048D01*
X46868Y119548D01*
X45368D01*
X27953Y109692D02*
X29952D01*
X28952D01*
Y106693D01*
X30952D02*
Y109692D01*
X32451D01*
X32951Y109192D01*
Y108192D01*
X32451Y107693D01*
X30952D01*
X35950Y109692D02*
X33951D01*
Y108192D01*
X34951Y108692D01*
X35450D01*
X35950Y108192D01*
Y107193D01*
X35450Y106693D01*
X34451D01*
X33951Y107193D01*
X-36220Y115991D02*
X-34221D01*
X-35221D01*
Y112992D01*
X-33221D02*
Y115991D01*
X-31722D01*
X-31222Y115491D01*
Y114492D01*
X-31722Y113992D01*
X-33221D01*
X-28723Y112992D02*
Y115991D01*
X-30222Y114492D01*
X-28223D01*
X-69764Y239500D02*
Y241499D01*
Y240500D01*
X-66765D01*
Y242499D02*
X-69764D01*
Y243999D01*
X-69264Y244498D01*
X-68264D01*
X-67764Y243999D01*
Y242499D01*
X-69264Y245498D02*
X-69764Y245998D01*
Y246998D01*
X-69264Y247497D01*
X-68764D01*
X-68264Y246998D01*
Y246498D01*
Y246998D01*
X-67764Y247497D01*
X-67264D01*
X-66765Y246998D01*
Y245998D01*
X-67264Y245498D01*
X-72500Y201499D02*
X-70501D01*
X-71500D01*
Y198500D01*
X-69501D02*
Y201499D01*
X-68001D01*
X-67502Y200999D01*
Y199999D01*
X-68001Y199500D01*
X-69501D01*
X-64503Y198500D02*
X-66502D01*
X-64503Y200499D01*
Y200999D01*
X-65002Y201499D01*
X-66002D01*
X-66502Y200999D01*
X45500Y248999D02*
X47499D01*
X46500D01*
Y246000D01*
X48499D02*
Y248999D01*
X49999D01*
X50498Y248499D01*
Y247499D01*
X49999Y247000D01*
X48499D01*
X51498Y246000D02*
X52498D01*
X51998D01*
Y248999D01*
X51498Y248499D01*
X-23001Y203500D02*
Y205499D01*
X-23501Y205999D01*
X-24500D01*
X-25000Y205499D01*
Y203500D01*
X-24500Y203000D01*
X-23501D01*
X-24000Y204000D02*
X-23001Y203000D01*
X-23501D02*
X-23001Y203500D01*
X-20501Y203000D02*
Y205999D01*
X-22001Y204500D01*
X-20002D01*
X-15000Y158499D02*
X-16999D01*
X-17499Y158000D01*
Y157000D01*
X-16999Y156500D01*
X-15000D01*
X-14500Y157000D01*
Y158000D01*
X-15500Y157500D02*
X-14500Y158499D01*
Y158000D02*
X-15000Y158499D01*
X-14500Y161498D02*
Y159499D01*
X-16499Y161498D01*
X-16999D01*
X-17499Y160999D01*
Y159999D01*
X-16999Y159499D01*
X-69001Y220500D02*
Y222499D01*
X-69500Y222999D01*
X-70500D01*
X-71000Y222499D01*
Y220500D01*
X-70500Y220000D01*
X-69500D01*
X-70000Y221000D02*
X-69001Y220000D01*
X-69500D02*
X-69001Y220500D01*
X-68001Y222499D02*
X-67501Y222999D01*
X-66501D01*
X-66002Y222499D01*
Y221999D01*
X-66501Y221499D01*
X-67001D01*
X-66501D01*
X-66002Y221000D01*
Y220500D01*
X-66501Y220000D01*
X-67501D01*
X-68001Y220500D01*
X-45001Y167000D02*
Y168999D01*
X-45500Y169499D01*
X-46500D01*
X-47000Y168999D01*
Y167000D01*
X-46500Y166500D01*
X-45500D01*
X-46000Y167500D02*
X-45001Y166500D01*
X-45500D02*
X-45001Y167000D01*
X-44001Y166500D02*
X-43001D01*
X-43501D01*
Y169499D01*
X-44001Y168999D01*
X-16000Y213500D02*
X-18999D01*
Y215000D01*
X-18499Y215499D01*
X-17500D01*
X-17000Y215000D01*
Y213500D01*
Y214500D02*
X-16000Y215499D01*
Y218498D02*
Y216499D01*
X-17999Y218498D01*
X-18499D01*
X-18999Y217999D01*
Y216999D01*
X-18499Y216499D01*
Y219498D02*
X-18999Y219998D01*
Y220998D01*
X-18499Y221497D01*
X-17999D01*
X-17500Y220998D01*
X-17000Y221497D01*
X-16500D01*
X-16000Y220998D01*
Y219998D01*
X-16500Y219498D01*
X-17000D01*
X-17500Y219998D01*
X-17999Y219498D01*
X-18499D01*
X-17500Y219998D02*
Y220998D01*
X-66765Y207000D02*
Y209999D01*
X-65265D01*
X-64765Y209499D01*
Y208500D01*
X-65265Y208000D01*
X-66765D01*
X-65765D02*
X-64765Y207000D01*
X-61766D02*
X-63766D01*
X-61766Y208999D01*
Y209499D01*
X-62266Y209999D01*
X-63266D01*
X-63766Y209499D01*
X-60767Y209999D02*
X-58767D01*
Y209499D01*
X-60767Y207500D01*
Y207000D01*
X-50500Y239500D02*
X-53499D01*
Y241000D01*
X-52999Y241499D01*
X-51999D01*
X-51500Y241000D01*
Y239500D01*
Y240500D02*
X-50500Y241499D01*
Y244498D02*
Y242499D01*
X-52499Y244498D01*
X-52999D01*
X-53499Y243999D01*
Y242999D01*
X-52999Y242499D01*
X-53499Y247497D02*
X-52999Y246498D01*
X-51999Y245498D01*
X-51000D01*
X-50500Y245998D01*
Y246998D01*
X-51000Y247497D01*
X-51500D01*
X-51999Y246998D01*
Y245498D01*
X-42500Y239500D02*
X-45499D01*
Y241000D01*
X-44999Y241499D01*
X-43999D01*
X-43500Y241000D01*
Y239500D01*
Y240500D02*
X-42500Y241499D01*
Y244498D02*
Y242499D01*
X-44499Y244498D01*
X-44999D01*
X-45499Y243999D01*
Y242999D01*
X-44999Y242499D01*
X-45499Y247497D02*
Y245498D01*
X-43999D01*
X-44499Y246498D01*
Y246998D01*
X-43999Y247497D01*
X-43000D01*
X-42500Y246998D01*
Y245998D01*
X-43000Y245498D01*
X-47000Y207000D02*
Y209999D01*
X-45500D01*
X-45001Y209499D01*
Y208500D01*
X-45500Y208000D01*
X-47000D01*
X-46000D02*
X-45001Y207000D01*
X-42002D02*
X-44001D01*
X-42002Y208999D01*
Y209499D01*
X-42501Y209999D01*
X-43501D01*
X-44001Y209499D01*
X-39502Y207000D02*
Y209999D01*
X-41002Y208500D01*
X-39003D01*
X-57000Y207000D02*
Y209999D01*
X-55501D01*
X-55001Y209499D01*
Y208500D01*
X-55501Y208000D01*
X-57000D01*
X-56000D02*
X-55001Y207000D01*
X-52002D02*
X-54001D01*
X-52002Y208999D01*
Y209499D01*
X-52501Y209999D01*
X-53501D01*
X-54001Y209499D01*
X-51002D02*
X-50502Y209999D01*
X-49502D01*
X-49003Y209499D01*
Y208999D01*
X-49502Y208500D01*
X-50002D01*
X-49502D01*
X-49003Y208000D01*
Y207500D01*
X-49502Y207000D01*
X-50502D01*
X-51002Y207500D01*
X-24900Y179457D02*
X-27899D01*
Y180957D01*
X-27399Y181457D01*
X-26399D01*
X-25900Y180957D01*
Y179457D01*
Y180457D02*
X-24900Y181457D01*
Y184456D02*
Y182457D01*
X-26899Y184456D01*
X-27399D01*
X-27899Y183956D01*
Y182956D01*
X-27399Y182457D01*
X-24900Y187455D02*
Y185456D01*
X-26899Y187455D01*
X-27399D01*
X-27899Y186955D01*
Y185955D01*
X-27399Y185456D01*
X-32500Y179500D02*
X-35499D01*
Y181000D01*
X-34999Y181499D01*
X-33999D01*
X-33500Y181000D01*
Y179500D01*
Y180500D02*
X-32500Y181499D01*
Y184498D02*
Y182499D01*
X-34499Y184498D01*
X-34999D01*
X-35499Y183999D01*
Y182999D01*
X-34999Y182499D01*
X-32500Y185498D02*
Y186498D01*
Y185998D01*
X-35499D01*
X-34999Y185498D01*
X-52000Y176000D02*
Y178999D01*
X-50501D01*
X-50001Y178499D01*
Y177499D01*
X-50501Y177000D01*
X-52000D01*
X-51000D02*
X-50001Y176000D01*
X-47002D02*
X-49001D01*
X-47002Y177999D01*
Y178499D01*
X-47501Y178999D01*
X-48501D01*
X-49001Y178499D01*
X-46002D02*
X-45502Y178999D01*
X-44502D01*
X-44003Y178499D01*
Y176500D01*
X-44502Y176000D01*
X-45502D01*
X-46002Y176500D01*
Y178499D01*
X-37840Y140308D02*
X-40839D01*
Y141807D01*
X-40339Y142307D01*
X-39340D01*
X-38840Y141807D01*
Y140308D01*
Y141308D02*
X-37840Y142307D01*
Y143307D02*
Y144307D01*
Y143807D01*
X-40839D01*
X-40339Y143307D01*
X-38340Y145806D02*
X-37840Y146306D01*
Y147306D01*
X-38340Y147806D01*
X-40339D01*
X-40839Y147306D01*
Y146306D01*
X-40339Y145806D01*
X-39839D01*
X-39340Y146306D01*
Y147806D01*
X-3864Y139702D02*
X-6864D01*
Y141202D01*
X-6364Y141702D01*
X-5364D01*
X-4864Y141202D01*
Y139702D01*
Y140702D02*
X-3864Y141702D01*
Y142701D02*
Y143701D01*
Y143201D01*
X-6864D01*
X-6364Y142701D01*
Y145201D02*
X-6864Y145700D01*
Y146700D01*
X-6364Y147200D01*
X-5864D01*
X-5364Y146700D01*
X-4864Y147200D01*
X-4364D01*
X-3864Y146700D01*
Y145700D01*
X-4364Y145201D01*
X-4864D01*
X-5364Y145700D01*
X-5864Y145201D01*
X-6364D01*
X-5364Y145700D02*
Y146700D01*
X-52362Y112205D02*
X-55361D01*
Y113704D01*
X-54861Y114204D01*
X-53862D01*
X-53362Y113704D01*
Y112205D01*
Y113204D02*
X-52362Y114204D01*
Y115204D02*
Y116203D01*
Y115704D01*
X-55361D01*
X-54861Y115204D01*
X-55361Y117703D02*
Y119702D01*
X-54861D01*
X-52862Y117703D01*
X-52362D01*
X-48425Y98819D02*
Y101818D01*
X-46926D01*
X-46426Y101318D01*
Y100318D01*
X-46926Y99819D01*
X-48425D01*
X-47425D02*
X-46426Y98819D01*
X-45426D02*
X-44427D01*
X-44926D01*
Y101818D01*
X-45426Y101318D01*
X-40928Y101818D02*
X-41927Y101318D01*
X-42927Y100318D01*
Y99319D01*
X-42427Y98819D01*
X-41427D01*
X-40928Y99319D01*
Y99819D01*
X-41427Y100318D01*
X-42927D01*
X59500Y235500D02*
X56501D01*
Y237000D01*
X57001Y237499D01*
X58000D01*
X58500Y237000D01*
Y235500D01*
Y236500D02*
X59500Y237499D01*
Y238499D02*
Y239499D01*
Y238999D01*
X56501D01*
X57001Y238499D01*
X56501Y242998D02*
Y240998D01*
X58000D01*
X57501Y241998D01*
Y242498D01*
X58000Y242998D01*
X59000D01*
X59500Y242498D01*
Y241498D01*
X59000Y240998D01*
X58500Y199500D02*
X55501D01*
Y200999D01*
X56001Y201499D01*
X57000D01*
X57500Y200999D01*
Y199500D01*
Y200500D02*
X58500Y201499D01*
Y202499D02*
Y203499D01*
Y202999D01*
X55501D01*
X56001Y202499D01*
X58500Y206498D02*
X55501D01*
X57000Y204998D01*
Y206998D01*
X19291Y172441D02*
X16292D01*
Y173941D01*
X16792Y174440D01*
X17792D01*
X18292Y173941D01*
Y172441D01*
Y173441D02*
X19291Y174440D01*
Y175440D02*
Y176440D01*
Y175940D01*
X16292D01*
X16792Y175440D01*
Y177939D02*
X16292Y178439D01*
Y179439D01*
X16792Y179938D01*
X17292D01*
X17792Y179439D01*
Y178939D01*
Y179439D01*
X18292Y179938D01*
X18791D01*
X19291Y179439D01*
Y178439D01*
X18791Y177939D01*
X51000Y175500D02*
Y178499D01*
X52500D01*
X52999Y177999D01*
Y176999D01*
X52500Y176500D01*
X51000D01*
X52000D02*
X52999Y175500D01*
X53999D02*
X54999D01*
X54499D01*
Y178499D01*
X53999Y177999D01*
X58498Y175500D02*
X56498D01*
X58498Y177499D01*
Y177999D01*
X57998Y178499D01*
X56998D01*
X56498Y177999D01*
X19685Y183071D02*
X16686D01*
Y184570D01*
X17186Y185070D01*
X18185D01*
X18685Y184570D01*
Y183071D01*
Y184071D02*
X19685Y185070D01*
Y186070D02*
Y187070D01*
Y186570D01*
X16686D01*
X17186Y186070D01*
X19685Y188569D02*
Y189569D01*
Y189069D01*
X16686D01*
X17186Y188569D01*
X51000Y184500D02*
Y187499D01*
X52500D01*
X52999Y186999D01*
Y186000D01*
X52500Y185500D01*
X51000D01*
X52000D02*
X52999Y184500D01*
X53999D02*
X54999D01*
X54499D01*
Y187499D01*
X53999Y186999D01*
X56498D02*
X56998Y187499D01*
X57998D01*
X58498Y186999D01*
Y185000D01*
X57998Y184500D01*
X56998D01*
X56498Y185000D01*
Y186999D01*
X-4500Y230000D02*
Y232999D01*
X-3001D01*
X-2501Y232499D01*
Y231500D01*
X-3001Y231000D01*
X-4500D01*
X-3500D02*
X-2501Y230000D01*
X-1501Y230500D02*
X-1001Y230000D01*
X-1D01*
X498Y230500D01*
Y232499D01*
X-1Y232999D01*
X-1001D01*
X-1501Y232499D01*
Y231999D01*
X-1001Y231500D01*
X498D01*
X51000Y194000D02*
Y196999D01*
X52500D01*
X52999Y196499D01*
Y195500D01*
X52500Y195000D01*
X51000D01*
X52000D02*
X52999Y194000D01*
X53999Y196499D02*
X54499Y196999D01*
X55499D01*
X55998Y196499D01*
Y195999D01*
X55499Y195500D01*
X55998Y195000D01*
Y194500D01*
X55499Y194000D01*
X54499D01*
X53999Y194500D01*
Y195000D01*
X54499Y195500D01*
X53999Y195999D01*
Y196499D01*
X54499Y195500D02*
X55499D01*
X19685Y193307D02*
X16686D01*
Y194807D01*
X17186Y195306D01*
X18185D01*
X18685Y194807D01*
Y193307D01*
Y194307D02*
X19685Y195306D01*
X16686Y196306D02*
Y198305D01*
X17186D01*
X19185Y196306D01*
X19685D01*
X-4457Y210000D02*
Y212999D01*
X-2958D01*
X-2458Y212499D01*
Y211500D01*
X-2958Y211000D01*
X-4457D01*
X-3458D02*
X-2458Y210000D01*
X541Y212999D02*
X-459Y212499D01*
X-1459Y211500D01*
Y210500D01*
X-959Y210000D01*
X41D01*
X541Y210500D01*
Y211000D01*
X41Y211500D01*
X-1459D01*
X-4500Y219500D02*
Y222499D01*
X-3001D01*
X-2501Y221999D01*
Y221000D01*
X-3001Y220500D01*
X-4500D01*
X-3500D02*
X-2501Y219500D01*
X498Y222499D02*
X-1501D01*
Y221000D01*
X-501Y221499D01*
X-1D01*
X498Y221000D01*
Y220000D01*
X-1Y219500D01*
X-1001D01*
X-1501Y220000D01*
X-71999Y159500D02*
X-69000D01*
Y161000D01*
X-69500Y161499D01*
X-71499D01*
X-71999Y161000D01*
Y159500D01*
Y164498D02*
Y162499D01*
X-70499D01*
X-70999Y163499D01*
Y163999D01*
X-70499Y164498D01*
X-69500D01*
X-69000Y163999D01*
Y162999D01*
X-69500Y162499D01*
X-11500Y173999D02*
Y171000D01*
X-10001D01*
X-9501Y171500D01*
Y173499D01*
X-10001Y173999D01*
X-11500D01*
X-7001Y171000D02*
Y173999D01*
X-8501Y172500D01*
X-6502D01*
X-2000Y151499D02*
Y148500D01*
X-501D01*
X-1Y149000D01*
Y150999D01*
X-501Y151499D01*
X-2000D01*
X999Y150999D02*
X1499Y151499D01*
X2499D01*
X2998Y150999D01*
Y150499D01*
X2499Y149999D01*
X1999D01*
X2499D01*
X2998Y149500D01*
Y149000D01*
X2499Y148500D01*
X1499D01*
X999Y149000D01*
X-45245Y204468D02*
X-45745Y204967D01*
X-46744D01*
X-47244Y204468D01*
Y202468D01*
X-46744Y201969D01*
X-45745D01*
X-45245Y202468D01*
X-44245Y201969D02*
X-43245D01*
X-43745D01*
Y204967D01*
X-44245Y204468D01*
X-41746Y202468D02*
X-41246Y201969D01*
X-40246D01*
X-39746Y202468D01*
Y204468D01*
X-40246Y204967D01*
X-41246D01*
X-41746Y204468D01*
Y203968D01*
X-41246Y203468D01*
X-39746D01*
X-60499Y189164D02*
X-60999Y188664D01*
Y187664D01*
X-60499Y187164D01*
X-58500D01*
X-58000Y187664D01*
Y188664D01*
X-58500Y189164D01*
X-58000Y190163D02*
Y191163D01*
Y190663D01*
X-60999D01*
X-60499Y190163D01*
Y192663D02*
X-60999Y193162D01*
Y194162D01*
X-60499Y194662D01*
X-59999D01*
X-59500Y194162D01*
X-59000Y194662D01*
X-58500D01*
X-58000Y194162D01*
Y193162D01*
X-58500Y192663D01*
X-59000D01*
X-59500Y193162D01*
X-59999Y192663D01*
X-60499D01*
X-59500Y193162D02*
Y194162D01*
X-43444Y135464D02*
X-43944Y134964D01*
Y133964D01*
X-43444Y133465D01*
X-41445D01*
X-40945Y133964D01*
Y134964D01*
X-41445Y135464D01*
X-40945Y136464D02*
Y137463D01*
Y136963D01*
X-43944D01*
X-43444Y136464D01*
X-43944Y138963D02*
Y140962D01*
X-43444D01*
X-41445Y138963D01*
X-40945D01*
X-52499Y135464D02*
X-52999Y134964D01*
Y133964D01*
X-52499Y133465D01*
X-50500D01*
X-50000Y133964D01*
Y134964D01*
X-50500Y135464D01*
X-50000Y136464D02*
Y137463D01*
Y136963D01*
X-52999D01*
X-52499Y136464D01*
X-52999Y140962D02*
X-52499Y139962D01*
X-51499Y138963D01*
X-50500D01*
X-50000Y139463D01*
Y140462D01*
X-50500Y140962D01*
X-51000D01*
X-51499Y140462D01*
Y138963D01*
X-28461Y142350D02*
X-28961Y141850D01*
Y140850D01*
X-28461Y140350D01*
X-26462D01*
X-25962Y140850D01*
Y141850D01*
X-26462Y142350D01*
X-25962Y143349D02*
Y144349D01*
Y143849D01*
X-28961D01*
X-28461Y143349D01*
X-28961Y147848D02*
Y145849D01*
X-27462D01*
X-27962Y146848D01*
Y147348D01*
X-27462Y147848D01*
X-26462D01*
X-25962Y147348D01*
Y146349D01*
X-26462Y145849D01*
X65501Y237499D02*
X65001Y237000D01*
Y236000D01*
X65501Y235500D01*
X67500D01*
X68000Y236000D01*
Y237000D01*
X67500Y237499D01*
X68000Y238499D02*
Y239499D01*
Y238999D01*
X65001D01*
X65501Y238499D01*
X68000Y242498D02*
X65001D01*
X66501Y240998D01*
Y242998D01*
X65501Y201239D02*
X65001Y200740D01*
Y199740D01*
X65501Y199240D01*
X67500D01*
X68000Y199740D01*
Y200740D01*
X67500Y201239D01*
X68000Y202239D02*
Y203239D01*
Y202739D01*
X65001D01*
X65501Y202239D01*
Y204738D02*
X65001Y205238D01*
Y206238D01*
X65501Y206738D01*
X66001D01*
X66501Y206238D01*
Y205738D01*
Y206238D01*
X67000Y206738D01*
X67500D01*
X68000Y206238D01*
Y205238D01*
X67500Y204738D01*
X21999Y241999D02*
X21499Y242499D01*
X20500D01*
X20000Y241999D01*
Y240000D01*
X20500Y239500D01*
X21499D01*
X21999Y240000D01*
X22999Y239500D02*
X23999D01*
X23499D01*
Y242499D01*
X22999Y241999D01*
X27498Y239500D02*
X25498D01*
X27498Y241499D01*
Y241999D01*
X26998Y242499D01*
X25998D01*
X25498Y241999D01*
X-2501Y242457D02*
X-3001Y242956D01*
X-4000D01*
X-4500Y242457D01*
Y240457D01*
X-4000Y239957D01*
X-3001D01*
X-2501Y240457D01*
X-1501Y239957D02*
X-501D01*
X-1001D01*
Y242956D01*
X-1501Y242457D01*
X998Y239957D02*
X1998D01*
X1498D01*
Y242956D01*
X998Y242457D01*
X-2458Y203499D02*
X-2958Y203999D01*
X-3958D01*
X-4457Y203499D01*
Y201500D01*
X-3958Y201000D01*
X-2958D01*
X-2458Y201500D01*
X-1459Y201000D02*
X-459D01*
X-959D01*
Y203999D01*
X-1459Y203499D01*
X1041D02*
X1541Y203999D01*
X2540D01*
X3040Y203499D01*
Y201500D01*
X2540Y201000D01*
X1541D01*
X1041Y201500D01*
Y203499D01*
X21999Y232499D02*
X21499Y232999D01*
X20500D01*
X20000Y232499D01*
Y230500D01*
X20500Y230000D01*
X21499D01*
X21999Y230500D01*
X22999D02*
X23499Y230000D01*
X24499D01*
X24998Y230500D01*
Y232499D01*
X24499Y232999D01*
X23499D01*
X22999Y232499D01*
Y231999D01*
X23499Y231500D01*
X24998D01*
X7999Y145499D02*
X7500Y145999D01*
X6500D01*
X6000Y145499D01*
Y143500D01*
X6500Y143000D01*
X7500D01*
X7999Y143500D01*
X8999Y145499D02*
X9499Y145999D01*
X10499D01*
X10998Y145499D01*
Y144999D01*
X10499Y144500D01*
X10998Y144000D01*
Y143500D01*
X10499Y143000D01*
X9499D01*
X8999Y143500D01*
Y144000D01*
X9499Y144500D01*
X8999Y144999D01*
Y145499D01*
X9499Y144500D02*
X10499D01*
X7999Y123759D02*
X7500Y124259D01*
X6500D01*
X6000Y123759D01*
Y121760D01*
X6500Y121260D01*
X7500D01*
X7999Y121760D01*
X8999Y124259D02*
X10998D01*
Y123759D01*
X8999Y121760D01*
Y121260D01*
X41940Y137999D02*
X41440Y138499D01*
X40441D01*
X39941Y137999D01*
Y136000D01*
X40441Y135500D01*
X41440D01*
X41940Y136000D01*
X44939Y138499D02*
X43940Y137999D01*
X42940Y136999D01*
Y136000D01*
X43440Y135500D01*
X44440D01*
X44939Y136000D01*
Y136500D01*
X44440Y136999D01*
X42940D01*
X-24001Y12042D02*
X-24500Y12541D01*
X-25500D01*
X-26000Y12042D01*
Y10042D01*
X-25500Y9543D01*
X-24500D01*
X-24001Y10042D01*
X-21002Y9543D02*
X-23001D01*
X-21002Y11542D01*
Y12042D01*
X-21501Y12541D01*
X-22501D01*
X-23001Y12042D01*
X23653Y85964D02*
X23153Y86464D01*
X22153D01*
X21654Y85964D01*
Y83964D01*
X22153Y83465D01*
X23153D01*
X23653Y83964D01*
X26652Y86464D02*
X24653D01*
Y84964D01*
X25652Y85464D01*
X26152D01*
X26652Y84964D01*
Y83964D01*
X26152Y83465D01*
X25152D01*
X24653Y83964D01*
X40042Y153937D02*
Y156936D01*
X41542D01*
X42042Y156436D01*
Y155437D01*
X41542Y154937D01*
X40042D01*
X41042D02*
X42042Y153937D01*
X45041D02*
X43042D01*
X45041Y155936D01*
Y156436D01*
X44541Y156936D01*
X43541D01*
X43042Y156436D01*
X-5500Y31000D02*
X-8499D01*
Y32500D01*
X-7999Y32999D01*
X-7000D01*
X-6500Y32500D01*
Y31000D01*
Y32000D02*
X-5500Y32999D01*
X-7999Y33999D02*
X-8499Y34499D01*
Y35499D01*
X-7999Y35998D01*
X-7499D01*
X-7000Y35499D01*
Y34999D01*
Y35499D01*
X-6500Y35998D01*
X-6000D01*
X-5500Y35499D01*
Y34499D01*
X-6000Y33999D01*
X-28000Y31000D02*
X-30999D01*
Y32500D01*
X-30499Y32999D01*
X-29500D01*
X-29000Y32500D01*
Y31000D01*
Y32000D02*
X-28000Y32999D01*
Y35499D02*
X-30999D01*
X-29500Y33999D01*
Y35998D01*
X-31859Y11948D02*
X-32359Y12448D01*
X-33358D01*
X-33858Y11948D01*
Y9949D01*
X-33358Y9449D01*
X-32359D01*
X-31859Y9949D01*
X-30859Y9449D02*
X-29860D01*
X-30359D01*
Y12448D01*
X-30859Y11948D01*
X40157Y144882D02*
Y147881D01*
X41657D01*
X42157Y147381D01*
Y146381D01*
X41657Y145882D01*
X40157D01*
X41157D02*
X42157Y144882D01*
X43156D02*
X44156D01*
X43656D01*
Y147881D01*
X43156Y147381D01*
X-28709Y67066D02*
X-29209Y67566D01*
X-30209D01*
X-30709Y67066D01*
Y65067D01*
X-30209Y64567D01*
X-29209D01*
X-28709Y65067D01*
X-26210Y64567D02*
Y67566D01*
X-27710Y66066D01*
X-25710D01*
X-8499Y46000D02*
X-5500D01*
Y47499D01*
X-6000Y47999D01*
X-7999D01*
X-8499Y47499D01*
Y46000D01*
X-5500Y48999D02*
Y49999D01*
Y49499D01*
X-8499D01*
X-7999Y48999D01*
X-31339Y45500D02*
X-28340D01*
Y46999D01*
X-28840Y47499D01*
X-30839D01*
X-31339Y46999D01*
Y45500D01*
X-28340Y50498D02*
Y48499D01*
X-30339Y50498D01*
X-30839D01*
X-31339Y49999D01*
Y48999D01*
X-30839Y48499D01*
X68362Y167370D02*
X67362D01*
X67862D01*
Y164870D01*
X67362Y164371D01*
X66863D01*
X66363Y164870D01*
X69362Y164371D02*
X70362D01*
X69862D01*
Y167370D01*
X69362Y166870D01*
X-29103Y97495D02*
X-29603Y97995D01*
X-30602D01*
X-31102Y97495D01*
Y95496D01*
X-30602Y94996D01*
X-29603D01*
X-29103Y95496D01*
X-28103Y97495D02*
X-27604Y97995D01*
X-26604D01*
X-26104Y97495D01*
Y96995D01*
X-26604Y96496D01*
X-27104D01*
X-26604D01*
X-26104Y95996D01*
Y95496D01*
X-26604Y94996D01*
X-27604D01*
X-28103Y95496D01*
X-1643Y56499D02*
Y54000D01*
X-1143Y53500D01*
X-143D01*
X357Y54000D01*
Y56499D01*
X1357Y53500D02*
X2356D01*
X1856D01*
Y56499D01*
X1357Y55999D01*
X25621Y162448D02*
X23622D01*
Y160948D01*
X24622D01*
X23622D01*
Y159449D01*
X26621Y162448D02*
Y159449D01*
X28121D01*
X28620Y159949D01*
Y160449D01*
X28121Y160948D01*
X26621D01*
X28121D01*
X28620Y161448D01*
Y161948D01*
X28121Y162448D01*
X26621D01*
X29620Y159449D02*
X30620D01*
X30120D01*
Y162448D01*
X29620Y161948D01*
X20000Y227499D02*
Y225000D01*
X20500Y224500D01*
X21499D01*
X21999Y225000D01*
Y227499D01*
X22999Y226999D02*
X23499Y227499D01*
X24499D01*
X24998Y226999D01*
Y226499D01*
X24499Y225999D01*
X23999D01*
X24499D01*
X24998Y225500D01*
Y225000D01*
X24499Y224500D01*
X23499D01*
X22999Y225000D01*
X-30293Y137271D02*
Y134772D01*
X-29793Y134273D01*
X-28793D01*
X-28293Y134772D01*
Y137271D01*
X-25794Y134273D02*
Y137271D01*
X-27294Y135772D01*
X-25295D01*
X40500Y81000D02*
X37501D01*
Y82499D01*
X38001Y82999D01*
X39000D01*
X39500Y82499D01*
Y81000D01*
X37501Y83999D02*
X40500D01*
X39500Y84999D01*
X40500Y85998D01*
X37501D01*
X40500Y86998D02*
X37501D01*
X38501Y87998D01*
X37501Y88997D01*
X40500D01*
X-39999Y64499D02*
X-40499Y63999D01*
Y63000D01*
X-39999Y62500D01*
X-38000D01*
X-37500Y63000D01*
Y63999D01*
X-38000Y64499D01*
X-39999Y67498D02*
X-40499Y66999D01*
Y65999D01*
X-39999Y65499D01*
X-39499D01*
X-39000Y65999D01*
Y66999D01*
X-38500Y67498D01*
X-38000D01*
X-37500Y66999D01*
Y65999D01*
X-38000Y65499D01*
X37501Y62500D02*
Y64499D01*
Y63500D01*
X40500D01*
X37501Y65499D02*
X40500Y67498D01*
X37501D02*
X40500Y65499D01*
X40500Y52500D02*
X37501D01*
Y54000D01*
X38001Y54499D01*
X39000D01*
X39500Y54000D01*
Y52500D01*
Y53500D02*
X40500Y54499D01*
X37501Y55499D02*
X40500Y57498D01*
X37501D02*
X40500Y55499D01*
X38001Y42999D02*
X37501Y42500D01*
Y41500D01*
X38001Y41000D01*
X38501D01*
X39000Y41500D01*
Y42500D01*
X39500Y42999D01*
X40000D01*
X40500Y42500D01*
Y41500D01*
X40000Y41000D01*
X38001Y45998D02*
X37501Y45499D01*
Y44499D01*
X38001Y43999D01*
X40000D01*
X40500Y44499D01*
Y45499D01*
X40000Y45998D01*
X37501Y46998D02*
X40500D01*
Y48997D01*
X38001Y32999D02*
X37501Y32500D01*
Y31500D01*
X38001Y31000D01*
X38501D01*
X39000Y31500D01*
Y32500D01*
X39500Y32999D01*
X40000D01*
X40500Y32500D01*
Y31500D01*
X40000Y31000D01*
X37501Y33999D02*
X40500D01*
Y35499D01*
X40000Y35998D01*
X38001D01*
X37501Y35499D01*
Y33999D01*
X40500Y36998D02*
X38501D01*
X37501Y37998D01*
X38501Y38997D01*
X40500D01*
X39000D01*
Y36998D01*
X38001Y12699D02*
X37501Y12200D01*
Y11200D01*
X38001Y10700D01*
X40000D01*
X40500Y11200D01*
Y12200D01*
X40000Y12699D01*
X39000D01*
Y11700D01*
X40500Y13699D02*
X37501D01*
X40500Y15698D01*
X37501D01*
Y16698D02*
X40500D01*
Y18198D01*
X40000Y18697D01*
X38001D01*
X37501Y18198D01*
Y16698D01*
X-39999Y42999D02*
X-40499Y42500D01*
Y41500D01*
X-39999Y41000D01*
X-39499D01*
X-39000Y41500D01*
Y42500D01*
X-38500Y42999D01*
X-38000D01*
X-37500Y42500D01*
Y41500D01*
X-38000Y41000D01*
X-40499Y43999D02*
X-37500D01*
Y45499D01*
X-38000Y45998D01*
X-39999D01*
X-40499Y45499D01*
Y43999D01*
Y48498D02*
Y47498D01*
X-39999Y46998D01*
X-38000D01*
X-37500Y47498D01*
Y48498D01*
X-38000Y48997D01*
X-39999D01*
X-40499Y48498D01*
X-37500Y71000D02*
X-40499D01*
Y72500D01*
X-39999Y72999D01*
X-39000D01*
X-38500Y72500D01*
Y71000D01*
Y72000D02*
X-37500Y72999D01*
X-39999Y75998D02*
X-40499Y75499D01*
Y74499D01*
X-39999Y73999D01*
X-39499D01*
X-39000Y74499D01*
Y75499D01*
X-38500Y75998D01*
X-38000D01*
X-37500Y75499D01*
Y74499D01*
X-38000Y73999D01*
X-40499Y76998D02*
Y78997D01*
Y77998D01*
X-37500D01*
X37501Y71500D02*
Y72500D01*
Y72000D01*
X40500D01*
Y71500D01*
Y72500D01*
Y73999D02*
X37501D01*
X40500Y75999D01*
X37501D01*
Y76998D02*
Y78998D01*
Y77998D01*
X40500D01*
X-39999Y54499D02*
X-40499Y54000D01*
Y53000D01*
X-39999Y52500D01*
X-39499D01*
X-39000Y53000D01*
Y54000D01*
X-38500Y54499D01*
X-38000D01*
X-37500Y54000D01*
Y53000D01*
X-38000Y52500D01*
X-39999Y57498D02*
X-40499Y56999D01*
Y55999D01*
X-39999Y55499D01*
X-38000D01*
X-37500Y55999D01*
Y56999D01*
X-38000Y57498D01*
X-40499Y58498D02*
X-37500D01*
X-38500D01*
X-40499Y60497D01*
X-39000Y58998D01*
X-37500Y60497D01*
Y82500D02*
X-39499D01*
X-40499Y83500D01*
X-39499Y84499D01*
X-37500D01*
X-39000D01*
Y82500D01*
X-37500Y85499D02*
X-40499D01*
X-37500Y87498D01*
X-40499D01*
X-39999Y33499D02*
X-40499Y33000D01*
Y32000D01*
X-39999Y31500D01*
X-39499D01*
X-39000Y32000D01*
Y33000D01*
X-38500Y33499D01*
X-38000D01*
X-37500Y33000D01*
Y32000D01*
X-38000Y31500D01*
X-40499Y34499D02*
X-37500D01*
Y35999D01*
X-38000Y36498D01*
X-39999D01*
X-40499Y35999D01*
Y34499D01*
Y37498D02*
Y38498D01*
Y37998D01*
X-37500D01*
Y37498D01*
Y38498D01*
X37501Y24499D02*
Y22500D01*
X39000D01*
X38501Y23500D01*
Y24000D01*
X39000Y24499D01*
X40000D01*
X40500Y24000D01*
Y23000D01*
X40000Y22500D01*
X37501Y25499D02*
X39500D01*
X40500Y26499D01*
X39500Y27498D01*
X37501D01*
X-39999Y21000D02*
X-40499Y21500D01*
Y22500D01*
X-39999Y22999D01*
X-39499D01*
X-39000Y22500D01*
Y22000D01*
Y22500D01*
X-38500Y22999D01*
X-38000D01*
X-37500Y22500D01*
Y21500D01*
X-38000Y21000D01*
X-40499Y23999D02*
X-38500D01*
X-37500Y24999D01*
X-38500Y25998D01*
X-40499D01*
X-39999Y26998D02*
X-40499Y27498D01*
Y28498D01*
X-39999Y28997D01*
X-39499D01*
X-39000Y28498D01*
Y27998D01*
Y28498D01*
X-38500Y28997D01*
X-38000D01*
X-37500Y28498D01*
Y27498D01*
X-38000Y26998D01*
X-39999Y12699D02*
X-40499Y12200D01*
Y11200D01*
X-39999Y10700D01*
X-38000D01*
X-37500Y11200D01*
Y12200D01*
X-38000Y12699D01*
X-39000D01*
Y11700D01*
X-37500Y13699D02*
X-40499D01*
X-37500Y15698D01*
X-40499D01*
Y16698D02*
X-37500D01*
Y18198D01*
X-38000Y18698D01*
X-39999D01*
X-40499Y18198D01*
Y16698D01*
D38*
X-32557Y133879D02*
G03*
X-32557Y133879I-492J0D01*
G01*
D39*
X-12550Y104492D02*
Y108992D01*
X-1050Y104492D02*
X-1050Y108992D01*
X-12550Y104492D02*
X-10550Y104492D01*
X-7050Y113492D02*
X-6550D01*
X-3050Y104492D02*
X-1050D01*
X-68983Y236900D02*
X-64483D01*
X-68983Y225400D02*
X-64483D01*
X-68983Y234900D02*
Y236900D01*
X-59983Y230900D02*
Y231400D01*
X-68983Y225400D02*
Y227400D01*
X-21100Y158883D02*
Y163383D01*
X-32600Y158883D02*
Y163383D01*
X-23100D02*
X-21100D01*
X-27100Y154383D02*
X-26600D01*
X-32600Y163383D02*
X-30600D01*
X-32517Y203100D02*
X-28017D01*
X-32517Y214600D02*
X-28017D01*
Y203100D02*
Y205100D01*
X-37017Y208600D02*
Y209100D01*
X-28017Y212600D02*
Y214600D01*
X25400Y132073D02*
Y136573D01*
X13900Y132073D02*
Y136573D01*
X23400D02*
X25400D01*
X19400Y127573D02*
X19900D01*
X13900Y136573D02*
X15900D01*
X-46983Y164400D02*
X-42483D01*
X-46983Y152900D02*
X-42483D01*
X-46983Y162400D02*
Y164400D01*
X-37983Y158400D02*
Y158900D01*
X-46983Y152900D02*
Y154900D01*
D40*
X7902Y182283D02*
X14988D01*
Y193307D01*
X7902D02*
X14988D01*
X7902Y182283D02*
Y193307D01*
Y183071D02*
X14988D01*
X8295Y183465D02*
X14988D01*
X7902Y183858D02*
X14988D01*
X7902Y184252D02*
X14988D01*
X7902Y184646D02*
X14988D01*
D41*
X-17945Y177331D02*
Y178118D01*
Y167882D02*
Y168669D01*
X-36055Y167882D02*
Y168669D01*
Y167882D02*
X-17945D01*
X-36055Y178118D02*
X-17945D01*
X-36055Y177331D02*
Y178118D01*
X-66618Y152945D02*
X-65831D01*
X-66618D02*
Y171055D01*
X-56382Y152945D02*
Y171055D01*
X-57169Y152945D02*
X-56382D01*
X-57169Y171055D02*
X-56382D01*
X-66618D02*
X-65831D01*
X9555Y153582D02*
Y154369D01*
X-8555Y153582D02*
X9555D01*
X-8555Y163818D02*
X9555D01*
Y163031D02*
Y163818D01*
X-8555Y163031D02*
Y163818D01*
Y153582D02*
Y154369D01*
X-23600Y124922D02*
Y128564D01*
X-31474Y120887D02*
X-23600D01*
X-31474Y132698D02*
X-23600D01*
X-31474Y132304D02*
Y132698D01*
Y120887D02*
Y121182D01*
X-23600Y132304D02*
Y132698D01*
Y120887D02*
Y121280D01*
D42*
X-48500Y20000D02*
X-37000D01*
X37000D02*
X48500D01*
X37000Y30000D02*
X48500D01*
X37000Y40000D02*
X48500D01*
X37000Y50000D02*
X48500D01*
X37000Y60000D02*
X48500D01*
X37000Y70000D02*
X48500D01*
X37000Y80000D02*
X48500D01*
X-48500Y60000D02*
X-37000D01*
X-48500Y70000D02*
X-37000D01*
X-48500Y80000D02*
X-37000D01*
X-48500Y50000D02*
X-37000D01*
X-48500Y40000D02*
X-37000D01*
X-48500Y30000D02*
X-37000D01*
D43*
X11445Y182874D02*
D03*
M02*
