G04 Layer_Physical_Order=2*
G04 Layer_Color=16711680*
%FSLAX25Y25*%
%MOIN*%
G70*
G01*
G75*
%ADD24C,0.01000*%
%ADD25C,0.02000*%
%ADD26C,0.01600*%
%ADD27C,0.08500*%
%ADD28C,0.04331*%
%ADD29C,0.08000*%
%ADD30C,0.06200*%
%ADD31R,0.06200X0.06200*%
%ADD32C,0.06500*%
%ADD33R,0.06500X0.06500*%
%ADD34C,0.02800*%
%ADD35C,0.01400*%
G36*
X73478Y227043D02*
X72978Y226856D01*
X72309Y227303D01*
X71873Y227390D01*
Y225043D01*
Y222695D01*
X72309Y222782D01*
X72978Y223229D01*
X73478Y223042D01*
Y172500D01*
X48303D01*
X47815Y173230D01*
X47021Y173761D01*
X46085Y173947D01*
X45848Y173900D01*
X44029Y175718D01*
Y229476D01*
X44230Y229610D01*
X44761Y230404D01*
X44947Y231340D01*
X44761Y232277D01*
X44230Y233070D01*
X43436Y233601D01*
X42500Y233787D01*
X41564Y233601D01*
X40770Y233070D01*
X40239Y232277D01*
X40053Y231340D01*
X40239Y230404D01*
X40770Y229610D01*
X40971Y229476D01*
Y175085D01*
X41087Y174500D01*
X41419Y174004D01*
X42460Y172962D01*
X42269Y172500D01*
X0D01*
Y248675D01*
X73478D01*
Y227043D01*
D02*
G37*
G36*
X-1500Y171000D02*
X42460D01*
Y168500D01*
X50000D01*
Y171000D01*
X73478Y171000D01*
Y101326D01*
X50000D01*
X49493Y101225D01*
X49063Y100937D01*
X48775Y100507D01*
X48674Y100000D01*
Y90000D01*
X44732D01*
X44580Y90500D01*
X45037Y90805D01*
X45568Y91599D01*
X45754Y92536D01*
X45568Y93472D01*
X45037Y94266D01*
X44243Y94796D01*
X43307Y94983D01*
X42371Y94796D01*
X41577Y94266D01*
X41046Y93472D01*
X40860Y92536D01*
X40907Y92299D01*
X40001Y91393D01*
X39539Y91584D01*
Y114947D01*
X39539Y114947D01*
X39384Y115727D01*
X39338Y115795D01*
X39331Y115833D01*
X38889Y116495D01*
X37172Y118212D01*
X37371Y118695D01*
X37543Y120000D01*
X37371Y121305D01*
X36867Y122522D01*
X36066Y123566D01*
X35022Y124367D01*
X33805Y124871D01*
X32500Y125043D01*
X31195Y124871D01*
X29978Y124367D01*
X28934Y123566D01*
X28133Y122522D01*
X27933Y122039D01*
X20845D01*
X12039Y130845D01*
Y138775D01*
X12261Y139106D01*
X12447Y140042D01*
X12261Y140979D01*
X11730Y141773D01*
X10936Y142303D01*
X10000Y142490D01*
X9064Y142303D01*
X8427Y141878D01*
X-14500D01*
X-14624Y141853D01*
X-15110Y142581D01*
X-15904Y143111D01*
X-16840Y143297D01*
X-17776Y143111D01*
X-18570Y142581D01*
X-19101Y141787D01*
X-19287Y140850D01*
X-19101Y139914D01*
X-18570Y139120D01*
X-17776Y138590D01*
X-16840Y138403D01*
X-15904Y138590D01*
X-15735Y138703D01*
X-15202Y138347D01*
X-14500Y138207D01*
X7961D01*
Y130000D01*
X8116Y129220D01*
X8558Y128558D01*
X18558Y118558D01*
X18558Y118558D01*
X19220Y118116D01*
X20000Y117961D01*
X20000Y117961D01*
X27933D01*
X28133Y117478D01*
X28934Y116434D01*
X29978Y115632D01*
X31195Y115129D01*
X32500Y114957D01*
X33805Y115129D01*
X34288Y115329D01*
X35461Y114155D01*
Y79065D01*
X34961Y78914D01*
X34942Y78942D01*
X30942Y82942D01*
X30280Y83384D01*
X29500Y83539D01*
X25428D01*
X25096Y83761D01*
X24160Y83947D01*
X23223Y83761D01*
X22430Y83230D01*
X21899Y82436D01*
X21713Y81500D01*
X21899Y80564D01*
X22430Y79770D01*
X23223Y79239D01*
X24160Y79053D01*
X25096Y79239D01*
X25428Y79461D01*
X28655D01*
X31461Y76655D01*
Y75931D01*
X31020Y75695D01*
X30739Y75883D01*
X29802Y76069D01*
X28866Y75883D01*
X28072Y75352D01*
X27542Y74559D01*
X27355Y73622D01*
X27542Y72686D01*
X28072Y71892D01*
X28273Y71758D01*
Y51364D01*
X28072Y51230D01*
X27542Y50436D01*
X27355Y49500D01*
X27542Y48564D01*
X28072Y47770D01*
X28866Y47239D01*
X29802Y47053D01*
X30739Y47239D01*
X31020Y47427D01*
X31461Y47191D01*
Y31268D01*
X31239Y30936D01*
X31053Y30000D01*
X31239Y29064D01*
X31770Y28270D01*
X32564Y27739D01*
X33500Y27553D01*
X34436Y27739D01*
X35230Y28270D01*
X35761Y29064D01*
X35947Y30000D01*
X35832Y30577D01*
X36293Y30823D01*
X40000Y27116D01*
Y20000D01*
X48674D01*
Y17970D01*
X48201Y17810D01*
X48031Y18031D01*
X47143Y18712D01*
X46110Y19141D01*
X45500Y19221D01*
Y15000D01*
Y10779D01*
X46110Y10859D01*
X47143Y11288D01*
X48031Y11969D01*
X48201Y12190D01*
X48674Y12030D01*
Y10549D01*
X39451Y1326D01*
X-48674D01*
Y12030D01*
X-48201Y12190D01*
X-48031Y11969D01*
X-47143Y11288D01*
X-46110Y10859D01*
X-45500Y10779D01*
Y15000D01*
Y19221D01*
X-46110Y19141D01*
X-47143Y18712D01*
X-48031Y18031D01*
X-48201Y17810D01*
X-48674Y17970D01*
Y20000D01*
X-39500D01*
Y26395D01*
X-39038Y26587D01*
X-34226Y21774D01*
X-33663Y21399D01*
X-33000Y21267D01*
X-19226D01*
X-18436Y20739D01*
X-17500Y20553D01*
X-16564Y20739D01*
X-15770Y21270D01*
X-15239Y22064D01*
X-15053Y23000D01*
X-15239Y23936D01*
X-15770Y24730D01*
X-16564Y25261D01*
X-17500Y25447D01*
X-18436Y25261D01*
X-19226Y24733D01*
X-32282D01*
X-38317Y30768D01*
Y76309D01*
X-35226D01*
X-34436Y75782D01*
X-33500Y75595D01*
X-32564Y75782D01*
X-31770Y76312D01*
X-31239Y77106D01*
X-31053Y78043D01*
X-31239Y78979D01*
X-31770Y79773D01*
X-32564Y80303D01*
X-33500Y80489D01*
X-34436Y80303D01*
X-35226Y79776D01*
X-38317D01*
Y86892D01*
X-36140Y89069D01*
X-35226D01*
X-34436Y88542D01*
X-33500Y88355D01*
X-32564Y88542D01*
X-31770Y89072D01*
X-31635Y89273D01*
X-29670D01*
X-29085Y89389D01*
X-28589Y89721D01*
X-26871Y91438D01*
X-26540Y91934D01*
X-26423Y92520D01*
Y95203D01*
X-25923Y95354D01*
X-25533Y94770D01*
X-24739Y94239D01*
X-23802Y94053D01*
X-22866Y94239D01*
X-22072Y94770D01*
X-21542Y95564D01*
X-21355Y96500D01*
X-21403Y96737D01*
X-18919Y99221D01*
X-18587Y99717D01*
X-18471Y100302D01*
Y115636D01*
X-18270Y115770D01*
X-17739Y116564D01*
X-17553Y117500D01*
X-17739Y118436D01*
X-18270Y119230D01*
X-19064Y119761D01*
X-20000Y119947D01*
X-20936Y119761D01*
X-21730Y119230D01*
X-22261Y118436D01*
X-22447Y117500D01*
X-22261Y116564D01*
X-21730Y115770D01*
X-21529Y115636D01*
Y100936D01*
X-23565Y98900D01*
X-23802Y98947D01*
X-24739Y98761D01*
X-24764Y98744D01*
X-25083Y99132D01*
X-24115Y100100D01*
X-23784Y100596D01*
X-23667Y101181D01*
Y112702D01*
X-23467Y112837D01*
X-22936Y113630D01*
X-22750Y114567D01*
X-22936Y115503D01*
X-23467Y116297D01*
X-24260Y116828D01*
X-25197Y117014D01*
X-26133Y116828D01*
X-26927Y116297D01*
X-27458Y115503D01*
X-27644Y114567D01*
X-27458Y113630D01*
X-26927Y112837D01*
X-26726Y112702D01*
Y101815D01*
X-29034Y99507D01*
X-29366Y99010D01*
X-29482Y98425D01*
Y93153D01*
X-30304Y92332D01*
X-31635D01*
X-31770Y92533D01*
X-32564Y93063D01*
X-33500Y93249D01*
X-34436Y93063D01*
X-35226Y92536D01*
X-36858D01*
X-37521Y92404D01*
X-38083Y92028D01*
X-40111Y90000D01*
X-48674D01*
Y100000D01*
X-48775Y100507D01*
X-49063Y100937D01*
X-49493Y101225D01*
X-50000Y101326D01*
X-73478D01*
Y191648D01*
X-72978Y191681D01*
X-72936Y191365D01*
X-72816Y190455D01*
X-72312Y189238D01*
X-71511Y188194D01*
X-70466Y187392D01*
X-69250Y186889D01*
X-67945Y186717D01*
X-66640Y186889D01*
X-65423Y187392D01*
X-64379Y188194D01*
X-63577Y189238D01*
X-63074Y190455D01*
X-62902Y191760D01*
X-63074Y193065D01*
X-63577Y194281D01*
X-64379Y195326D01*
X-65423Y196127D01*
X-66640Y196631D01*
X-67945Y196803D01*
X-69250Y196631D01*
X-70466Y196127D01*
X-71511Y195326D01*
X-72312Y194281D01*
X-72816Y193065D01*
X-72936Y192155D01*
X-72978Y191838D01*
X-73478Y191871D01*
Y248675D01*
X-62380D01*
X-62280Y248175D01*
X-63022Y247867D01*
X-64066Y247066D01*
X-64868Y246022D01*
X-65371Y244805D01*
X-65543Y243500D01*
X-65371Y242195D01*
X-64868Y240978D01*
X-64066Y239934D01*
X-63022Y239132D01*
X-61805Y238629D01*
X-60500Y238457D01*
X-59195Y238629D01*
X-57978Y239132D01*
X-56934Y239934D01*
X-56133Y240978D01*
X-55629Y242195D01*
X-55457Y243500D01*
X-55629Y244805D01*
X-56133Y246022D01*
X-56934Y247066D01*
X-57978Y247867D01*
X-58720Y248175D01*
X-58620Y248675D01*
X-36274D01*
X-35940Y248175D01*
X-36084Y247826D01*
X-36193Y247000D01*
X-36084Y246174D01*
X-35765Y245404D01*
X-35258Y244742D01*
X-34596Y244235D01*
X-33826Y243916D01*
X-33000Y243807D01*
X-32174Y243916D01*
X-31404Y244235D01*
X-30742Y244742D01*
X-30235Y245404D01*
X-29916Y246174D01*
X-29807Y247000D01*
X-29916Y247826D01*
X-30060Y248175D01*
X-29726Y248675D01*
X-26274D01*
X-25940Y248175D01*
X-26084Y247826D01*
X-26193Y247000D01*
X-26084Y246174D01*
X-25765Y245404D01*
X-25258Y244742D01*
X-24596Y244235D01*
X-23826Y243916D01*
X-23000Y243807D01*
X-22174Y243916D01*
X-21404Y244235D01*
X-20742Y244742D01*
X-20235Y245404D01*
X-19916Y246174D01*
X-19807Y247000D01*
X-19916Y247826D01*
X-20060Y248175D01*
X-19726Y248675D01*
X-16274D01*
X-15940Y248175D01*
X-16084Y247826D01*
X-16193Y247000D01*
X-16084Y246174D01*
X-15765Y245404D01*
X-15258Y244742D01*
X-14596Y244235D01*
X-13826Y243916D01*
X-13000Y243807D01*
X-12174Y243916D01*
X-11404Y244235D01*
X-10742Y244742D01*
X-10235Y245404D01*
X-9916Y246174D01*
X-9807Y247000D01*
X-9916Y247826D01*
X-10060Y248175D01*
X-9726Y248675D01*
X-1500D01*
Y171000D01*
D02*
G37*
%LPC*%
G36*
X11311Y122688D02*
X10875Y122601D01*
X10081Y122070D01*
X9550Y121276D01*
X9464Y120840D01*
X11311D01*
Y122688D01*
D02*
G37*
G36*
X14159Y119840D02*
X12311D01*
Y117992D01*
X12747Y118079D01*
X13541Y118610D01*
X14072Y119404D01*
X14159Y119840D01*
D02*
G37*
G36*
X-47288Y128633D02*
X-49136D01*
X-49049Y128197D01*
X-48519Y127403D01*
X-47725Y126872D01*
X-47288Y126786D01*
Y128633D01*
D02*
G37*
G36*
X68441Y130635D02*
X67371Y130494D01*
X66373Y130081D01*
X65517Y129424D01*
X64860Y128568D01*
X64447Y127570D01*
X64306Y126500D01*
X64447Y125430D01*
X64860Y124432D01*
X65517Y123576D01*
X66373Y122919D01*
X67371Y122505D01*
X68441Y122365D01*
X69511Y122505D01*
X70509Y122919D01*
X71365Y123576D01*
X72022Y124432D01*
X72435Y125430D01*
X72576Y126500D01*
X72435Y127570D01*
X72022Y128568D01*
X71365Y129424D01*
X70509Y130081D01*
X69511Y130494D01*
X68441Y130635D01*
D02*
G37*
G36*
X12311Y122688D02*
Y120840D01*
X14159D01*
X14072Y121276D01*
X13541Y122070D01*
X12747Y122601D01*
X12311Y122688D01*
D02*
G37*
G36*
X20866Y113705D02*
X19561Y113533D01*
X18345Y113029D01*
X17300Y112227D01*
X16499Y111183D01*
X15995Y109967D01*
X15823Y108661D01*
X15995Y107356D01*
X16499Y106140D01*
X17300Y105095D01*
X18345Y104294D01*
X19561Y103790D01*
X20866Y103618D01*
X22171Y103790D01*
X23388Y104294D01*
X24432Y105095D01*
X25234Y106140D01*
X25737Y107356D01*
X25909Y108661D01*
X25737Y109967D01*
X25234Y111183D01*
X24432Y112227D01*
X23388Y113029D01*
X22171Y113533D01*
X20866Y113705D01*
D02*
G37*
G36*
X68441Y110635D02*
X67371Y110494D01*
X66373Y110081D01*
X65517Y109424D01*
X64860Y108568D01*
X64447Y107570D01*
X64306Y106500D01*
X64447Y105430D01*
X64860Y104432D01*
X65517Y103576D01*
X66373Y102919D01*
X67371Y102506D01*
X68441Y102365D01*
X69511Y102506D01*
X70509Y102919D01*
X71365Y103576D01*
X72022Y104432D01*
X72435Y105430D01*
X72576Y106500D01*
X72435Y107570D01*
X72022Y108568D01*
X71365Y109424D01*
X70509Y110081D01*
X69511Y110494D01*
X68441Y110635D01*
D02*
G37*
G36*
X-32283Y111342D02*
X-33589Y111170D01*
X-34805Y110667D01*
X-35849Y109865D01*
X-36651Y108821D01*
X-37155Y107605D01*
X-37327Y106299D01*
X-37155Y104994D01*
X-36651Y103778D01*
X-35849Y102733D01*
X-34805Y101932D01*
X-33589Y101428D01*
X-32283Y101256D01*
X-30978Y101428D01*
X-29762Y101932D01*
X-28717Y102733D01*
X-27916Y103778D01*
X-27412Y104994D01*
X-27240Y106299D01*
X-27412Y107605D01*
X-27916Y108821D01*
X-28717Y109865D01*
X-29762Y110667D01*
X-30978Y111170D01*
X-32283Y111342D01*
D02*
G37*
G36*
X11311Y119840D02*
X9464D01*
X9550Y119404D01*
X10081Y118610D01*
X10875Y118079D01*
X11311Y117992D01*
Y119840D01*
D02*
G37*
G36*
X1181Y119947D02*
X245Y119761D01*
X-549Y119230D01*
X-1080Y118436D01*
X-1237Y117644D01*
X-1326Y117585D01*
X-1864Y117808D01*
X-1887Y117842D01*
X-1970Y118259D01*
X-2500Y119053D01*
X-3294Y119584D01*
X-4231Y119770D01*
X-5167Y119584D01*
X-5961Y119053D01*
X-6492Y118259D01*
X-6678Y117323D01*
X-6631Y117086D01*
X-7581Y116135D01*
X-7913Y115639D01*
X-8029Y115053D01*
Y94301D01*
X-8230Y94167D01*
X-8761Y93373D01*
X-8947Y92437D01*
X-8761Y91501D01*
X-8230Y90707D01*
X-7436Y90176D01*
X-6500Y89990D01*
X-5564Y90176D01*
X-4770Y90707D01*
X-4239Y91501D01*
X-4135Y92026D01*
X-3579Y92256D01*
X-3536Y92227D01*
X-2600Y92041D01*
X-1664Y92227D01*
X-870Y92758D01*
X-339Y93552D01*
X-153Y94488D01*
X-339Y95425D01*
X-870Y96219D01*
X-1071Y96353D01*
Y113085D01*
X944Y115100D01*
X1181Y115053D01*
X2118Y115239D01*
X2911Y115770D01*
X3442Y116564D01*
X3628Y117500D01*
X3442Y118436D01*
X2911Y119230D01*
X2118Y119761D01*
X1181Y119947D01*
D02*
G37*
G36*
X68441Y120635D02*
X67371Y120494D01*
X66373Y120081D01*
X65517Y119424D01*
X64860Y118568D01*
X64447Y117570D01*
X64306Y116500D01*
X64447Y115430D01*
X64860Y114432D01*
X65517Y113576D01*
X66373Y112919D01*
X67371Y112505D01*
X68441Y112365D01*
X69511Y112505D01*
X70509Y112919D01*
X71365Y113576D01*
X72022Y114432D01*
X72435Y115430D01*
X72576Y116500D01*
X72435Y117570D01*
X72022Y118568D01*
X71365Y119424D01*
X70509Y120081D01*
X69511Y120494D01*
X68441Y120635D01*
D02*
G37*
G36*
X-44441Y128633D02*
X-46288D01*
Y126786D01*
X-45852Y126872D01*
X-45058Y127403D01*
X-44528Y128197D01*
X-44441Y128633D01*
D02*
G37*
G36*
X68441Y150635D02*
X67371Y150495D01*
X66373Y150081D01*
X65517Y149424D01*
X64860Y148568D01*
X64447Y147570D01*
X64306Y146500D01*
X64447Y145430D01*
X64860Y144432D01*
X65517Y143576D01*
X66373Y142919D01*
X67371Y142506D01*
X68441Y142365D01*
X69511Y142506D01*
X70509Y142919D01*
X71365Y143576D01*
X72022Y144432D01*
X72435Y145430D01*
X72576Y146500D01*
X72435Y147570D01*
X72022Y148568D01*
X71365Y149424D01*
X70509Y150081D01*
X69511Y150495D01*
X68441Y150635D01*
D02*
G37*
G36*
X68941Y140570D02*
Y137000D01*
X72510D01*
X72435Y137570D01*
X72022Y138568D01*
X71365Y139424D01*
X70509Y140081D01*
X69511Y140495D01*
X68941Y140570D01*
D02*
G37*
G36*
X-17340Y146350D02*
X-19188D01*
X-19101Y145914D01*
X-18570Y145120D01*
X-17776Y144590D01*
X-17340Y144503D01*
Y146350D01*
D02*
G37*
G36*
X15400Y149000D02*
X13552D01*
X13639Y148564D01*
X14170Y147770D01*
X14964Y147239D01*
X15400Y147152D01*
Y149000D01*
D02*
G37*
G36*
X-14492Y146350D02*
X-16340D01*
Y144503D01*
X-15904Y144590D01*
X-15110Y145120D01*
X-14579Y145914D01*
X-14492Y146350D01*
D02*
G37*
G36*
X67941Y140570D02*
X67371Y140495D01*
X66373Y140081D01*
X65517Y139424D01*
X64860Y138568D01*
X64447Y137570D01*
X64371Y137000D01*
X67941D01*
Y140570D01*
D02*
G37*
G36*
X-46288Y131481D02*
Y129633D01*
X-44441D01*
X-44528Y130069D01*
X-45058Y130863D01*
X-45852Y131394D01*
X-46288Y131481D01*
D02*
G37*
G36*
X-47288D02*
X-47725Y131394D01*
X-48519Y130863D01*
X-49049Y130069D01*
X-49136Y129633D01*
X-47288D01*
Y131481D01*
D02*
G37*
G36*
X32500Y140043D02*
X31195Y139871D01*
X29978Y139367D01*
X28934Y138566D01*
X28133Y137522D01*
X27629Y136305D01*
X27457Y135000D01*
X27629Y133695D01*
X28133Y132478D01*
X28934Y131434D01*
X29978Y130632D01*
X31195Y130129D01*
X32500Y129957D01*
X33805Y130129D01*
X35022Y130632D01*
X36066Y131434D01*
X36867Y132478D01*
X37371Y133695D01*
X37543Y135000D01*
X37371Y136305D01*
X36867Y137522D01*
X36066Y138566D01*
X35022Y139367D01*
X33805Y139871D01*
X32500Y140043D01*
D02*
G37*
G36*
X72510Y136000D02*
X68941D01*
Y132430D01*
X69511Y132506D01*
X70509Y132919D01*
X71365Y133576D01*
X72022Y134432D01*
X72435Y135430D01*
X72510Y136000D01*
D02*
G37*
G36*
X67941D02*
X64371D01*
X64447Y135430D01*
X64860Y134432D01*
X65517Y133576D01*
X66373Y132919D01*
X67371Y132506D01*
X67941Y132430D01*
Y136000D01*
D02*
G37*
G36*
X21000Y99947D02*
X20064Y99761D01*
X19270Y99230D01*
X19136Y99029D01*
X7864D01*
X7730Y99230D01*
X6936Y99761D01*
X6000Y99947D01*
X5064Y99761D01*
X4270Y99230D01*
X3739Y98436D01*
X3553Y97500D01*
X3739Y96564D01*
X4270Y95770D01*
X5064Y95239D01*
X6000Y95053D01*
X6936Y95239D01*
X7730Y95770D01*
X7864Y95971D01*
X19136D01*
X19270Y95770D01*
X20064Y95239D01*
X21000Y95053D01*
X21936Y95239D01*
X22730Y95770D01*
X23261Y96564D01*
X23447Y97500D01*
X23261Y98436D01*
X22730Y99230D01*
X21936Y99761D01*
X21000Y99947D01*
D02*
G37*
G36*
X-44500Y19221D02*
Y15500D01*
X-40779D01*
X-40859Y16109D01*
X-41288Y17143D01*
X-41969Y18031D01*
X-42857Y18712D01*
X-43891Y19141D01*
X-44500Y19221D01*
D02*
G37*
G36*
X44500D02*
X43891Y19141D01*
X42857Y18712D01*
X41969Y18031D01*
X41288Y17143D01*
X40859Y16109D01*
X40779Y15500D01*
X44500D01*
Y19221D01*
D02*
G37*
G36*
X-31496Y68589D02*
X-32432Y68402D01*
X-33226Y67872D01*
X-33757Y67078D01*
X-33943Y66142D01*
X-33757Y65205D01*
X-33226Y64411D01*
X-32432Y63881D01*
X-31496Y63695D01*
X-30560Y63881D01*
X-29766Y64411D01*
X-29632Y64612D01*
X-26618D01*
X-25885Y63879D01*
X-25388Y63548D01*
X-24803Y63431D01*
X-22338D01*
X-22230Y63270D01*
X-21436Y62739D01*
X-20500Y62553D01*
X-19564Y62739D01*
X-18770Y63270D01*
X-18239Y64064D01*
X-18053Y65000D01*
X-18239Y65936D01*
X-18770Y66730D01*
X-19564Y67261D01*
X-20500Y67447D01*
X-21436Y67261D01*
X-22230Y66730D01*
X-22391Y66490D01*
X-24170D01*
X-24903Y67223D01*
X-25399Y67555D01*
X-25984Y67671D01*
X-29632D01*
X-29766Y67872D01*
X-30560Y68402D01*
X-31496Y68589D01*
D02*
G37*
G36*
X-31152Y71465D02*
X-33000D01*
Y69617D01*
X-32564Y69704D01*
X-31770Y70234D01*
X-31239Y71028D01*
X-31152Y71465D01*
D02*
G37*
G36*
X-34000D02*
X-35848D01*
X-35761Y71028D01*
X-35230Y70234D01*
X-34436Y69704D01*
X-34000Y69617D01*
Y71465D01*
D02*
G37*
G36*
X500Y18977D02*
Y14500D01*
X4977D01*
X4871Y15305D01*
X4368Y16522D01*
X3566Y17566D01*
X2522Y18368D01*
X1305Y18871D01*
X500Y18977D01*
D02*
G37*
G36*
X4977Y13500D02*
X500D01*
Y9023D01*
X1305Y9129D01*
X2522Y9633D01*
X3566Y10434D01*
X4368Y11478D01*
X4871Y12695D01*
X4977Y13500D01*
D02*
G37*
G36*
X-500D02*
X-4977D01*
X-4871Y12695D01*
X-4368Y11478D01*
X-3566Y10434D01*
X-2522Y9633D01*
X-1305Y9129D01*
X-500Y9023D01*
Y13500D01*
D02*
G37*
G36*
X44500Y14500D02*
X40779D01*
X40859Y13891D01*
X41288Y12857D01*
X41969Y11969D01*
X42857Y11288D01*
X43891Y10859D01*
X44500Y10779D01*
Y14500D01*
D02*
G37*
G36*
X-500Y18977D02*
X-1305Y18871D01*
X-2522Y18368D01*
X-3566Y17566D01*
X-4368Y16522D01*
X-4871Y15305D01*
X-4977Y14500D01*
X-500D01*
Y18977D01*
D02*
G37*
G36*
X-40779Y14500D02*
X-44500D01*
Y10779D01*
X-43891Y10859D01*
X-42857Y11288D01*
X-41969Y11969D01*
X-41288Y12857D01*
X-40859Y13891D01*
X-40779Y14500D01*
D02*
G37*
G36*
X7500Y71465D02*
X5652D01*
X5739Y71028D01*
X6270Y70234D01*
X7064Y69704D01*
X7500Y69617D01*
Y71465D01*
D02*
G37*
G36*
X-34000Y84302D02*
X-35848D01*
X-35761Y83866D01*
X-35230Y83072D01*
X-34436Y82542D01*
X-34000Y82455D01*
Y84302D01*
D02*
G37*
G36*
X-4858Y87093D02*
X-5794Y86906D01*
X-6588Y86376D01*
X-7118Y85582D01*
X-7305Y84646D01*
X-7258Y84409D01*
X-16081Y75585D01*
X-16413Y75089D01*
X-16529Y74503D01*
Y60708D01*
X-17866Y59371D01*
X-31287D01*
X-31852Y59936D01*
X-31805Y60173D01*
X-31991Y61110D01*
X-32522Y61904D01*
X-33316Y62434D01*
X-34252Y62620D01*
X-35188Y62434D01*
X-35982Y61904D01*
X-36513Y61110D01*
X-36699Y60173D01*
X-36513Y59237D01*
X-35982Y58443D01*
X-35188Y57912D01*
X-34832Y57841D01*
Y57332D01*
X-35188Y57261D01*
X-35982Y56730D01*
X-36513Y55936D01*
X-36699Y55000D01*
X-36513Y54064D01*
X-35982Y53270D01*
X-35188Y52739D01*
X-34252Y52553D01*
X-33316Y52739D01*
X-32522Y53270D01*
X-32387Y53471D01*
X-16040D01*
X-15455Y53587D01*
X-14959Y53919D01*
X-11419Y57459D01*
X-11087Y57955D01*
X-10971Y58540D01*
Y72693D01*
X-6412Y77252D01*
X-5794Y76839D01*
X-4858Y76653D01*
X-3921Y76839D01*
X-3127Y77370D01*
X-2597Y78164D01*
X-2411Y79100D01*
X-2597Y80036D01*
X-3127Y80830D01*
X-3921Y81361D01*
X-4858Y81547D01*
X-4955Y81528D01*
X-5215Y81986D01*
X-4997Y82226D01*
X-4858Y82199D01*
X-3921Y82385D01*
X-3127Y82915D01*
X-2597Y83709D01*
X-2411Y84646D01*
X-2597Y85582D01*
X-3127Y86376D01*
X-3921Y86906D01*
X-4858Y87093D01*
D02*
G37*
G36*
X-31152Y84302D02*
X-33000D01*
Y82455D01*
X-32564Y82542D01*
X-31770Y83072D01*
X-31239Y83866D01*
X-31152Y84302D01*
D02*
G37*
G36*
X-33000Y87150D02*
Y85302D01*
X-31152D01*
X-31239Y85739D01*
X-31770Y86533D01*
X-32564Y87063D01*
X-33000Y87150D01*
D02*
G37*
G36*
X-34000D02*
X-34436Y87063D01*
X-35230Y86533D01*
X-35761Y85739D01*
X-35848Y85302D01*
X-34000D01*
Y87150D01*
D02*
G37*
G36*
X3543Y85912D02*
X2607Y85725D01*
X1813Y85195D01*
X1283Y84401D01*
X1096Y83465D01*
X1143Y83228D01*
X-336Y81748D01*
X-667Y81252D01*
X-784Y80667D01*
Y70908D01*
X-667Y70323D01*
X-336Y69827D01*
X1143Y68347D01*
X1096Y68110D01*
X1283Y67174D01*
X1813Y66380D01*
X2607Y65850D01*
X3543Y65663D01*
X4181Y65790D01*
X4481Y65340D01*
X4432Y65266D01*
X4246Y64330D01*
X4432Y63393D01*
X4963Y62600D01*
X5164Y62465D01*
Y51077D01*
X4963Y50943D01*
X4432Y50149D01*
X4246Y49213D01*
X4432Y48276D01*
X4963Y47482D01*
X5756Y46952D01*
X6693Y46766D01*
X7629Y46952D01*
X8423Y47482D01*
X8954Y48276D01*
X9140Y49213D01*
X8954Y50149D01*
X8423Y50943D01*
X8222Y51077D01*
Y62465D01*
X8423Y62600D01*
X8954Y63393D01*
X9140Y64330D01*
X8954Y65266D01*
X8423Y66060D01*
X7629Y66591D01*
X6693Y66777D01*
X6055Y66650D01*
X5755Y67100D01*
X5804Y67174D01*
X5990Y68110D01*
X5804Y69047D01*
X5274Y69841D01*
X4480Y70371D01*
X3543Y70557D01*
X3306Y70510D01*
X2275Y71542D01*
Y80033D01*
X3306Y81065D01*
X3543Y81018D01*
X4480Y81204D01*
X5274Y81734D01*
X5804Y82528D01*
X5990Y83465D01*
X5804Y84401D01*
X5274Y85195D01*
X4480Y85725D01*
X3543Y85912D01*
D02*
G37*
G36*
X-34000Y74312D02*
X-34436Y74225D01*
X-35230Y73695D01*
X-35761Y72901D01*
X-35848Y72465D01*
X-34000D01*
Y74312D01*
D02*
G37*
G36*
X10348Y71465D02*
X8500D01*
Y69617D01*
X8936Y69704D01*
X9730Y70234D01*
X10261Y71028D01*
X10348Y71465D01*
D02*
G37*
G36*
X-33000Y74312D02*
Y72465D01*
X-31152D01*
X-31239Y72901D01*
X-31770Y73695D01*
X-32564Y74225D01*
X-33000Y74312D01*
D02*
G37*
G36*
X8500D02*
Y72465D01*
X10348D01*
X10261Y72901D01*
X9730Y73695D01*
X8936Y74225D01*
X8500Y74312D01*
D02*
G37*
G36*
X7500D02*
X7064Y74225D01*
X6270Y73695D01*
X5739Y72901D01*
X5652Y72465D01*
X7500D01*
Y74312D01*
D02*
G37*
G36*
X23302Y204348D02*
X22866Y204261D01*
X22072Y203730D01*
X21542Y202936D01*
X21455Y202500D01*
X23302D01*
Y204348D01*
D02*
G37*
G36*
X61708Y233404D02*
X60771Y233218D01*
X59977Y232688D01*
X59447Y231894D01*
X59260Y230958D01*
X59447Y230021D01*
X59977Y229227D01*
X60178Y229093D01*
Y206657D01*
X59977Y206523D01*
X59447Y205729D01*
X59260Y204792D01*
X59447Y203856D01*
X59977Y203062D01*
X60771Y202532D01*
X61708Y202345D01*
X62644Y202532D01*
X63438Y203062D01*
X63968Y203856D01*
X64154Y204792D01*
X63968Y205729D01*
X63438Y206523D01*
X63237Y206657D01*
Y229093D01*
X63438Y229227D01*
X63968Y230021D01*
X64154Y230958D01*
X63968Y231894D01*
X63438Y232688D01*
X62644Y233218D01*
X61708Y233404D01*
D02*
G37*
G36*
X24302Y204348D02*
Y202500D01*
X26150D01*
X26063Y202936D01*
X25533Y203730D01*
X24739Y204261D01*
X24302Y204348D01*
D02*
G37*
G36*
X-20652Y213000D02*
X-22500D01*
Y211152D01*
X-22064Y211239D01*
X-21270Y211770D01*
X-20739Y212564D01*
X-20652Y213000D01*
D02*
G37*
G36*
X-23500D02*
X-25348D01*
X-25261Y212564D01*
X-24730Y211770D01*
X-23936Y211239D01*
X-23500Y211152D01*
Y213000D01*
D02*
G37*
G36*
X26150Y201500D02*
X24302D01*
Y199652D01*
X24739Y199739D01*
X25533Y200270D01*
X26063Y201064D01*
X26150Y201500D01*
D02*
G37*
G36*
X-10023Y196958D02*
X-14500D01*
Y192480D01*
X-13695Y192586D01*
X-12478Y193090D01*
X-11434Y193892D01*
X-10633Y194936D01*
X-10129Y196152D01*
X-10023Y196958D01*
D02*
G37*
G36*
X-15500D02*
X-19977D01*
X-19871Y196152D01*
X-19367Y194936D01*
X-18566Y193892D01*
X-17522Y193090D01*
X-16305Y192586D01*
X-15500Y192480D01*
Y196958D01*
D02*
G37*
G36*
Y202435D02*
X-16305Y202329D01*
X-17522Y201825D01*
X-18566Y201024D01*
X-19367Y199979D01*
X-19871Y198763D01*
X-19977Y197958D01*
X-15500D01*
Y202435D01*
D02*
G37*
G36*
X23302Y201500D02*
X21455D01*
X21542Y201064D01*
X22072Y200270D01*
X22866Y199739D01*
X23302Y199652D01*
Y201500D01*
D02*
G37*
G36*
X-14500Y202435D02*
Y197958D01*
X-10023D01*
X-10129Y198763D01*
X-10633Y199979D01*
X-11434Y201024D01*
X-12478Y201825D01*
X-13695Y202329D01*
X-14500Y202435D01*
D02*
G37*
G36*
X-23500Y215848D02*
X-23936Y215761D01*
X-24730Y215230D01*
X-25261Y214436D01*
X-25348Y214000D01*
X-23500D01*
Y215848D01*
D02*
G37*
G36*
X27042Y233688D02*
X26606Y233601D01*
X25812Y233070D01*
X25282Y232277D01*
X25195Y231840D01*
X27042D01*
Y233688D01*
D02*
G37*
G36*
X-33000Y242295D02*
X-34370Y242115D01*
X-35648Y241586D01*
X-36744Y240744D01*
X-37586Y239648D01*
X-38115Y238370D01*
X-38295Y237000D01*
X-38115Y235630D01*
X-37586Y234352D01*
X-36744Y233256D01*
X-35648Y232414D01*
X-34370Y231885D01*
X-33000Y231705D01*
X-31629Y231885D01*
X-30352Y232414D01*
X-29256Y233256D01*
X-28414Y234352D01*
X-28250Y234749D01*
X-27750D01*
X-27586Y234352D01*
X-26744Y233256D01*
X-25648Y232414D01*
X-24371Y231885D01*
X-23500Y231770D01*
Y237000D01*
Y242230D01*
X-24371Y242115D01*
X-25648Y241586D01*
X-26744Y240744D01*
X-27586Y239648D01*
X-27750Y239251D01*
X-28250D01*
X-28414Y239648D01*
X-29256Y240744D01*
X-30352Y241586D01*
X-31629Y242115D01*
X-33000Y242295D01*
D02*
G37*
G36*
X28043Y233688D02*
Y231840D01*
X29890D01*
X29803Y232277D01*
X29273Y233070D01*
X28479Y233601D01*
X28043Y233688D01*
D02*
G37*
G36*
X-13000Y242295D02*
X-14370Y242115D01*
X-15648Y241586D01*
X-16744Y240744D01*
X-17586Y239648D01*
X-17750Y239251D01*
X-18250D01*
X-18414Y239648D01*
X-19256Y240744D01*
X-20352Y241586D01*
X-21630Y242115D01*
X-22500Y242230D01*
Y237000D01*
Y231770D01*
X-21630Y231885D01*
X-20352Y232414D01*
X-19256Y233256D01*
X-18414Y234352D01*
X-18250Y234749D01*
X-17750D01*
X-17586Y234352D01*
X-16744Y233256D01*
X-15648Y232414D01*
X-14370Y231885D01*
X-13000Y231705D01*
X-11630Y231885D01*
X-10511Y232348D01*
X-7550Y229387D01*
Y204364D01*
X-7751Y204230D01*
X-8281Y203436D01*
X-8467Y202500D01*
X-8281Y201564D01*
X-7751Y200770D01*
X-6957Y200239D01*
X-6021Y200053D01*
X-5084Y200239D01*
X-4290Y200770D01*
X-3760Y201564D01*
X-3573Y202500D01*
X-3760Y203436D01*
X-4290Y204230D01*
X-4491Y204364D01*
Y230020D01*
X-4608Y230606D01*
X-4939Y231102D01*
X-8348Y234511D01*
X-7885Y235630D01*
X-7705Y237000D01*
X-7885Y238370D01*
X-8414Y239648D01*
X-9256Y240744D01*
X-10352Y241586D01*
X-11630Y242115D01*
X-13000Y242295D01*
D02*
G37*
G36*
X49000Y245043D02*
X47695Y244871D01*
X46478Y244368D01*
X45434Y243566D01*
X44633Y242522D01*
X44129Y241305D01*
X43957Y240000D01*
X44129Y238695D01*
X44633Y237478D01*
X45434Y236434D01*
X46478Y235632D01*
X47695Y235129D01*
X49000Y234957D01*
X50305Y235129D01*
X51522Y235632D01*
X52566Y236434D01*
X53368Y237478D01*
X53871Y238695D01*
X54043Y240000D01*
X53871Y241305D01*
X53368Y242522D01*
X52566Y243566D01*
X51522Y244368D01*
X50305Y244871D01*
X49000Y245043D01*
D02*
G37*
G36*
X29890Y230840D02*
X28043D01*
Y228993D01*
X28479Y229079D01*
X29273Y229610D01*
X29803Y230404D01*
X29890Y230840D01*
D02*
G37*
G36*
X-44340Y227287D02*
X-45276Y227101D01*
X-46070Y226570D01*
X-46205Y226370D01*
X-54943D01*
X-55529Y226253D01*
X-56025Y225922D01*
X-59081Y222865D01*
X-59413Y222369D01*
X-59529Y221783D01*
Y206657D01*
X-59730Y206523D01*
X-60261Y205729D01*
X-60447Y204792D01*
X-60261Y203856D01*
X-59730Y203062D01*
X-58936Y202532D01*
X-58000Y202345D01*
X-57064Y202532D01*
X-56270Y203062D01*
X-55739Y203856D01*
X-55553Y204792D01*
X-55739Y205729D01*
X-56270Y206523D01*
X-56471Y206657D01*
Y221150D01*
X-54310Y223311D01*
X-46205D01*
X-46070Y223110D01*
X-45276Y222579D01*
X-44340Y222393D01*
X-43404Y222579D01*
X-42610Y223110D01*
X-42079Y223904D01*
X-41893Y224840D01*
X-42079Y225777D01*
X-42610Y226570D01*
X-43404Y227101D01*
X-44340Y227287D01*
D02*
G37*
G36*
X-22500Y215848D02*
Y214000D01*
X-20652D01*
X-20739Y214436D01*
X-21270Y215230D01*
X-22064Y215761D01*
X-22500Y215848D01*
D02*
G37*
G36*
X70872Y224542D02*
X69025D01*
X69112Y224106D01*
X69642Y223312D01*
X70436Y222782D01*
X70872Y222695D01*
Y224542D01*
D02*
G37*
G36*
X27042Y230840D02*
X25195D01*
X25282Y230404D01*
X25812Y229610D01*
X26606Y229079D01*
X27042Y228993D01*
Y230840D01*
D02*
G37*
G36*
X70872Y227390D02*
X70436Y227303D01*
X69642Y226773D01*
X69112Y225979D01*
X69025Y225542D01*
X70872D01*
Y227390D01*
D02*
G37*
G36*
X24302Y183757D02*
Y181910D01*
X26150D01*
X26063Y182346D01*
X25533Y183140D01*
X24739Y183671D01*
X24302Y183757D01*
D02*
G37*
G36*
X-68445Y153403D02*
X-68881Y153316D01*
X-69675Y152785D01*
X-70206Y151992D01*
X-70292Y151555D01*
X-68445D01*
Y153403D01*
D02*
G37*
G36*
X16400Y151848D02*
Y150000D01*
X18248D01*
X18161Y150436D01*
X17630Y151230D01*
X16836Y151761D01*
X16400Y151848D01*
D02*
G37*
G36*
X-67445Y153403D02*
Y151555D01*
X-65597D01*
X-65684Y151992D01*
X-66215Y152785D01*
X-67009Y153316D01*
X-67445Y153403D01*
D02*
G37*
G36*
X-51304Y175447D02*
X-52240Y175261D01*
X-53034Y174730D01*
X-53565Y173936D01*
X-53751Y173000D01*
X-53565Y172064D01*
X-53034Y171270D01*
X-52833Y171135D01*
Y157304D01*
X-52717Y156719D01*
X-52385Y156222D01*
X-50081Y153919D01*
X-49585Y153587D01*
X-49000Y153471D01*
X-20865D01*
X-20730Y153270D01*
X-19936Y152739D01*
X-19000Y152553D01*
X-18064Y152739D01*
X-17270Y153270D01*
X-16739Y154064D01*
X-16553Y155000D01*
X-16739Y155936D01*
X-17270Y156730D01*
X-18064Y157261D01*
X-19000Y157447D01*
X-19936Y157261D01*
X-20730Y156730D01*
X-20865Y156529D01*
X-48366D01*
X-49775Y157938D01*
Y171135D01*
X-49574Y171270D01*
X-49043Y172064D01*
X-48857Y173000D01*
X-49043Y173936D01*
X-49574Y174730D01*
X-50367Y175261D01*
X-51304Y175447D01*
D02*
G37*
G36*
X72541Y160600D02*
X64341D01*
Y152400D01*
X72541D01*
Y160600D01*
D02*
G37*
G36*
X15400Y151848D02*
X14964Y151761D01*
X14170Y151230D01*
X13639Y150436D01*
X13552Y150000D01*
X15400D01*
Y151848D01*
D02*
G37*
G36*
X-17340Y149198D02*
X-17776Y149111D01*
X-18570Y148581D01*
X-19101Y147787D01*
X-19188Y147350D01*
X-17340D01*
Y149198D01*
D02*
G37*
G36*
X18248Y149000D02*
X16400D01*
Y147152D01*
X16836Y147239D01*
X17630Y147770D01*
X18161Y148564D01*
X18248Y149000D01*
D02*
G37*
G36*
X-16340Y149198D02*
Y147350D01*
X-14492D01*
X-14579Y147787D01*
X-15110Y148581D01*
X-15904Y149111D01*
X-16340Y149198D01*
D02*
G37*
G36*
X-65597Y150555D02*
X-67445D01*
Y148708D01*
X-67009Y148794D01*
X-66215Y149325D01*
X-65684Y150119D01*
X-65597Y150555D01*
D02*
G37*
G36*
X-68445D02*
X-70292D01*
X-70206Y150119D01*
X-69675Y149325D01*
X-68881Y148794D01*
X-68445Y148708D01*
Y150555D01*
D02*
G37*
G36*
X-19520Y162400D02*
X-21367D01*
X-21280Y161964D01*
X-20750Y161170D01*
X-19956Y160639D01*
X-19520Y160552D01*
Y162400D01*
D02*
G37*
G36*
X35000Y213947D02*
X34064Y213761D01*
X33270Y213230D01*
X32739Y212436D01*
X32553Y211500D01*
X32739Y210564D01*
X33270Y209770D01*
X33471Y209635D01*
Y178524D01*
X33270Y178390D01*
X32739Y177596D01*
X32553Y176660D01*
X32739Y175724D01*
X33270Y174930D01*
X34064Y174399D01*
X35000Y174213D01*
X35936Y174399D01*
X36730Y174930D01*
X37261Y175724D01*
X37447Y176660D01*
X37261Y177596D01*
X36730Y178390D01*
X36529Y178524D01*
Y209635D01*
X36730Y209770D01*
X37261Y210564D01*
X37447Y211500D01*
X37261Y212436D01*
X36730Y213230D01*
X35936Y213761D01*
X35000Y213947D01*
D02*
G37*
G36*
Y169688D02*
Y167840D01*
X36848D01*
X36761Y168277D01*
X36230Y169070D01*
X35436Y169601D01*
X35000Y169688D01*
D02*
G37*
G36*
X23302Y180910D02*
X21455D01*
X21542Y180473D01*
X22072Y179680D01*
X22866Y179149D01*
X23302Y179062D01*
Y180910D01*
D02*
G37*
G36*
Y183757D02*
X22866Y183671D01*
X22072Y183140D01*
X21542Y182346D01*
X21455Y181910D01*
X23302D01*
Y183757D01*
D02*
G37*
G36*
X26150Y180910D02*
X24302D01*
Y179062D01*
X24739Y179149D01*
X25533Y179680D01*
X26063Y180473D01*
X26150Y180910D01*
D02*
G37*
G36*
X34000Y169688D02*
X33564Y169601D01*
X32770Y169070D01*
X32239Y168277D01*
X32152Y167840D01*
X34000D01*
Y169688D01*
D02*
G37*
G36*
X-19520Y165248D02*
X-19956Y165161D01*
X-20750Y164630D01*
X-21280Y163836D01*
X-21367Y163400D01*
X-19520D01*
Y165248D01*
D02*
G37*
G36*
X-16672Y162400D02*
X-18520D01*
Y160552D01*
X-18083Y160639D01*
X-17289Y161170D01*
X-16759Y161964D01*
X-16672Y162400D01*
D02*
G37*
G36*
X-18520Y165248D02*
Y163400D01*
X-16672D01*
X-16759Y163836D01*
X-17289Y164630D01*
X-18083Y165161D01*
X-18520Y165248D01*
D02*
G37*
G36*
X36848Y166840D02*
X35000D01*
Y164992D01*
X35436Y165079D01*
X36230Y165610D01*
X36761Y166404D01*
X36848Y166840D01*
D02*
G37*
G36*
X34000D02*
X32152D01*
X32239Y166404D01*
X32770Y165610D01*
X33564Y165079D01*
X34000Y164992D01*
Y166840D01*
D02*
G37*
%LPD*%
D24*
X40157Y89386D02*
X43307Y92536D01*
X40157Y39843D02*
Y89386D01*
Y39843D02*
X45000Y35000D01*
X-12500Y58540D02*
Y73327D01*
X-16040Y55000D02*
X-12500Y58540D01*
X-34252Y55000D02*
X-16040D01*
X-15000Y60074D02*
Y74503D01*
X-17233Y57841D02*
X-15000Y60074D01*
X-31920Y57841D02*
X-17233D01*
X-34252Y60173D02*
X-31920Y57841D01*
X746Y80667D02*
X3543Y83465D01*
X746Y70908D02*
Y80667D01*
Y70908D02*
X3543Y68110D01*
X-6727Y79100D02*
X-4858D01*
X-12500Y73327D02*
X-6727Y79100D01*
X-15000Y74503D02*
X-4858Y84646D01*
X-2600Y113719D02*
X1181Y117500D01*
X-2600Y94488D02*
Y113719D01*
X-20539Y64961D02*
X-20500Y65000D01*
X-24803Y64961D02*
X-20539D01*
X-25984Y66142D02*
X-24803Y64961D01*
X-31496Y66142D02*
X-25984D01*
X-6500Y115053D02*
X-4231Y117323D01*
X6693Y49213D02*
Y64330D01*
X29802Y49500D02*
Y73622D01*
X-33500Y90802D02*
X-29670D01*
X-27953Y92520D01*
Y98425D01*
X-25197Y101181D01*
Y114567D01*
X-6500Y92437D02*
Y115053D01*
X-54943Y224840D02*
X-44340D01*
X-58000Y221783D02*
X-54943Y224840D01*
X-58000Y204792D02*
Y221783D01*
X35000Y176660D02*
Y211500D01*
X42500Y175085D02*
Y231340D01*
Y175085D02*
X46085Y171500D01*
X61708Y204792D02*
Y230958D01*
X6000Y97500D02*
X21000D01*
X-51304Y157304D02*
Y173000D01*
Y157304D02*
X-49000Y155000D01*
X-19000D01*
X-23802Y96500D02*
X-20000Y100302D01*
Y117500D01*
X-6021Y202500D02*
Y230020D01*
X-13000Y237000D02*
X-6021Y230020D01*
D25*
X37500Y32500D02*
Y114947D01*
Y32500D02*
X45000Y25000D01*
X33500Y30000D02*
Y77500D01*
X29500Y81500D02*
X33500Y77500D01*
X24160Y81500D02*
X29500D01*
X37447Y115000D02*
X37500Y114947D01*
X-45000Y15000D02*
Y19221D01*
Y15000D02*
X-39000D01*
X-45000Y9500D02*
Y15000D01*
X37447Y115000D02*
Y115053D01*
X32500Y120000D02*
X37447Y115053D01*
X20000Y120000D02*
X32500D01*
X10000Y130000D02*
X20000Y120000D01*
X10000Y130000D02*
Y140042D01*
X45000Y9500D02*
Y15000D01*
X38500D02*
X45000D01*
Y19221D01*
X30145Y167340D02*
X34500D01*
X38000D01*
D26*
X-14500Y140042D02*
X10000D01*
D27*
X-13000Y237000D02*
D03*
X-23000D02*
D03*
X-33000D02*
D03*
D28*
Y247000D02*
D03*
X-23000D02*
D03*
X-13000D02*
D03*
D29*
X49000Y240000D02*
D03*
X-67945Y191760D02*
D03*
X-60500Y243500D02*
D03*
X-32283Y106299D02*
D03*
X20866Y108661D02*
D03*
X32500Y120000D02*
D03*
Y135000D02*
D03*
X-15000Y197458D02*
D03*
X0Y14000D02*
D03*
D30*
X68441Y146500D02*
D03*
Y106500D02*
D03*
Y116500D02*
D03*
Y126500D02*
D03*
Y136500D02*
D03*
D31*
Y156500D02*
D03*
D32*
X45000Y25000D02*
D03*
Y75000D02*
D03*
Y65000D02*
D03*
Y85000D02*
D03*
Y45000D02*
D03*
Y35000D02*
D03*
Y55000D02*
D03*
Y15000D02*
D03*
X-45000Y65000D02*
D03*
Y15000D02*
D03*
Y55000D02*
D03*
Y35000D02*
D03*
Y25000D02*
D03*
Y45000D02*
D03*
Y75000D02*
D03*
D33*
Y85000D02*
D03*
D34*
X43307Y92536D02*
D03*
X11811Y120340D02*
D03*
X-4858Y84646D02*
D03*
X3543Y83465D02*
D03*
X-34252Y55000D02*
D03*
Y60173D02*
D03*
X29802Y49500D02*
D03*
X6693Y64330D02*
D03*
Y49213D02*
D03*
X29802Y73622D02*
D03*
X3543Y68110D02*
D03*
X-25197Y114567D02*
D03*
X23802Y181410D02*
D03*
X-17500Y23000D02*
D03*
X33500Y30000D02*
D03*
X-31496Y66142D02*
D03*
X24160Y81500D02*
D03*
X8000Y71965D02*
D03*
X-4858Y79100D02*
D03*
X-20500Y65000D02*
D03*
X-2600Y94488D02*
D03*
X-19020Y162900D02*
D03*
X-44340Y224840D02*
D03*
X-58000Y204792D02*
D03*
X35000Y176660D02*
D03*
Y211500D02*
D03*
X71372Y225043D02*
D03*
X27542Y231340D02*
D03*
X42500D02*
D03*
X15900Y149500D02*
D03*
X-33500Y71965D02*
D03*
Y78043D02*
D03*
Y90802D02*
D03*
Y84802D02*
D03*
X23802Y202000D02*
D03*
X34500Y167340D02*
D03*
X46085Y171500D02*
D03*
X-23000Y213500D02*
D03*
X61708Y230958D02*
D03*
Y204792D02*
D03*
X-67945Y151055D02*
D03*
X-51304Y173000D02*
D03*
X-19000Y155000D02*
D03*
X6000Y97500D02*
D03*
X21000D02*
D03*
X-6500Y92437D02*
D03*
X-16840Y140850D02*
D03*
Y146850D02*
D03*
X-46788Y129133D02*
D03*
X-23802Y96500D02*
D03*
X-20000Y117500D02*
D03*
X-4231Y117323D02*
D03*
X-6021Y202500D02*
D03*
X1181Y117500D02*
D03*
X10000Y140042D02*
D03*
D35*
X-40050Y30172D02*
Y87610D01*
Y78043D02*
X-33500D01*
X-40111Y30111D02*
X-40050Y30172D01*
Y87610D02*
X-36858Y90802D01*
X-40111Y30111D02*
X-33000Y23000D01*
X-17500D01*
X-36858Y90802D02*
X-33500D01*
M02*
