G04 Layer_Color=16711935*
%FSLAX25Y25*%
%MOIN*%
G70*
G01*
G75*
%ADD58C,0.09300*%
%ADD59C,0.04731*%
%ADD60C,0.08800*%
%ADD61C,0.07000*%
%ADD62R,0.07000X0.07000*%
%ADD63C,0.07300*%
%ADD64R,0.07300X0.07300*%
%ADD65C,0.03600*%
D58*
X-13000Y237000D02*
D03*
X-23000D02*
D03*
X-33000D02*
D03*
D59*
Y247000D02*
D03*
X-23000D02*
D03*
X-13000D02*
D03*
D60*
X49000Y240000D02*
D03*
X-67945Y191760D02*
D03*
X-60500Y243500D02*
D03*
X-32283Y106299D02*
D03*
X20866Y108661D02*
D03*
X32500Y120000D02*
D03*
Y135000D02*
D03*
X-15000Y197458D02*
D03*
X0Y14000D02*
D03*
D61*
X68441Y146500D02*
D03*
Y106500D02*
D03*
Y116500D02*
D03*
Y126500D02*
D03*
Y136500D02*
D03*
D62*
Y156500D02*
D03*
D63*
X45000Y25000D02*
D03*
Y75000D02*
D03*
Y65000D02*
D03*
Y85000D02*
D03*
Y45000D02*
D03*
Y35000D02*
D03*
Y55000D02*
D03*
Y15000D02*
D03*
X-45000Y65000D02*
D03*
Y15000D02*
D03*
Y55000D02*
D03*
Y35000D02*
D03*
Y25000D02*
D03*
Y45000D02*
D03*
Y75000D02*
D03*
D64*
Y85000D02*
D03*
D65*
X43307Y92536D02*
D03*
X11811Y120340D02*
D03*
X-4858Y84646D02*
D03*
X3543Y83465D02*
D03*
X-34252Y55000D02*
D03*
Y60173D02*
D03*
X29802Y49500D02*
D03*
X6693Y64330D02*
D03*
Y49213D02*
D03*
X29802Y73622D02*
D03*
X3543Y68110D02*
D03*
X-25197Y114567D02*
D03*
X23802Y181410D02*
D03*
X-17500Y23000D02*
D03*
X33500Y30000D02*
D03*
X-31496Y66142D02*
D03*
X24160Y81500D02*
D03*
X8000Y71965D02*
D03*
X-4858Y79100D02*
D03*
X-20500Y65000D02*
D03*
X-2600Y94488D02*
D03*
X-19020Y162900D02*
D03*
X-44340Y224840D02*
D03*
X-58000Y204792D02*
D03*
X35000Y176660D02*
D03*
Y211500D02*
D03*
X71372Y225043D02*
D03*
X27542Y231340D02*
D03*
X42500D02*
D03*
X15900Y149500D02*
D03*
X-33500Y71965D02*
D03*
Y78043D02*
D03*
Y90802D02*
D03*
Y84802D02*
D03*
X23802Y202000D02*
D03*
X34500Y167340D02*
D03*
X46085Y171500D02*
D03*
X-23000Y213500D02*
D03*
X61708Y230958D02*
D03*
Y204792D02*
D03*
X-67945Y151055D02*
D03*
X-51304Y173000D02*
D03*
X-19000Y155000D02*
D03*
X6000Y97500D02*
D03*
X21000D02*
D03*
X-6500Y92437D02*
D03*
X-16840Y140850D02*
D03*
Y146850D02*
D03*
X-46788Y129133D02*
D03*
X-23802Y96500D02*
D03*
X-20000Y117500D02*
D03*
X-4231Y117323D02*
D03*
X-6021Y202500D02*
D03*
X1181Y117500D02*
D03*
X10000Y140042D02*
D03*
M02*
