G04 Layer_Color=32896*
%FSLAX25Y25*%
%MOIN*%
G70*
G01*
G75*
%ADD42C,0.00800*%
D42*
X40000Y10000D02*
X49700D01*
X-49700D02*
X-40000D01*
X40000D02*
Y90000D01*
X49700D01*
X-49700D02*
X-40000D01*
Y10000D02*
Y90000D01*
X-29333Y55916D02*
X-28749Y56499D01*
X-27583D01*
X-27000Y55916D01*
Y55333D01*
X-27583Y54749D01*
X-28749D01*
X-29333Y54166D01*
Y53583D01*
X-28749Y53000D01*
X-27583D01*
X-27000Y53583D01*
X-32831Y55916D02*
X-32248Y56499D01*
X-31082D01*
X-30499Y55916D01*
Y53583D01*
X-31082Y53000D01*
X-32248D01*
X-32831Y53583D01*
X-33998Y56499D02*
Y53000D01*
Y54166D01*
X-36330Y56499D01*
X-34581Y54749D01*
X-36330Y53000D01*
X-30000Y83000D02*
Y85333D01*
X-31166Y86499D01*
X-32333Y85333D01*
Y83000D01*
Y84749D01*
X-30000D01*
X-33499Y83000D02*
Y86499D01*
X-35831Y83000D01*
Y86499D01*
X36000Y66499D02*
X33667D01*
X34834D01*
Y63000D01*
X32501Y66499D02*
X30169Y63000D01*
Y66499D02*
X32501Y63000D01*
X36000Y53000D02*
Y56499D01*
X34251D01*
X33667Y55916D01*
Y54749D01*
X34251Y54166D01*
X36000D01*
X34834D02*
X33667Y53000D01*
X32501Y56499D02*
X30169Y53000D01*
Y56499D02*
X32501Y53000D01*
X33667Y26499D02*
X36000D01*
Y24749D01*
X34834Y25333D01*
X34251D01*
X33667Y24749D01*
Y23583D01*
X34251Y23000D01*
X35417D01*
X36000Y23583D01*
X32501Y26499D02*
Y24166D01*
X31335Y23000D01*
X30169Y24166D01*
Y26499D01*
X33667Y15916D02*
X34251Y16499D01*
X35417D01*
X36000Y15916D01*
Y13583D01*
X35417Y13000D01*
X34251D01*
X33667Y13583D01*
Y14749D01*
X34834D01*
X32501Y13000D02*
Y16499D01*
X30169Y13000D01*
Y16499D01*
X29002D02*
Y13000D01*
X27253D01*
X26670Y13583D01*
Y15916D01*
X27253Y16499D01*
X29002D01*
X36000Y83000D02*
Y86499D01*
X34251D01*
X33667Y85916D01*
Y84749D01*
X34251Y84166D01*
X36000D01*
X32501Y86499D02*
Y83000D01*
X31335Y84166D01*
X30169Y83000D01*
Y86499D01*
X29002Y83000D02*
Y86499D01*
X27836Y85333D01*
X26670Y86499D01*
Y83000D01*
X-27000Y73000D02*
Y76499D01*
X-28749D01*
X-29333Y75916D01*
Y74749D01*
X-28749Y74166D01*
X-27000D01*
X-28166D02*
X-29333Y73000D01*
X-32831Y75916D02*
X-32248Y76499D01*
X-31082D01*
X-30499Y75916D01*
Y75333D01*
X-31082Y74749D01*
X-32248D01*
X-32831Y74166D01*
Y73583D01*
X-32248Y73000D01*
X-31082D01*
X-30499Y73583D01*
X-33998Y76499D02*
X-36330D01*
X-35164D01*
Y73000D01*
X33667Y35916D02*
X34251Y36499D01*
X35417D01*
X36000Y35916D01*
Y35333D01*
X35417Y34749D01*
X34251D01*
X33667Y34166D01*
Y33583D01*
X34251Y33000D01*
X35417D01*
X36000Y33583D01*
X32501Y36499D02*
Y33000D01*
X30752D01*
X30169Y33583D01*
Y35916D01*
X30752Y36499D01*
X32501D01*
X29002Y33000D02*
Y35333D01*
X27836Y36499D01*
X26670Y35333D01*
Y33000D01*
Y34749D01*
X29002D01*
X-29333Y45916D02*
X-28749Y46499D01*
X-27583D01*
X-27000Y45916D01*
Y45333D01*
X-27583Y44749D01*
X-28749D01*
X-29333Y44166D01*
Y43583D01*
X-28749Y43000D01*
X-27583D01*
X-27000Y43583D01*
X-30499Y46499D02*
Y43000D01*
X-32248D01*
X-32831Y43583D01*
Y45916D01*
X-32248Y46499D01*
X-30499D01*
X-35747D02*
X-34581D01*
X-33998Y45916D01*
Y43583D01*
X-34581Y43000D01*
X-35747D01*
X-36330Y43583D01*
Y45916D01*
X-35747Y46499D01*
X-27000Y25916D02*
X-27583Y26499D01*
X-28749D01*
X-29333Y25916D01*
Y25333D01*
X-28749Y24749D01*
X-28166D01*
X-28749D01*
X-29333Y24166D01*
Y23583D01*
X-28749Y23000D01*
X-27583D01*
X-27000Y23583D01*
X-30499Y26499D02*
Y24166D01*
X-31665Y23000D01*
X-32831Y24166D01*
Y26499D01*
X-33998Y25916D02*
X-34581Y26499D01*
X-35747D01*
X-36330Y25916D01*
Y25333D01*
X-35747Y24749D01*
X-35164D01*
X-35747D01*
X-36330Y24166D01*
Y23583D01*
X-35747Y23000D01*
X-34581D01*
X-33998Y23583D01*
X-29032Y15916D02*
X-28449Y16499D01*
X-27283D01*
X-26700Y15916D01*
Y13583D01*
X-27283Y13000D01*
X-28449D01*
X-29032Y13583D01*
Y14749D01*
X-27866D01*
X-30199Y13000D02*
Y16499D01*
X-32531Y13000D01*
Y16499D01*
X-33698D02*
Y13000D01*
X-35447D01*
X-36030Y13583D01*
Y15916D01*
X-35447Y16499D01*
X-33698D01*
X-32833Y65916D02*
X-32249Y66499D01*
X-31083D01*
X-30500Y65916D01*
Y63583D01*
X-31083Y63000D01*
X-32249D01*
X-32833Y63583D01*
X-36331Y65916D02*
X-35748Y66499D01*
X-34582D01*
X-33999Y65916D01*
Y65333D01*
X-34582Y64749D01*
X-35748D01*
X-36331Y64166D01*
Y63583D01*
X-35748Y63000D01*
X-34582D01*
X-33999Y63583D01*
X-30333Y35916D02*
X-29749Y36499D01*
X-28583D01*
X-28000Y35916D01*
Y35333D01*
X-28583Y34749D01*
X-29749D01*
X-30333Y34166D01*
Y33583D01*
X-29749Y33000D01*
X-28583D01*
X-28000Y33583D01*
X-31499Y36499D02*
Y33000D01*
X-33248D01*
X-33832Y33583D01*
Y35916D01*
X-33248Y36499D01*
X-31499D01*
X-34998D02*
X-36164D01*
X-35581D01*
Y33000D01*
X-34998D01*
X-36164D01*
X36000Y76499D02*
X34834D01*
X35417D01*
Y73000D01*
X36000D01*
X34834D01*
X33084D02*
Y76499D01*
X30752Y73000D01*
Y76499D01*
X29585D02*
X27253D01*
X28419D01*
Y73000D01*
X33667Y45916D02*
X34251Y46499D01*
X35417D01*
X36000Y45916D01*
Y45333D01*
X35417Y44749D01*
X34251D01*
X33667Y44166D01*
Y43583D01*
X34251Y43000D01*
X35417D01*
X36000Y43583D01*
X30169Y45916D02*
X30752Y46499D01*
X31918D01*
X32501Y45916D01*
Y43583D01*
X31918Y43000D01*
X30752D01*
X30169Y43583D01*
X29002Y46499D02*
Y43000D01*
X26670D01*
M02*
